<svg width="16" height="18" viewBox="0 0 16 18" fill="none" xmlns="http://www.w3.org/2000/svg">
<path d="M12.0166 0.591797H3.98327C2.2166 0.591797 0.766602 2.0418 0.766602 3.80846V15.5501C0.766602 17.0501 1.8416 17.6835 3.15827 16.9585L7.22493 14.7001C7.65827 14.4585 8.35827 14.4585 8.78327 14.7001L12.8499 16.9585C14.1666 17.6918 15.2416 17.0585 15.2416 15.5501V3.80846C15.2333 2.0418 13.7916 0.591797 12.0166 0.591797ZM11.0166 6.52513L7.68327 9.85846C7.55827 9.98346 7.39994 10.0418 7.2416 10.0418C7.08327 10.0418 6.92494 9.98346 6.79994 9.85846L5.54994 8.60846C5.30827 8.3668 5.30827 7.9668 5.54994 7.72513C5.7916 7.48346 6.1916 7.48346 6.43327 7.72513L7.2416 8.53346L10.1333 5.6418C10.3749 5.40013 10.7749 5.40013 11.0166 5.6418C11.2583 5.88346 11.2583 6.28346 11.0166 6.52513Z" fill="#16171D"/>
</svg>
