<svg width="20" height="20" viewBox="0 0 20 20" fill="none" xmlns="http://www.w3.org/2000/svg">
    <path d="M7.42467 17.2248C7.26634 17.2248 7.10801 17.1664 6.98301 17.0414C6.74134 16.7998 6.74134 16.3998 6.98301 16.1581L12.4163 10.7248C12.8163 10.3248 12.8163 9.67477 12.4163 9.27477L6.98301 3.84144C6.74134 3.59977 6.74134 3.19977 6.98301 2.95811C7.22467 2.71644 7.62467 2.71644 7.86634 2.95811L13.2997 8.39144C13.7247 8.81644 13.9663 9.39144 13.9663 9.99977C13.9663 10.6081 13.733 11.1831 13.2997 11.6081L7.86634 17.0414C7.74134 17.1581 7.58301 17.2248 7.42467 17.2248Z"
          fill="#16171D" fill-opacity="0.4"/>
</svg>
