<svg width="20" height="20" viewBox="0 0 20 20" fill="none" xmlns="http://www.w3.org/2000/svg">
<path d="M18 9.05051V5.5H0V14.75C0 16.5449 1.45507 18 3.25 18H10.1718C10.0562 17.6334 10 17.2541 10 16.875V16.772C10 15.2401 11.2419 14 12.7727 14H13.0505C12.4022 13.3647 12 12.4793 12 11.5C12 9.567 13.567 8 15.5 8C16.4793 8 17.3647 8.40223 18 9.05051ZM18 3.25C18 1.45507 16.5449 0 14.75 0H3.25C1.45507 0 0 1.45507 0 3.25V4H18V3.25ZM18 11.5C18 12.8807 16.8807 14 15.5 14C14.1193 14 13 12.8807 13 11.5C13 10.1193 14.1193 9 15.5 9C16.8807 9 18 10.1193 18 11.5ZM20 16.875C20 18.4315 18.7143 20 15.5 20C12.2857 20 11 18.4374 11 16.875V16.772C11 15.7929 11.7937 15 12.7727 15H18.2273C19.2063 15 20 15.793 20 16.772V16.875Z" fill="#2E843C"/>
</svg>
