<svg width="70" height="70" viewBox="0 0 70 70" fill="none" xmlns="http://www.w3.org/2000/svg">
<rect width="70" height="70" rx="4" fill="#0A4751"/>
<rect opacity="0.2" x="8" y="8" width="54" height="54" fill="white" fill-opacity="0.2"/>
<path d="M35 38.2812C37.751 38.2812 39.9805 36.0781 39.9805 33.3594V26.7969C39.9805 24.0781 37.751 21.875 35 21.875C32.249 21.875 30.0195 24.0781 30.0195 26.7969V33.3594C30.0195 36.0781 32.249 38.2812 35 38.2812ZM44.668 33.3008C44.668 33.1719 44.5625 33.0664 44.4336 33.0664H42.6758C42.5469 33.0664 42.4414 33.1719 42.4414 33.3008C42.4414 37.4111 39.1104 40.7422 35 40.7422C30.8896 40.7422 27.5586 37.4111 27.5586 33.3008C27.5586 33.1719 27.4531 33.0664 27.3242 33.0664H25.5664C25.4375 33.0664 25.332 33.1719 25.332 33.3008C25.332 38.2432 29.041 42.3213 33.8281 42.8984V45.8984H29.5713C29.1699 45.8984 28.8477 46.3174 28.8477 46.8359V47.8906C28.8477 48.0195 28.9297 48.125 29.0293 48.125H40.9707C41.0703 48.125 41.1523 48.0195 41.1523 47.8906V46.8359C41.1523 46.3174 40.8301 45.8984 40.4287 45.8984H36.0547V42.9131C40.8975 42.3857 44.668 38.2842 44.668 33.3008Z" fill="white"/>
</svg>
