<svg width="24" height="24" viewBox="0 0 24 24" fill="none" xmlns="http://www.w3.org/2000/svg">
<g clip-path="url(#clip0_3282_74237)">
<path d="M15.6371 23.3945C15.6371 23.9908 14.964 24.0189 14.1334 24.0189H13.9159C13.0852 24.0189 12.4121 23.9926 12.4121 23.3945V18.8158C12.4121 18.2195 13.0852 17.7339 13.9159 17.7339H14.1334C14.964 17.7339 15.6371 18.2176 15.6371 18.8158V23.3945Z" fill="#455A64"/>
<mask id="mask0_3282_74237" style="mask-type:luminance" maskUnits="userSpaceOnUse" x="12" y="17" width="4" height="8">
<path d="M15.6371 23.3945C15.6371 23.9908 14.964 24.0189 14.1334 24.0189H13.9159C13.0852 24.0189 12.4121 23.9926 12.4121 23.3945V18.8158C12.4121 18.2195 13.0852 17.7339 13.9159 17.7339H14.1334C14.964 17.7339 15.6371 18.2176 15.6371 18.8158V23.3945Z" fill="white"/>
</mask>
<g mask="url(#mask0_3282_74237)">
<path d="M12.333 17.9009H13.6868V24.019H12.333V17.9009Z" fill="#37474F"/>
</g>
<mask id="mask1_3282_74237" style="mask-type:luminance" maskUnits="userSpaceOnUse" x="12" y="17" width="4" height="8">
<path d="M15.6371 23.3945C15.6371 23.9908 14.964 24.0189 14.1334 24.0189H13.9159C13.0852 24.0189 12.4121 23.9926 12.4121 23.3945V18.8158C12.4121 18.2195 13.0852 17.7339 13.9159 17.7339H14.1334C14.964 17.7339 15.6371 18.2176 15.6371 18.8158V23.3945Z" fill="white"/>
</mask>
<g mask="url(#mask1_3282_74237)">
<path d="M15.1625 24.3622C15.1625 24.5835 14.9844 24.7616 14.7632 24.7635C14.6571 24.7635 14.5553 24.7215 14.4801 24.6466C14.4049 24.5718 14.3624 24.4702 14.3619 24.3641L14.3525 18.9379C14.3525 18.7166 14.5307 18.5385 14.7519 18.5366C14.9732 18.5366 15.1513 18.7147 15.1532 18.936L15.1625 24.3622Z" fill="#CFD8DC"/>
</g>
<path d="M11.8691 16.3869L15.0551 15.6675L15.7474 18.7325L12.5614 19.4522L11.8691 16.3869Z" fill="#546E7A"/>
<path d="M15.7466 18.733C16.1233 18.6479 16.2738 17.8927 16.0826 17.0463C15.8914 16.1998 15.431 15.5826 15.0543 15.6677C14.6775 15.7528 14.527 16.508 14.7182 17.3544C14.9094 18.2009 15.3698 18.8181 15.7466 18.733Z" fill="#546E7A"/>
<path d="M12.561 19.4513C12.9378 19.3662 13.0882 18.611 12.8971 17.7645C12.7059 16.9181 12.2455 16.3009 11.8687 16.386C11.492 16.4711 11.3415 17.2262 11.5327 18.0727C11.7239 18.9191 12.1843 19.5363 12.561 19.4513Z" fill="#546E7A"/>
<path d="M12.4226 18.8383C12.5721 18.8046 12.6002 18.3653 12.4855 17.8573C12.3707 17.3492 12.1565 16.9647 12.007 16.9984C11.8575 17.0322 11.8294 17.4714 11.9441 17.9795C12.0589 18.4876 12.2731 18.8721 12.4226 18.8383Z" fill="#37474F"/>
<mask id="mask2_3282_74237" style="mask-type:luminance" maskUnits="userSpaceOnUse" x="11" y="14" width="6" height="5">
<path d="M11.0703 16L16.2809 14.8232L16.8291 17.2501L11.6185 18.427L11.0703 16Z" fill="white"/>
</mask>
<g mask="url(#mask2_3282_74237)">
<path d="M15.0479 15.6674L11.8623 16.3874C12.2392 16.303 12.7004 16.9199 12.8917 17.7655C13.0829 18.6111 12.9329 19.3668 12.5561 19.4511L15.7417 18.7311C16.1186 18.6468 16.2686 17.8911 16.0773 17.0455C15.8861 16.1999 15.4248 15.583 15.0479 15.6674Z" fill="#455A64"/>
</g>
<path d="M17.8219 10.8995C18.6151 13.5226 17.1357 15.7783 14.6888 16.517L13.6557 16.8283C11.2107 17.567 8.72631 16.5095 7.93318 13.8845L5.59318 6.14076C4.80193 3.52138 6.28131 1.26576 8.72631 0.527007L9.75943 0.215757C12.2044 -0.522993 14.6907 0.534508 15.4838 3.15763L17.8219 10.8995Z" fill="#B0BEC5"/>
<mask id="mask3_3282_74237" style="mask-type:luminance" maskUnits="userSpaceOnUse" x="5" y="-1" width="14" height="19">
<path d="M17.8219 10.8995C18.6151 13.5226 17.1357 15.7783 14.6888 16.517L13.6557 16.8283C11.2107 17.567 8.72631 16.5095 7.93318 13.8845L5.59318 6.14076C4.80193 3.52138 6.28131 1.26576 8.72631 0.527007L9.75943 0.215757C12.2044 -0.522993 14.6907 0.534508 15.4838 3.15763L17.8219 10.8995Z" fill="white"/>
</mask>
<g mask="url(#mask3_3282_74237)">
<path d="M14.0119 11.5388C15.3394 15.9338 15.045 17.7038 13.0181 18.3151L12.3675 18.512C10.83 18.977 8.87061 16.9913 7.79061 13.4176L5.72811 6.58508C4.74186 3.3207 5.33623 0.783829 6.87373 0.320704L7.52436 0.123829C9.06186 -0.341171 10.6069 0.268205 11.9475 4.70633L14.0119 11.5388Z" fill="#90A4AE"/>
</g>
<path d="M12.4804 4.04621C12.5441 4.25809 12.4241 4.48121 12.2141 4.54496L7.94848 5.83309C7.73661 5.89684 7.51348 5.77684 7.44973 5.56684C7.38598 5.35496 7.50598 5.13184 7.71598 5.06809L11.9816 3.77996C12.1935 3.71621 12.4166 3.83434 12.4804 4.04621ZM13.1572 6.28871C13.221 6.50059 13.101 6.72371 12.891 6.78746L8.62536 8.07559C8.41348 8.13934 8.19036 8.01934 8.12661 7.80934C8.06286 7.59746 8.18286 7.37434 8.39285 7.31059L12.6585 6.02246C12.8704 5.95871 13.0935 6.07684 13.1572 6.28871ZM13.8341 8.53121C13.8979 8.74309 13.7779 8.96621 13.5679 9.02996L9.30223 10.3181C9.09036 10.3818 8.86723 10.2618 8.80348 10.0518C8.73973 9.83996 8.85973 9.61684 9.06973 9.55309L13.3354 8.26496C13.5472 8.20121 13.7704 8.32121 13.8341 8.53121ZM14.5129 10.7737C14.5766 10.9856 14.4566 11.2087 14.2466 11.2725L9.98098 12.5625C9.76911 12.6262 9.54598 12.5062 9.48223 12.2962C9.41848 12.0843 9.53848 11.8612 9.74848 11.7975L14.0141 10.5093C14.226 10.4437 14.4491 10.5637 14.5129 10.7737ZM15.1897 13.0181C15.2535 13.23 15.1335 13.4531 14.9235 13.5168L10.6579 14.805C10.446 14.8687 10.2229 14.7487 10.1591 14.5387C10.0954 14.3268 10.2154 14.1037 10.4254 14.04L14.691 12.75C14.9029 12.6862 15.126 12.8062 15.1897 13.0181Z" fill="#455A64"/>
<mask id="mask4_3282_74237" style="mask-type:luminance" maskUnits="userSpaceOnUse" x="5" y="-1" width="14" height="19">
<path d="M17.822 10.8994C18.6152 13.5225 17.1358 15.78 14.6908 16.5188L13.6577 16.83C11.2127 17.5688 8.7283 16.5113 7.93517 13.8863L5.59517 6.14254C4.80205 3.51941 6.27955 1.26379 8.72642 0.525037L9.75955 0.213787C12.2045 -0.524963 14.6908 0.532537 15.4839 3.15754L17.822 10.8994Z" fill="white"/>
</mask>
<g mask="url(#mask4_3282_74237)">
<path d="M19.0936 1.17547C19.193 1.37234 19.1123 1.61234 18.9155 1.71172L14.933 3.70859C14.8387 3.75224 14.7312 3.75748 14.6331 3.72321C14.535 3.68895 14.4542 3.61785 14.4076 3.525C14.3611 3.43214 14.3525 3.32481 14.3837 3.22573C14.4149 3.12666 14.4835 3.04363 14.5748 2.99422L18.5573 0.997341C18.7561 0.899841 18.9961 0.978591 19.0936 1.17547ZM19.7555 3.38797C19.8548 3.58484 19.7742 3.82484 19.5773 3.92422L15.593 5.92109C15.4987 5.96474 15.3912 5.96998 15.2931 5.93571C15.195 5.90145 15.1142 5.83035 15.0676 5.7375C15.0211 5.64464 15.0125 5.53731 15.0437 5.43823C15.0749 5.33916 15.1435 5.25613 15.2348 5.20672L19.2173 3.20984C19.4161 3.11047 19.6561 3.18922 19.7555 3.38797ZM20.4173 5.59859C20.5167 5.79547 20.4361 6.03547 20.2392 6.13484L16.2548 8.13172C16.1606 8.17536 16.053 8.18061 15.955 8.14634C15.8569 8.11207 15.7761 8.04098 15.7295 7.94812C15.6829 7.85526 15.6744 7.74793 15.7056 7.64886C15.7368 7.54978 15.8053 7.46675 15.8967 7.41734L19.8792 5.42047C20.078 5.32109 20.318 5.39984 20.4173 5.59859ZM21.0773 7.80922C21.1767 8.00609 21.0961 8.24609 20.8992 8.34547L16.9167 10.3423C16.8225 10.386 16.7149 10.3912 16.6169 10.357C16.5188 10.3227 16.4379 10.2516 16.3914 10.1587C16.3448 10.0659 16.3362 9.95856 16.3675 9.85948C16.3987 9.76041 16.4672 9.67737 16.5586 9.62797L20.5411 7.63109C20.738 7.53172 20.978 7.61047 21.0773 7.80922ZM21.7392 10.0198C21.8386 10.2167 21.758 10.4567 21.5611 10.5561L17.5767 12.553C17.4825 12.5966 17.3749 12.6019 17.2769 12.5676C17.1788 12.5333 17.0979 12.4622 17.0514 12.3694C17.0048 12.2765 16.9962 12.1692 17.0275 12.0701C17.0587 11.971 17.1272 11.888 17.2186 11.8386L21.2011 9.84172C21.3998 9.74234 21.6398 9.82109 21.7392 10.0198Z" fill="#455A64"/>
</g>
<mask id="mask5_3282_74237" style="mask-type:luminance" maskUnits="userSpaceOnUse" x="5" y="-1" width="14" height="19">
<path d="M17.824 10.8975C18.6171 13.5206 17.1378 15.7781 14.6928 16.5168L13.6596 16.8281C11.2146 17.5668 8.73025 16.5093 7.93713 13.8843L5.59713 6.14058C4.804 3.51746 6.2815 1.26183 8.72837 0.523084L9.7615 0.211834C12.2065 -0.526916 14.6927 0.530584 15.4859 3.15558L17.824 10.8975Z" fill="white"/>
</mask>
<g mask="url(#mask5_3282_74237)">
<path d="M6.50484 5.90267C6.54797 6.12017 6.40734 6.33017 6.18984 6.37329L1.81922 7.23954C1.60172 7.28267 1.39172 7.14204 1.34859 6.92454C1.30547 6.70704 1.44609 6.49704 1.66359 6.45392L6.03422 5.58579C6.24984 5.54454 6.46172 5.68517 6.50484 5.90267ZM7.17234 8.13579C7.21547 8.35329 7.07484 8.56329 6.85734 8.60642L2.48672 9.47454C2.26922 9.51767 2.05922 9.37704 2.01609 9.15954C1.97297 8.94204 2.11359 8.73204 2.33109 8.68892L6.70172 7.82079C6.91922 7.77954 7.12922 7.92017 7.17234 8.13579ZM7.83984 10.3708C7.88297 10.5883 7.74234 10.7983 7.52484 10.8414L3.15422 11.7095C2.93672 11.7527 2.72672 11.612 2.68359 11.3945C2.64047 11.177 2.78109 10.967 2.99859 10.9239L7.36922 10.0558C7.58672 10.0145 7.79672 10.1552 7.83984 10.3708ZM8.50922 12.6058C8.55234 12.8233 8.41172 13.0333 8.19422 13.0764L3.82359 13.9445C3.60609 13.9877 3.39609 13.847 3.35297 13.6295C3.30984 13.412 3.45047 13.202 3.66797 13.1589L8.03859 12.2908C8.25609 12.2477 8.46609 12.3883 8.50922 12.6058ZM9.17672 14.8408C9.21984 15.0583 9.07922 15.2683 8.86172 15.3114L4.49109 16.1795C4.27359 16.2227 4.06359 16.082 4.02047 15.8645C3.97734 15.647 4.11797 15.437 4.33547 15.3939L8.70609 14.5258C8.92359 14.4827 9.13359 14.6233 9.17672 14.8408Z" fill="#455A64"/>
</g>
<path d="M16.0759 11.0158C16.1397 11.2277 16.0197 11.4508 15.8097 11.5146C15.5978 11.5783 15.3747 11.4583 15.3109 11.2483L13.0816 3.86645C13.0178 3.65457 13.1378 3.43145 13.3478 3.3677C13.5597 3.30395 13.7828 3.42395 13.8466 3.63395L16.0759 11.0158ZM16.5541 12.6039C16.5844 12.7051 16.5735 12.8143 16.5236 12.9074C16.4737 13.0005 16.3889 13.0701 16.2878 13.1008C16.1866 13.1312 16.0775 13.1202 15.9844 13.0703C15.8913 13.0204 15.8217 12.9357 15.7909 12.8346C15.7606 12.7334 15.7715 12.6243 15.8214 12.5311C15.8713 12.438 15.9561 12.3685 16.0572 12.3377C16.2672 12.2739 16.4903 12.3939 16.5541 12.6039Z" fill="white"/>
</g>
<defs>
<clipPath id="clip0_3282_74237">
<rect width="24" height="24" fill="white"/>
</clipPath>
</defs>
</svg>
