<svg width="78" height="78" viewBox="0 0 78 78" fill="none" xmlns="http://www.w3.org/2000/svg">
<path d="M58.9874 29.7203L58.0124 59.2311C57.9294 61.7585 56.8647 64.1541 55.0443 65.9094C53.2239 67.6647 50.7912 68.6415 48.2624 68.6325H29.7374C27.2103 68.6416 24.7789 67.6661 22.9588 65.9129C21.1387 64.1597 20.0729 61.7665 19.9874 59.2408L19.0124 29.7203C18.9911 29.0738 19.2274 28.4453 19.6695 27.9731C20.1115 27.5009 20.723 27.2236 21.3695 27.2023C22.0159 27.181 22.6444 27.4173 23.1166 27.8594C23.5888 28.3014 23.8661 28.9129 23.8874 29.5594L24.8624 59.0775C24.911 60.3376 25.4459 61.5299 26.355 62.4039C27.264 63.278 28.4764 63.7658 29.7374 63.7648H48.2624C49.5251 63.7657 50.7389 63.2765 51.6481 62.4004C52.5574 61.5243 53.0913 60.3296 53.1374 59.0678L54.1124 29.5594C54.1337 28.9129 54.411 28.3014 54.8832 27.8594C55.3554 27.4173 55.9839 27.181 56.6303 27.2023C57.2768 27.2236 57.8883 27.5009 58.3304 27.9731C58.7724 28.4453 59.0087 29.0738 58.9874 29.7203ZM62.2122 19.8996C62.2122 20.546 61.9554 21.166 61.4983 21.6231C61.0412 22.0803 60.4212 22.3371 59.7747 22.3371H18.2275C17.5811 22.3371 16.9611 22.0803 16.504 21.6231C16.0468 21.166 15.79 20.546 15.79 19.8996C15.79 19.2531 16.0468 18.6331 16.504 18.176C16.9611 17.7189 17.5811 17.4621 18.2275 17.4621H25.7838C26.5561 17.4641 27.3016 17.1788 27.8751 16.6616C28.4487 16.1444 28.8093 15.4322 28.8867 14.6638C29.0666 12.8613 29.9111 11.1902 31.2557 9.97628C32.6003 8.76235 34.3487 8.09248 36.1602 8.09719H41.8396C43.6511 8.09248 45.3995 8.76235 46.7441 9.97628C48.0887 11.1902 48.9332 12.8613 49.1131 14.6638C49.1906 15.4322 49.5512 16.1444 50.1247 16.6616C50.6983 17.1788 51.4437 17.4641 52.216 17.4621H59.7723C60.4188 17.4621 61.0387 17.7189 61.4959 18.176C61.953 18.6331 62.2098 19.2531 62.2098 19.8996H62.2122ZM33.1182 17.4621H44.8865C44.5662 16.7302 44.3567 15.9547 44.2649 15.1611C44.2045 14.5602 43.9233 14.0032 43.4756 13.5979C43.028 13.1926 42.4459 12.9679 41.842 12.9673H36.1627C35.5588 12.9679 34.9767 13.1926 34.5291 13.5979C34.0814 14.0032 33.8002 14.5602 33.7398 15.1611C33.6472 15.9548 33.4394 16.7303 33.1182 17.4621ZM35.5728 54.3926V33.6373C35.5728 32.9909 35.316 32.3709 34.8589 31.9137C34.4017 31.4566 33.7818 31.1998 33.1353 31.1998C32.4888 31.1998 31.8688 31.4566 31.4117 31.9137C30.9546 32.3709 30.6978 32.9909 30.6978 33.6373V54.4024C30.6978 55.0488 30.9546 55.6688 31.4117 56.126C31.8688 56.5831 32.4888 56.8399 33.1353 56.8399C33.7818 56.8399 34.4017 56.5831 34.8589 56.126C35.316 55.6688 35.5728 55.0488 35.5728 54.4024V54.3926ZM47.3069 54.3926V33.6373C47.3069 32.9909 47.0501 32.3709 46.593 31.9137C46.1359 31.4566 45.5159 31.1998 44.8694 31.1998C44.2229 31.1998 43.603 31.4566 43.1458 31.9137C42.6887 32.3709 42.4319 32.9909 42.4319 33.6373V54.4024C42.4319 55.0488 42.6887 55.6688 43.1458 56.126C43.603 56.5831 44.2229 56.8399 44.8694 56.8399C45.5159 56.8399 46.1359 56.5831 46.593 56.126C47.0501 55.6688 47.3069 55.0488 47.3069 54.4024V54.3926Z" fill="#E30000"/>
</svg>
