<svg width="112" height="112" viewBox="0 0 112 112" fill="none" xmlns="http://www.w3.org/2000/svg">
<g opacity="0.2" clip-path="url(#clip0_403_25294)">
<path d="M8.32976 8.00109L29.2738 23.1701L29.3718 23.2401L88.7738 66.2551L88.8718 66.3251L109.83 81.5011C110.41 81.8968 110.904 82.4048 111.284 82.9949C111.664 83.5851 111.922 84.2455 112.042 84.9371C112.163 85.6286 112.143 86.3373 111.985 87.0212C111.827 87.705 111.533 88.3502 111.121 88.9186C110.709 89.4869 110.187 89.9669 109.586 90.33C108.986 90.6932 108.318 90.9322 107.624 91.033C106.929 91.1337 106.221 91.0941 105.542 90.9165C104.863 90.739 104.226 90.427 103.67 89.9991L90.9998 80.8291V99.7501C91.0005 100.73 90.727 101.69 90.2103 102.523C89.6935 103.355 88.9541 104.026 88.0758 104.461C87.1974 104.895 86.215 105.074 85.2399 104.979C84.2647 104.884 83.3356 104.518 82.5578 103.922L55.9998 83.6081L29.4418 103.922C28.6639 104.518 27.7348 104.884 26.7596 104.979C25.7845 105.074 24.8021 104.895 23.9238 104.461C23.0454 104.026 22.306 103.355 21.7893 102.523C21.2725 101.69 20.999 100.73 20.9998 99.7501V30.1351L2.16976 16.4991C1.58998 16.1034 1.09544 15.5954 0.715401 15.0052C0.335359 14.4151 0.0775288 13.7547 -0.0428412 13.0631C-0.163211 12.3716 -0.143676 11.6629 0.0146085 10.979C0.172893 10.2951 0.466713 9.64995 0.87869 9.08161C1.29067 8.51327 1.81243 8.03331 2.41313 7.67013C3.01383 7.30696 3.68126 7.06793 4.37595 6.96719C5.07063 6.86645 5.77847 6.90604 6.45758 7.08363C7.1367 7.26121 7.77331 7.57318 8.32976 8.00109ZM31.4998 37.7301V89.1171L52.8078 72.8211C53.7239 72.1195 54.8458 71.7393 55.9998 71.7393C57.1537 71.7393 58.2756 72.1195 59.1918 72.8211L80.4998 89.1171V73.2201L31.4998 37.7301ZM41.0548 7.00009H78.7498C85.5118 7.00009 90.9998 12.4881 90.9998 19.2501V44.6181C90.9998 46.0105 90.4466 47.3458 89.4621 48.3304C88.4775 49.315 87.1421 49.8681 85.7498 49.8681C84.3574 49.8681 83.022 49.315 82.0375 48.3304C81.0529 47.3458 80.4998 46.0105 80.4998 44.6181V19.2501C80.4998 18.786 80.3154 18.3408 79.9872 18.0127C79.659 17.6845 79.2139 17.5001 78.7498 17.5001H41.0548C39.6624 17.5001 38.327 16.947 37.3424 15.9624C36.3579 14.9778 35.8048 13.6425 35.8048 12.2501C35.8048 10.8577 36.3579 9.52235 37.3424 8.53778C38.327 7.55321 39.6624 7.00009 41.0548 7.00009Z" fill="#16171D"/>
</g>
<defs>
<clipPath id="clip0_403_25294">
<rect width="112" height="112" fill="white"/>
</clipPath>
</defs>
</svg>
