<svg width="28" height="29" viewBox="0 0 28 29" fill="none" xmlns="http://www.w3.org/2000/svg">
<rect y="0.333496" width="28" height="28" rx="14" fill="#0A4751" fill-opacity="0.1"/>
<path fill-rule="evenodd" clip-rule="evenodd" d="M13.333 19C13.333 19.1768 13.2628 19.3464 13.1377 19.4714C13.0127 19.5964 12.8432 19.6667 12.6663 19.6667C12.4895 19.6667 12.32 19.5964 12.1949 19.4714C12.0699 19.3464 11.9997 19.1768 11.9997 19V11.6667C11.9997 11.4899 12.0699 11.3203 12.1949 11.1953C12.32 11.0702 12.4895 11 12.6663 11C12.8432 11 13.0127 11.0702 13.1377 11.1953C13.2628 11.3203 13.333 11.4899 13.333 11.6667V19ZM10.6663 19C10.6663 19.1768 10.5961 19.3464 10.4711 19.4714C10.3461 19.5964 10.1765 19.6667 9.99967 19.6667C9.82286 19.6667 9.65329 19.5964 9.52827 19.4714C9.40325 19.3464 9.33301 19.1768 9.33301 19V14.3333C9.33301 14.1565 9.40325 13.987 9.52827 13.8619C9.65329 13.7369 9.82286 13.6667 9.99967 13.6667C10.1765 13.6667 10.3461 13.7369 10.4711 13.8619C10.5961 13.987 10.6663 14.1565 10.6663 14.3333V19ZM14.6663 19V13C14.6663 12.8232 14.7366 12.6536 14.8616 12.5286C14.9866 12.4036 15.1562 12.3333 15.333 12.3333C15.5098 12.3333 15.6794 12.4036 15.8044 12.5286C15.9294 12.6536 15.9997 12.8232 15.9997 13V19C15.9997 19.1768 15.9294 19.3464 15.8044 19.4714C15.6794 19.5964 15.5098 19.6667 15.333 19.6667C15.1562 19.6667 14.9866 19.5964 14.8616 19.4714C14.7366 19.3464 14.6663 19.1768 14.6663 19ZM17.333 9.66667C17.333 9.48986 17.4032 9.32029 17.5283 9.19526C17.6533 9.07024 17.8229 9 17.9997 9C18.1765 9 18.3461 9.07024 18.4711 9.19526C18.5961 9.32029 18.6663 9.48986 18.6663 9.66667V19C18.6663 19.1768 18.5961 19.3464 18.4711 19.4714C18.3461 19.5964 18.1765 19.6667 17.9997 19.6667C17.8229 19.6667 17.6533 19.5964 17.5283 19.4714C17.4032 19.3464 17.333 19.1768 17.333 19V9.66667Z" fill="black"/>
</svg>
