<svg width="44" height="44" viewBox="0 0 44 44" fill="none" xmlns="http://www.w3.org/2000/svg">
<rect width="44" height="44" rx="22" fill="#EFE8FF"/>
<path d="M31 18.5V27.75C31 29.5449 29.5449 31 27.75 31H16.25C14.4551 31 13 29.5449 13 27.75V18.5H31ZM23.9951 20.6953C23.3311 20.6953 22.8037 20.8727 22.4131 21.2275C22.0225 21.5824 21.8271 22.0625 21.8271 22.668C21.8271 23.0163 21.9159 23.3263 22.0933 23.5981C22.2707 23.87 22.5124 24.084 22.8184 24.2402C22.4538 24.403 22.1706 24.6357 21.9688 24.9385C21.7669 25.2412 21.666 25.583 21.666 25.9639C21.666 26.5856 21.8784 27.0804 22.3032 27.4482C22.728 27.8161 23.2936 28 24 28C24.7031 28 25.2663 27.8169 25.6895 27.4507C26.1126 27.0845 26.3242 26.5889 26.3242 25.9639C26.3242 25.5863 26.2241 25.2477 26.0239 24.9482C25.8237 24.6488 25.5381 24.4128 25.167 24.2402C25.4762 24.084 25.7204 23.87 25.8994 23.5981C26.0785 23.3263 26.168 23.0163 26.168 22.668C26.168 22.0625 25.9727 21.5824 25.582 21.2275C25.1914 20.8727 24.6624 20.6953 23.9951 20.6953ZM20.2197 20.7686H20.0684L17.2949 21.7891V22.79L19.0381 22.1943V27.9023H20.2197V20.7686ZM23.9902 24.7285C24.3353 24.7285 24.6128 24.8368 24.8228 25.0532C25.0327 25.2697 25.1377 25.5537 25.1377 25.9053C25.1377 26.2666 25.0376 26.5482 24.8374 26.75C24.6372 26.9518 24.3581 27.0527 24 27.0527C23.6419 27.0527 23.3612 26.9486 23.1577 26.7402C22.9543 26.5319 22.8525 26.2536 22.8525 25.9053C22.8525 25.5505 22.9559 25.2656 23.1626 25.0508C23.3693 24.8359 23.6452 24.7285 23.9902 24.7285ZM23.9951 21.6475C24.2979 21.6475 24.5387 21.7476 24.7178 21.9478C24.8968 22.148 24.9863 22.4027 24.9863 22.7119C24.9863 23.0374 24.8976 23.2962 24.7202 23.4883C24.5428 23.6803 24.3027 23.7764 24 23.7764C23.6973 23.7764 23.4572 23.6803 23.2798 23.4883C23.1024 23.2962 23.0137 23.0374 23.0137 22.7119C23.0137 22.3831 23.1016 22.1235 23.2773 21.9331C23.4531 21.7427 23.6924 21.6475 23.9951 21.6475ZM27.75 13C29.5449 13 31 14.4551 31 16.25V17H13V16.25C13 14.4551 14.4551 13 16.25 13H27.75Z" fill="#9747FF"/>
</svg>
