<svg width="24" height="24" viewBox="0 0 24 24" fill="none" xmlns="http://www.w3.org/2000/svg">
<path d="M23.0039 6.93143C23.0039 6.95443 22.9948 6.97649 22.9785 6.99275C22.9623 7.00901 22.9402 7.01815 22.9172 7.01815H19.0965C19.0735 7.01815 19.0514 7.00901 19.0352 6.99275C19.0189 6.97649 19.0098 6.95443 19.0098 6.93143V4.21465C19.0098 4.19165 19.0189 4.16959 19.0352 4.15333C19.0514 4.13707 19.0735 4.12793 19.0965 4.12793H22.9172C22.9402 4.12793 22.9623 4.13707 22.9785 4.15333C22.9948 4.16959 23.0039 4.19165 23.0039 4.21465V6.93143Z" fill="#8F9799"/>
<path d="M23.0096 21.0875H3.97076C3.46212 21.0875 3.0498 20.6751 3.0498 20.1665V6.72369C3.0498 6.21505 3.46212 5.80273 3.97076 5.80273H23.0096C23.5182 5.80273 23.9306 6.21505 23.9306 6.72369V20.1665C23.9306 20.6751 23.5182 21.0875 23.0096 21.0875Z" fill="#ADB8BC"/>
<path d="M22.8837 8.99644C22.8837 9.02536 22.8529 9.0488 22.8149 9.0488H19.7837C19.7456 9.0488 19.7148 9.02536 19.7148 8.99644V7.35558C19.7148 7.32666 19.7456 7.30322 19.7837 7.30322H22.8149C22.8529 7.30322 22.8837 7.32666 22.8837 7.35558V8.99644Z" fill="#FFFBDE"/>
<path d="M22.8837 10.0195C22.8837 10.0413 22.8529 10.0589 22.8149 10.0589H19.7837C19.7456 10.0589 19.7148 10.0413 19.7148 10.0195V8.78263C19.7148 8.76084 19.7456 8.74316 19.7837 8.74316H22.8149C22.8529 8.74316 22.8837 8.76084 22.8837 8.78263V10.0195Z" fill="#1C4C5A"/>
<path d="M5.24152 15.6334C5.84576 15.6334 6.33559 15.1436 6.33559 14.5394C6.33559 13.9351 5.84576 13.4453 5.24152 13.4453C4.63729 13.4453 4.14746 13.9351 4.14746 14.5394C4.14746 15.1436 4.63729 15.6334 5.24152 15.6334Z" fill="#FF473E"/>
<path d="M13.4901 19.0705C16.7396 19.0705 19.3738 16.4363 19.3738 13.1869C19.3738 9.93743 16.7396 7.30322 13.4901 7.30322C10.2406 7.30322 7.60645 9.93743 7.60645 13.1869C7.60645 16.4363 10.2406 19.0705 13.4901 19.0705Z" fill="#1C4C5A"/>
<path d="M13.4909 9.49121C11.4497 9.49121 9.79492 11.1464 9.79492 13.1872C9.79492 15.2284 11.4498 16.8832 13.4909 16.8832C15.5321 16.8832 17.1869 15.2284 17.1869 13.1872C17.187 11.1464 15.5325 9.49121 13.4909 9.49121Z" fill="#F4F3EF"/>
<path d="M13.4902 10.4097C11.9833 10.4097 10.7617 11.6313 10.7617 13.1382C10.7617 14.6451 11.9833 15.8667 13.4902 15.8667C14.9971 15.8667 16.2187 14.6451 16.2187 13.1382C16.2187 11.6312 14.9972 10.4097 13.4902 10.4097ZM14.4982 12.851C14.1273 12.851 13.8262 12.5503 13.8262 12.179C13.8262 11.8077 14.1273 11.507 14.4982 11.507C14.8692 11.507 15.1702 11.8081 15.1702 12.179C15.1702 12.5503 14.8692 12.851 14.4982 12.851Z" fill="#00BEEA"/>
<path d="M4.44458 4.73259L6.10583 2.61941C6.15219 2.56044 6.24673 2.59963 6.23783 2.67407L5.91828 5.34299C5.91694 5.35415 5.91816 5.36546 5.92183 5.37608C5.92551 5.3867 5.93154 5.39634 5.93949 5.40428C5.94743 5.41223 5.95708 5.41827 5.96769 5.42194C5.97831 5.42561 5.98963 5.42683 6.00078 5.42549L8.6697 5.10594C8.74419 5.09704 8.78333 5.19159 8.72441 5.23794L6.61123 6.8992C6.6024 6.90614 6.59526 6.915 6.59035 6.9251C6.58544 6.93521 6.58289 6.9463 6.58289 6.95753C6.58289 6.96877 6.58544 6.97985 6.59035 6.98996C6.59526 7.00006 6.6024 7.00892 6.61123 7.01587L8.72441 8.67712C8.78337 8.72348 8.74419 8.81802 8.6697 8.80912L6.00078 8.48957C5.98963 8.48823 5.97831 8.48945 5.96769 8.49312C5.95708 8.4968 5.94743 8.50283 5.93949 8.51078C5.93154 8.51872 5.92551 8.52837 5.92183 8.53898C5.91816 8.5496 5.91694 8.56091 5.91828 8.57207L6.23783 11.241C6.24673 11.3155 6.15219 11.3546 6.10583 11.2956L4.44458 9.18248C4.43763 9.17364 4.42878 9.1665 4.41867 9.16159C4.40857 9.15668 4.39748 9.15413 4.38624 9.15413C4.37501 9.15413 4.36392 9.15668 4.35381 9.16159C4.34371 9.1665 4.33485 9.17364 4.32791 9.18248L2.66666 11.2956C2.6203 11.3546 2.52575 11.3154 2.53466 11.241L2.8542 8.57207C2.85554 8.56091 2.85432 8.5496 2.85065 8.53898C2.84698 8.52837 2.84094 8.51872 2.833 8.51078C2.82505 8.50283 2.81541 8.4968 2.80479 8.49312C2.79417 8.48945 2.78286 8.48823 2.7717 8.48957L0.102781 8.80912C0.0282962 8.81802 -0.0108444 8.72348 0.0481243 8.67712L2.1613 7.01587C2.17013 7.00892 2.17727 7.00006 2.18218 6.98996C2.18709 6.97985 2.18964 6.96877 2.18964 6.95753C2.18964 6.9463 2.18709 6.93521 2.18218 6.9251C2.17727 6.915 2.17013 6.90614 2.1613 6.8992L0.0481243 5.23794C-0.0108444 5.19159 0.0283431 5.09704 0.102781 5.10594L2.7717 5.42549C2.78286 5.42683 2.79417 5.42561 2.80479 5.42194C2.81541 5.41827 2.82505 5.41223 2.833 5.40428C2.84094 5.39634 2.84698 5.3867 2.85065 5.37608C2.85432 5.36546 2.85554 5.35415 2.8542 5.34299L2.53466 2.67407C2.52575 2.59959 2.6203 2.56044 2.66666 2.61941L4.32791 4.73259C4.33485 4.74142 4.34371 4.74856 4.35381 4.75347C4.36392 4.75838 4.37501 4.76093 4.38624 4.76093C4.39748 4.76093 4.40857 4.75838 4.41867 4.75347C4.42878 4.74856 4.43763 4.74142 4.44458 4.73259Z" fill="#FFD469"/>
</svg>
