<svg width="232" height="137" viewBox="0 0 232 137" fill="none" xmlns="http://www.w3.org/2000/svg">
<path d="M115.04 111.43C115.04 139.423 89.4878 162.115 57.9681 162.115C26.4483 162.115 0.896484 139.423 0.896484 111.43C0.896484 96.6715 7.9993 83.3862 19.3347 74.1232C29.4991 65.8172 43.0666 60.7453 57.9681 60.7453C89.4878 60.7453 115.04 83.4377 115.04 111.43Z" fill="white" fill-opacity="0.12"/>
<path d="M115.04 111.43C115.04 139.423 89.4878 162.115 57.9681 162.115H222.681C191.161 162.115 165.609 139.423 165.609 111.43C165.609 107.854 166.026 104.365 166.819 100.999C164.131 101.344 161.383 101.522 158.588 101.522C130.886 101.522 107.794 83.9942 102.606 60.7453H65.3778H57.9681C89.4878 60.7453 115.04 83.4377 115.04 111.43Z" fill="white" fill-opacity="0.12"/>
<path d="M102.606 60.7453C101.891 57.541 101.516 54.228 101.516 50.8372C101.516 46.384 102.163 42.0649 103.377 37.95C98.6081 45.5484 84.3314 60.7453 65.3778 60.7453H102.606Z" fill="white" fill-opacity="0.12"/>
<path fill-rule="evenodd" clip-rule="evenodd" d="M222.681 162.115C254.2 162.115 279.752 139.423 279.752 111.43C279.752 83.4377 254.2 60.7453 222.681 60.7453C219.885 60.7453 217.137 60.9237 214.449 61.2686C209.585 81.9195 190.567 97.9521 166.819 100.999C166.026 104.365 165.609 107.854 165.609 111.43C165.609 139.423 191.161 162.115 222.681 162.115Z" fill="white" fill-opacity="0.12"/>
<path d="M214.449 61.2686C209.585 81.9195 190.567 97.9521 166.819 100.999C171.684 80.3478 190.701 64.3152 214.449 61.2686Z" fill="white" fill-opacity="0.12"/>
<path d="M215.659 50.8372C215.659 22.8447 190.107 0.152344 158.588 0.152344C132.082 0.152344 109.797 16.1989 103.377 37.95C102.163 42.0649 101.516 46.384 101.516 50.8372C101.516 54.228 101.891 57.541 102.606 60.7453C107.794 83.9942 130.886 101.522 158.588 101.522C161.383 101.522 164.131 101.344 166.819 100.999C171.684 80.3478 190.701 64.3152 214.449 61.2686C215.242 57.9021 215.659 54.4129 215.659 50.8372Z" fill="white" fill-opacity="0.12"/>
</svg>
