<svg width="28" height="28" viewBox="0 0 28 28" fill="none" xmlns="http://www.w3.org/2000/svg">
<rect width="28" height="28" rx="14" fill="#0A4751" fill-opacity="0.1"/>
<path d="M17.828 21.1666H10.1746C8.51464 21.1666 7.16797 19.82 7.16797 18.16V13.6733C7.16797 12.0133 8.51464 10.6666 10.1746 10.6666H17.828C19.488 10.6666 20.8346 12.0133 20.8346 13.6733V14.6333C20.8346 14.9066 20.608 15.1333 20.3346 15.1333H18.988C18.7546 15.1333 18.5413 15.22 18.388 15.38L18.3813 15.3866C18.1946 15.5666 18.108 15.8133 18.128 16.0666C18.168 16.5066 18.588 16.8599 19.068 16.8599H20.3346C20.608 16.8599 20.8346 17.0866 20.8346 17.3599V18.1533C20.8346 19.8199 19.488 21.1666 17.828 21.1666ZM10.1746 11.6666C9.06797 11.6666 8.16797 12.5666 8.16797 13.6733V18.16C8.16797 19.2666 9.06797 20.1666 10.1746 20.1666H17.828C18.9346 20.1666 19.8346 19.2666 19.8346 18.16V17.8666H19.068C18.0613 17.8666 17.208 17.12 17.128 16.16C17.0746 15.6133 17.2746 15.0733 17.6746 14.68C18.0213 14.3266 18.488 14.1333 18.988 14.1333H19.8346V13.6733C19.8346 12.5666 18.9346 11.6666 17.828 11.6666H10.1746Z" fill="#111010" fill-opacity="0.8"/>
<path d="M7.66797 14.7734C7.39464 14.7734 7.16797 14.5467 7.16797 14.2734V11.2267C7.16797 10.2334 7.79464 9.33338 8.7213 8.98004L14.0146 6.98004C14.5613 6.77338 15.168 6.84674 15.6413 7.18008C16.1213 7.51341 16.4013 8.05341 16.4013 8.63341V11.1667C16.4013 11.4401 16.1746 11.6667 15.9013 11.6667C15.628 11.6667 15.4013 11.4401 15.4013 11.1667V8.63341C15.4013 8.38007 15.2813 8.14673 15.068 8.00006C14.8546 7.8534 14.6013 7.82006 14.3613 7.91339L9.06797 9.91339C8.52797 10.1201 8.1613 10.6467 8.1613 11.2267V14.2734C8.16797 14.5534 7.9413 14.7734 7.66797 14.7734Z" fill="#111010" fill-opacity="0.8"/>
<path d="M19.0657 17.8666C18.059 17.8666 17.2057 17.12 17.1257 16.16C17.0723 15.6066 17.2723 15.0666 17.6723 14.6733C18.0123 14.3266 18.479 14.1333 18.979 14.1333H20.3657C21.0257 14.1533 21.5323 14.6733 21.5323 15.3133V16.6866C21.5323 17.3266 21.0257 17.8466 20.3857 17.8666H19.0657ZM20.3523 15.1333H18.9857C18.7523 15.1333 18.539 15.22 18.3857 15.38C18.1923 15.5666 18.099 15.8199 18.1257 16.0733C18.1657 16.5133 18.5857 16.8666 19.0657 16.8666H20.3723C20.459 16.8666 20.539 16.7866 20.539 16.6866V15.3133C20.539 15.2133 20.459 15.14 20.3523 15.1333Z" fill="#111010" fill-opacity="0.8"/>
<path d="M15.3346 14.5H10.668C10.3946 14.5 10.168 14.2733 10.168 14C10.168 13.7267 10.3946 13.5 10.668 13.5H15.3346C15.608 13.5 15.8346 13.7267 15.8346 14C15.8346 14.2733 15.608 14.5 15.3346 14.5Z" fill="#111010" fill-opacity="0.8"/>
</svg>
