<svg width="390" height="323" viewBox="0 0 390 323" fill="none" xmlns="http://www.w3.org/2000/svg">
<g clip-path="url(#clip0_689_3503)">
<path opacity="0.15" d="M225.26 144.893L235.086 155.865" stroke="#135677" stroke-width="1.836" stroke-miterlimit="10" stroke-linecap="round" stroke-linejoin="round"/>
<g opacity="0.6">
<g opacity="0.15">
<path d="M32.178 320.382V151.011M72.57 320.382V151.011M52.374 320.382V151.011M17.031 168.912H87.258M17.031 177.633H87.258M17.031 199.206H87.258M17.031 208.845H87.258M17.031 231.336H87.258M17.031 240.975H87.258M17.031 264.384H87.258M17.031 273.564H87.258M17.031 293.301H87.258M17.031 302.022H87.258M16.93 151.008H86.9413V321.571H16.93V151.008Z" stroke="#BED8FF" stroke-width="1.836" stroke-miterlimit="10" stroke-linecap="round" stroke-linejoin="round"/>
<path d="M32.5443 136.043H72.8174V151.369H32.5443V136.043ZM41.9134 120.717H63.4483V136.043H41.9134V120.717Z" stroke="#BED8FF" stroke-width="1.836" stroke-miterlimit="10" stroke-linecap="round" stroke-linejoin="round"/>
</g>
<g opacity="0.15">
<path d="M310.485 321.151H282.107V150.367H356.921V321.151H334.889" stroke="#BED8FF" stroke-width="1.836" stroke-miterlimit="10" stroke-linecap="round" stroke-linejoin="round"/>
<path d="M291.513 219.401H347.052M291.513 226.745H347.052M291.513 257.957H347.052M291.513 265.76H347.052M291.513 273.563H347.052M320.889 117.503V91.7988M291.767 166.032H300.811V181.916H291.767V166.032ZM307.25 166.032H316.294V181.916H307.25V166.032ZM322.734 166.032H331.777V181.916H322.734V166.032ZM338.217 166.032H347.26V181.916H338.217V166.032ZM291.767 189.9H300.811V205.784H291.767V189.9ZM307.25 189.9H316.294V205.784H307.25V189.9ZM322.734 189.9H331.777V205.784H322.734V189.9ZM338.217 189.9H347.26V205.784H338.217V189.9ZM291.767 235.327H300.811V248.93H291.767V235.327ZM307.25 235.327H316.294V248.93H307.25V235.327ZM322.734 235.327H331.777V248.93H322.734V235.327ZM338.217 235.327H347.26V248.93H338.217V235.327ZM291.767 283.719H300.811V297.322H291.767V283.719ZM307.25 283.719H316.294V297.322H307.25V283.719ZM322.734 283.719H331.777V297.322H322.734V283.719ZM338.217 283.719H347.26V297.322H338.217V283.719ZM296.289 134.027H347.055V150.367H296.289V134.027ZM307.25 117.687H336.093V134.027H307.25V117.687Z" stroke="#BED8FF" stroke-width="1.836" stroke-miterlimit="10" stroke-linecap="round" stroke-linejoin="round"/>
</g>
<g opacity="0.15">
<path d="M244.578 321.299H205.943V155.646L225.26 134.578L244.578 155.646V321.299Z" stroke="#BED8FF" stroke-width="1.836" stroke-miterlimit="10" stroke-linecap="round" stroke-linejoin="round"/>
<path d="M276.92 321.301H244.578V187.798C244.578 169.181 256.831 166.135 276.92 156.428V321.301Z" stroke="#BED8FF" stroke-width="1.836" stroke-miterlimit="10" stroke-linecap="round" stroke-linejoin="round"/>
<path d="M256.17 284.58V292.842M264.891 284.58V292.842M256.17 267.138V275.4M264.891 267.138V275.4M256.17 249.696V257.958M264.891 249.696V257.958M256.17 232.254V240.516M264.891 232.254V240.516M256.17 214.812V223.074M264.891 214.812V223.074M256.17 197.37V205.632M264.891 197.37V205.632M256.17 179.928V188.19M264.891 179.928V188.19" stroke="#BED8FF" stroke-width="1.836" stroke-miterlimit="10" stroke-linejoin="round"/>
<path d="M173.464 321.301H205.807V187.798C205.807 169.181 193.554 166.135 173.464 156.428V321.301Z" stroke="#BED8FF" stroke-width="1.836" stroke-miterlimit="10" stroke-linecap="round" stroke-linejoin="round"/>
<path d="M192.828 284.58V292.842M184.566 284.58V292.842M192.828 267.138V275.4M184.566 267.138V275.4M192.828 249.696V257.958M184.566 249.696V257.958M192.828 232.254V240.516M184.566 232.254V240.516M192.828 214.812V223.074M184.566 214.812V223.074M192.828 197.37V205.632M184.566 197.37V205.632M192.828 179.928V188.19M184.566 179.928V188.19" stroke="#BED8FF" stroke-width="1.836" stroke-miterlimit="10" stroke-linejoin="round"/>
<path d="M217.614 161.566V280.447M234.138 161.566V280.447M212.384 277.234H237.87M212.384 259.792H237.87M212.384 242.35H237.87M212.384 224.908H237.87M212.384 207.466H237.87M212.384 190.024H237.87M212.384 172.582H237.87" stroke="#BED8FF" stroke-width="1.836" stroke-miterlimit="10" stroke-linecap="round" stroke-linejoin="round"/>
</g>
<g opacity="0.15">
<path d="M98.6563 134.578H166.177V321.151H98.6563V134.578Z" stroke="#BED8FF" stroke-width="1.836" stroke-miterlimit="10" stroke-linecap="round" stroke-linejoin="round"/>
<path d="M146.01 115.667V99.1426M107.639 148.453H115.566V280.925H107.639V148.453ZM121.705 148.453H129.632V280.925H121.705V148.453ZM135.772 148.453H143.699V280.925H135.772V148.453ZM149.839 148.453H157.766V280.925H149.839V148.453ZM135.772 115.667H157.766V134.577H135.772V115.667ZM106.745 122.245H127.568V134.577H106.745V122.245Z" stroke="#BED8FF" stroke-width="1.836" stroke-miterlimit="10" stroke-linecap="round" stroke-linejoin="round"/>
</g>
</g>
<path opacity="0.21" d="M203.383 254.129V295.064M139.115 254.135L138.071 295.057" stroke="#72757C" stroke-width="1.377" stroke-miterlimit="10" stroke-linecap="round"/>
<path opacity="0.2" d="M268.02 293.952H295.625C297.615 293.952 299.403 294.802 300.659 296.151C300.678 295.944 300.691 295.734 300.691 295.522C300.691 291.719 297.608 288.637 293.806 288.637H266.201V302.407H268.02V293.952H268.02Z" fill="#72757C"/>
<path d="M89.7825 321.153H-1.72467M310.485 321.153H96.897M326.282 321.153H319.971M394.725 321.153H334.085M38.145 305.695V319.924L47.1744 311.206" stroke="#135677" stroke-width="3.672" stroke-miterlimit="10" stroke-linecap="round" stroke-linejoin="round"/>
<path d="M54.7681 79.9152C52.6939 76.9578 49.2601 75.0245 45.3733 75.0245C44.4755 75.0245 43.6029 75.131 42.7643 75.3261C39.8708 72.092 35.6668 70.0549 30.9855 70.0549C22.947 70.0549 16.3149 76.0586 15.3171 83.8254C15.1353 83.8144 14.9549 83.7978 14.7699 83.7978C9.83706 83.7978 5.83826 87.7966 5.83826 92.7295C5.83826 93.0494 5.85662 93.3648 5.88921 93.6755H52.6604M91.8489 97.4613H131.356M119.011 107.595H128.6M108.037 101.935H125.785M209.098 42.6875H238.982M225.26 49.802H260.749M338.172 75.047C338.199 74.7133 338.217 74.3764 338.217 74.0358C338.217 67.2637 332.728 61.7741 325.955 61.7741C323.441 61.771 320.987 62.5448 318.929 63.9897C317.459 58.865 312.741 55.1135 307.144 55.1135C306.184 55.1135 305.252 55.2274 304.356 55.4358C301.264 51.979 296.77 49.802 291.767 49.802C283.176 49.802 276.088 56.2184 275.022 64.5194C274.827 64.5074 274.634 64.49 274.437 64.49C269.165 64.49 264.891 68.7637 264.891 74.0358C264.891 74.3778 264.911 74.7147 264.946 75.047H338.172Z" stroke="#CCE1EA" stroke-opacity="0.1" stroke-width="1.836" stroke-miterlimit="10" stroke-linecap="round" stroke-linejoin="round"/>
<path d="M107.335 91.4432C107.772 90.4517 107.998 89.38 107.998 88.2963C107.998 84.0262 104.591 80.5649 100.389 80.5649C99.3351 80.5649 98.3317 80.7829 97.4188 81.1768C95.7425 76.6327 91.3737 73.3926 86.2476 73.3926C80.1585 73.3926 75.1408 77.9651 74.433 83.8633C73.9305 83.7517 73.4174 83.6948 72.9027 83.6935C69.0682 83.6935 65.9598 86.7169 65.9598 90.4467C65.9598 90.7864 65.9938 91.1173 66.0438 91.4437L107.335 91.4432Z" stroke="#CCE1EA" stroke-opacity="0.2" stroke-width="1.836" stroke-miterlimit="10" stroke-linecap="round" stroke-linejoin="round"/>
<g clip-path="url(#clip1_689_3503)">
<path d="M93.8892 225.225H155.653V177.838H93.8892V225.225Z" fill="#D9D9D9"/>
<path d="M93.8892 189.859H155.653V177.838H93.8892V189.859Z" fill="#B2B2B2"/>
<path d="M123.12 225.232H126.878V177.838H123.12V225.232Z" fill="#AC1E23"/>
<path d="M93.789 201.348H155.678V197.596H93.789V201.348Z" fill="#AC1E23"/>
<path d="M125.117 178.016L107.122 165.051L102.088 172.338L125.117 178.016Z" fill="#AC1E23"/>
<path d="M143.413 168.281L125.117 178.015L147.667 174.783L143.413 168.281Z" fill="#AC1E23"/>
<path d="M125.117 178.017L134.441 167.881H127.824L125.117 178.017Z" fill="#AC1E23"/>
<path d="M132.436 242.122L98.9949 228.425L100.685 224.283L134.126 237.973L132.436 242.122Z" fill="#AC1E23"/>
<path d="M98.8159 228.404H144.218V224.25H98.8159V228.404Z" fill="#AC1E23"/>
<path d="M186.886 284.106H235.316V273.779H186.886V284.106Z" fill="#231F20"/>
<path d="M118.966 255.97H105.604C103.019 255.97 100.892 253.853 100.892 251.254V250.186C100.892 247.588 103.019 245.465 105.604 245.465H118.966C121.559 245.465 123.685 247.588 123.685 250.186V251.254C123.685 253.853 121.559 255.97 118.966 255.97Z" fill="#CB2449"/>
<path d="M118.866 244.664H110.531L106.191 256.772H118.866C122.196 256.772 124.931 254.048 124.931 250.718C124.931 247.388 122.196 244.664 118.866 244.664Z" fill="#AC1E23"/>
<path d="M116.517 263.71H104.795C103.041 263.71 101.602 262.273 101.602 260.518V259.793C101.602 258.039 103.041 256.602 104.795 256.602H116.517C118.272 256.602 119.704 258.039 119.704 259.793V260.518C119.704 262.273 118.272 263.71 116.517 263.71Z" fill="#FBAD50"/>
<path d="M115.88 256.061H109.263L105.812 264.25H115.88C118.529 264.25 120.692 262.411 120.692 260.155C120.692 257.9 118.529 256.061 115.88 256.061Z" fill="#AC1E23"/>
<path d="M255.544 206.617L255.222 205.786C253.489 201.262 248.362 198.98 243.836 200.721L242.991 201.045L249.436 218.408L250.474 218.005C255.007 216.271 257.277 211.147 255.544 206.617Z" fill="#155F84"/>
<path d="M139.704 238.162C139.704 238.162 116.56 241.723 112.285 251.16C108.017 260.603 114.247 270.04 114.247 270.04C114.247 270.04 184.931 288.735 190.811 286.777C196.682 284.818 189.206 274.313 192.057 268.794C194.899 263.274 199.353 259.713 200.957 253.475C202.561 247.243 199.539 235.809 199.539 235.809L139.883 237.451L139.704 238.162Z" fill="#AC1E23"/>
<path d="M169.378 294.162C169.378 308.373 157.864 319.894 143.657 319.894C129.45 319.894 117.928 308.373 117.928 294.162C117.928 279.951 129.45 268.438 143.657 268.438C157.864 268.438 169.378 279.951 169.378 294.162Z" fill="#231F20"/>
<path d="M157.792 294.163C157.792 301.971 151.455 308.295 143.657 308.295C135.852 308.295 129.529 301.971 129.529 294.163C129.529 286.362 135.852 280.031 143.657 280.031C151.455 280.031 157.792 286.362 157.792 294.163Z" fill="#95979A"/>
<path d="M149.708 294.163C149.708 297.507 147.001 300.223 143.657 300.223C140.305 300.223 137.599 297.507 137.599 294.163C137.599 290.82 140.305 288.109 143.657 288.109C147.001 288.109 149.708 290.82 149.708 294.163Z" fill="#664624"/>
<path d="M296.934 294.162C296.934 308.373 285.412 319.894 271.197 319.894C256.991 319.894 245.469 308.373 245.469 294.162C245.469 279.951 256.991 268.438 271.197 268.438C285.412 268.438 296.934 279.951 296.934 294.162Z" fill="#231F20"/>
<path d="M285.333 294.163C285.333 301.971 279.01 308.295 271.197 308.295C263.399 308.295 257.069 301.971 257.069 294.163C257.069 286.362 263.399 280.031 271.197 280.031C279.01 280.031 285.333 286.362 285.333 294.163Z" fill="#95979A"/>
<path d="M277.263 294.163C277.263 297.507 274.542 300.223 271.197 300.223C267.854 300.223 265.147 297.507 265.147 294.163C265.147 290.82 267.854 288.109 271.197 288.109C274.542 288.109 277.263 290.82 277.263 294.163Z" fill="#664624"/>
<path d="M175.135 288.2H241.726V281.969H175.135V288.2Z" fill="#AC1E23"/>
<path d="M182.819 291.651C182.833 291.268 182.855 290.886 182.855 290.503C182.855 268.834 165.289 251.273 143.621 251.273C121.96 251.273 104.394 268.834 104.394 290.503C104.394 290.886 104.416 291.268 104.43 291.651H182.819Z" fill="#CB2449"/>
<path d="M225.655 193.974L234.563 190.77C234.563 190.77 254.019 209.675 262.032 230.151C270.045 250.627 267.732 262.029 263.099 272.355C257.864 284.027 251.706 283.394 251.706 283.394L227.839 283.038C227.839 283.038 242.977 264.877 243.507 242.437C244.08 218.67 225.655 193.974 225.655 193.974Z" fill="#AC1E23"/>
<path d="M301.445 280.791C301.137 279.881 300.786 278.964 300.385 278.067C293.145 261.779 274.069 254.44 257.778 261.681C245.054 267.338 237.793 280.231 238.68 293.367L301.445 280.791Z" fill="#CB2449"/>
<path d="M227.66 178.674H220.334C217.262 178.674 214.742 176.155 214.742 173.075V171.809C214.742 168.729 217.262 166.211 220.334 166.211H227.66C230.746 166.211 233.26 168.729 233.26 171.809V173.075C233.26 176.155 230.746 178.674 227.66 178.674Z" fill="#231F20"/>
<path d="M233.482 194.958L230.911 193.731C230.918 193.705 232.486 190.23 231.67 184.209C230.854 178.142 227.724 174.08 227.689 174.034L229.93 172.273C230.08 172.465 233.568 176.955 234.499 183.827C235.429 190.757 233.561 194.793 233.482 194.958ZM128.132 224.138V227.541C128.132 234.313 131.591 239.853 135.809 239.853H197.384C201.602 239.853 205.053 234.313 205.053 227.541V224.138H128.132Z" fill="#231F20"/>
<path d="M188.813 150.206L189.894 145.26L177.463 138.455L176.367 142.352L188.813 150.206Z" fill="#155F84"/>
<path d="M182.275 165.486C194.169 168.183 187.746 154.197 187.796 145.347L190.187 127.417L185.411 125.465C185.411 125.465 182.533 130.18 178.773 132.877C177.742 137.065 176.603 141.595 176.181 142.742C176.417 145.09 170.381 162.783 182.275 165.486Z" fill="#664624"/>
<path d="M199.747 113.735C201.186 118.806 198.365 122.096 199.633 124.378C200.9 126.66 201.58 126.528 201.566 127.398C201.544 128.275 199.948 128.374 199.726 129.535C199.446 130.939 198.737 132.99 198.501 134.461C198.2 136.281 198.48 137.501 196.926 138.094C194.062 139.196 189.786 136.868 187.352 135.556C183.9 133.689 181.05 128.869 181.093 125.539C178.609 124.497 170.488 117.849 176.102 110.893C181.716 103.935 197.048 104.212 199.747 113.735Z" fill="#815932"/>
<path d="M199.747 113.735C198.831 112.976 191.19 111.552 189.436 115.515C187.975 118.819 188.784 120.494 184.53 121.833C182.418 118.568 179.654 122.242 181.466 123.751C181.859 124.088 181.48 125.176 181.48 125.176L182.311 129.917L178.816 132.885C178.816 132.885 171.154 129.192 171.748 119.795C172.35 110.227 177.391 105.03 183.378 105.076C194.076 105.155 198.666 109.561 199.747 113.735Z" fill="black"/>
<path d="M199.84 113.444C200.256 111.835 199.353 103.967 196.496 101.62C193.632 99.2654 186.979 97.6435 184.552 97.8876C182.124 98.1246 175.773 101.098 173.424 104.067C171.176 106.902 172.235 113.958 172.422 115.949C183.213 116.748 190.059 116.068 199.84 113.444Z" fill="#1E7DAC"/>
<path d="M187.71 115.865C187.71 115.865 193.453 116.926 203.406 117.54C210.889 117.995 212.558 112.937 212.558 112.937L199.869 110.49C199.869 110.49 199.246 111.466 195.981 113.108C192.701 114.75 187.71 115.865 187.71 115.865Z" fill="#18658C"/>
<path d="M198.329 123.612C198.179 124.298 197.499 124.734 196.811 124.582C196.138 124.43 195.701 123.758 195.852 123.072C195.995 122.386 196.675 121.951 197.363 122.102C198.05 122.254 198.48 122.933 198.329 123.612Z" fill="black"/>
<path d="M198.623 133.853C198.888 132.884 199.203 131.829 199.411 130.826L195.623 130.438C195.623 130.438 196.811 132.851 198.623 133.853Z" fill="white"/>
<path d="M184.502 123.709C183.95 125.642 182.533 126.921 181.344 126.578C180.155 126.235 179.647 124.395 180.213 122.463C180.771 120.537 182.182 119.251 183.37 119.594C184.559 119.938 185.06 121.784 184.502 123.709Z" fill="#815932"/>
<path d="M199.539 121.112L194.47 120.537L194.506 120.261C194.62 119.549 195.436 119.087 196.331 119.226L199.869 119.529L199.539 121.112Z" fill="black"/>
<path d="M184.982 98.0324L182.79 98.4743C182.411 98.5537 182.053 98.3096 181.974 97.94C181.895 97.5649 182.139 97.2017 182.511 97.1222L184.717 96.6811C185.082 96.6082 185.454 96.846 185.526 97.2219C185.605 97.5907 185.361 97.9601 184.982 98.0324Z" fill="#1E7DAC"/>
<path d="M175.071 118.673C174.885 120.077 173.582 121.053 172.178 120.862C170.782 120.664 169.801 119.372 169.987 117.967C170.188 116.563 171.476 115.586 172.887 115.778C174.291 115.976 175.264 117.268 175.071 118.673Z" fill="black"/>
<path d="M174.763 123.064C174.563 124.469 173.274 125.451 171.87 125.253C170.467 125.062 169.486 123.763 169.679 122.366C169.879 120.961 171.169 119.978 172.572 120.176C173.968 120.367 174.957 121.666 174.763 123.064Z" fill="black"/>
<path d="M176.389 127.009C176.202 128.407 174.899 129.389 173.503 129.198C172.099 129 171.118 127.708 171.312 126.303C171.505 124.899 172.801 123.923 174.205 124.114C175.608 124.305 176.589 125.604 176.389 127.009Z" fill="black"/>
<path d="M179.138 130.213C178.945 131.612 177.649 132.594 176.246 132.403C174.842 132.206 173.861 130.912 174.054 129.508C174.248 128.103 175.551 127.127 176.955 127.319C178.351 127.509 179.332 128.809 179.138 130.213Z" fill="black"/>
<path d="M182.604 131.42C182.404 132.818 181.115 133.801 179.711 133.603C178.301 133.412 177.327 132.119 177.52 130.714C177.721 129.31 179.01 128.328 180.413 128.525C181.817 128.717 182.798 130.015 182.604 131.42Z" fill="black"/>
<path d="M189.829 153.121L186.693 148.242L175.3 141.66C175.3 141.66 171.97 145.722 171.054 153.702C170.452 158.944 161.322 198.84 161.322 198.84L184.351 201.531C184.351 201.531 189.693 181.563 191.498 173.392C192.429 169.198 189.829 153.121 189.829 153.121Z" fill="#1E7DAC"/>
<path d="M186.643 149.529L187.739 144.576L175.3 137.777L174.205 141.675L186.643 149.529Z" fill="#155F84"/>
<path d="M189.829 153.121L187.674 144.865L186.844 148.65L189.829 153.121Z" fill="#0F5070"/>
<path d="M159.153 202.367C159.153 202.367 153.947 213.373 157.391 219.474C162.346 228.224 201.738 228.699 201.738 228.699L203.02 271.761L214.957 271.332L219.647 215.055L183.7 206.127L159.153 202.367Z" fill="#132E42"/>
<path d="M184.559 201.4L161.201 198.809C161.201 198.809 160.463 199.982 159.955 200.886C159.439 201.795 158.608 203.392 158.608 203.392L183.686 206.181L184.559 201.4Z" fill="#664624"/>
<path d="M169.987 204.658L168.261 204.467L168.798 199.652L170.524 199.844L169.987 204.658Z" fill="#132E42"/>
<path d="M217.191 197.733L220.549 193.895L197.37 181.584C197.37 181.584 183.857 149.153 182.196 148.928C182.196 148.928 178.05 148.216 176.224 151.843C174.398 155.47 190.653 188.303 190.653 188.303L217.191 197.733Z" fill="#815932"/>
<path d="M178.974 167.412C180.22 167.227 182.934 166.613 184.552 165.974C187.137 164.965 189.257 163.112 189.944 162.063L185.984 153.656C183.643 148.413 180.85 147.72 178.193 148.644C175.537 149.574 174.384 150.787 174.992 154.803C175.601 158.819 178.974 167.412 178.974 167.412Z" fill="#155F84"/>
<path d="M183.385 163.078C181.874 163.645 179.504 164.219 177.986 164.509C178.551 166.217 178.974 167.411 178.974 167.411C180.22 167.226 182.934 166.612 184.552 165.973C187.137 164.964 189.257 163.111 189.944 162.062L188.741 159.504C187.875 160.48 185.741 162.194 183.385 163.078Z" fill="white"/>
<path d="M181.809 206.003L180.291 205.831C180.943 206.438 181.602 207.156 182.146 207.968C184.237 211.048 183.463 212.901 183.299 213.402L172.758 204.974L171.154 204.789L184.058 215.525C184.058 215.525 184.337 215.149 184.538 214.747C184.731 214.351 185.719 211.449 183.141 207.651C182.726 207.051 182.275 206.504 181.809 206.003Z" fill="#0A4F6F"/>
<path d="M201.924 279.432V272.502H213.002C213.002 272.502 221.652 271.822 222.898 273.854C223.614 275.014 223.342 279.432 223.342 279.432H201.924Z" fill="#664624"/>
<path d="M201.895 279.398H223.406V277.637H201.895V279.398Z" fill="#9D764B"/>
<path d="M201.544 264.672H215.952L216.389 272.512H201.895L201.544 264.672Z" fill="#0A4F6F"/>
<path d="M217.134 197.733C217.134 197.733 220.585 201.069 222.425 198.854C224.882 195.893 226.865 193.757 228.548 195.734C232.386 200.252 232.701 198.333 232.701 198.333C232.701 198.333 231.799 192.325 226.679 191.765C223.02 191.363 219.074 194.092 219.074 194.092L217.134 197.733Z" fill="#815932"/>
<path d="M231.906 199.494C231.906 202.052 229.83 204.129 227.266 204.129C224.703 204.129 222.633 202.052 222.633 199.494C222.633 196.928 224.703 194.857 227.266 194.857C229.83 194.857 231.906 196.928 231.906 199.494Z" fill="#231F20"/>
</g>
</g>
<defs>
<clipPath id="clip0_689_3503">
<rect width="459" height="459" fill="white" transform="translate(-33)"/>
</clipPath>
<clipPath id="clip1_689_3503">
<rect width="244.577" height="244.577" fill="white" transform="translate(75.3285 85.9922)"/>
</clipPath>
</defs>
</svg>
