<svg width="28" height="28" viewBox="0 0 28 28" fill="none" xmlns="http://www.w3.org/2000/svg">
<rect width="28" height="28" rx="14" fill="#0A4751" fill-opacity="0.1"/>
<path d="M17.334 12.6665C18.4386 12.6665 19.334 11.7711 19.334 10.6665C19.334 9.56193 18.4386 8.6665 17.334 8.6665C16.2294 8.6665 15.334 9.56193 15.334 10.6665C15.334 11.7711 16.2294 12.6665 17.334 12.6665Z" stroke="black" stroke-width="1.2" stroke-linecap="round" stroke-linejoin="round"/>
<path d="M10.667 19.333C11.7716 19.333 12.667 18.4376 12.667 17.333C12.667 16.2284 11.7716 15.333 10.667 15.333C9.56242 15.333 8.66699 16.2284 8.66699 17.333C8.66699 18.4376 9.56242 19.333 10.667 19.333Z" stroke="black" stroke-width="1.2" stroke-linecap="round" stroke-linejoin="round"/>
<path d="M15.3337 15.3332H19.3337V18.6665C19.3337 18.8433 19.2634 19.0129 19.1384 19.1379C19.0134 19.2629 18.8438 19.3332 18.667 19.3332H16.0003C15.8235 19.3332 15.6539 19.2629 15.5289 19.1379C15.4039 19.0129 15.3337 18.8433 15.3337 18.6665V15.3332ZM8.66699 8.6665H12.667V11.9998C12.667 12.1766 12.5968 12.3462 12.4717 12.4712C12.3467 12.5963 12.1771 12.6665 12.0003 12.6665H9.33366C9.15685 12.6665 8.98728 12.5963 8.86225 12.4712C8.73723 12.3462 8.66699 12.1766 8.66699 11.9998V8.6665Z" stroke="black" stroke-width="1.2" stroke-linecap="round" stroke-linejoin="round"/>
</svg>
