<svg width="14" height="14" viewBox="0 0 14 14" fill="none" xmlns="http://www.w3.org/2000/svg">
<path d="M9.91634 12.8335H4.08301C3.84384 12.8335 3.64551 12.6352 3.64551 12.396C3.64551 12.1568 3.84384 11.9585 4.08301 11.9585H9.91634C10.1555 11.9585 10.3538 12.1568 10.3538 12.396C10.3538 12.6352 10.1555 12.8335 9.91634 12.8335Z" fill="#475569"/>
<path d="M11.8705 3.21994L9.53714 4.88828C9.22797 5.10994 8.78464 4.97578 8.65047 4.61994L7.54797 1.67994C7.36131 1.17244 6.64381 1.17244 6.45714 1.67994L5.34881 4.61411C5.21464 4.97578 4.77714 5.10994 4.46797 4.88244L2.13464 3.21411C1.66797 2.88744 1.04964 3.34827 1.24214 3.89077L3.66881 10.6866C3.75047 10.9199 3.97214 11.0716 4.21714 11.0716H9.77631C10.0213 11.0716 10.243 10.9141 10.3246 10.6866L12.7513 3.89077C12.9496 3.34827 12.3313 2.88744 11.8705 3.21994ZM8.45797 8.60411H5.54131C5.30214 8.60411 5.10381 8.40578 5.10381 8.16661C5.10381 7.92744 5.30214 7.72911 5.54131 7.72911H8.45797C8.69714 7.72911 8.89547 7.92744 8.89547 8.16661C8.89547 8.40578 8.69714 8.60411 8.45797 8.60411Z" fill="#475569"/>
</svg>
