<svg width="20" height="20" viewBox="0 0 20 20" fill="none" xmlns="http://www.w3.org/2000/svg">
<path d="M12.5 18.9577H7.50002C2.97502 18.9577 1.04169 17.0243 1.04169 12.4993V7.49935C1.04169 2.97435 2.97502 1.04102 7.50002 1.04102H11.6667C12.0084 1.04102 12.2917 1.32435 12.2917 1.66602C12.2917 2.00768 12.0084 2.29102 11.6667 2.29102H7.50002C3.65835 2.29102 2.29169 3.65768 2.29169 7.49935V12.4993C2.29169 16.341 3.65835 17.7077 7.50002 17.7077H12.5C16.3417 17.7077 17.7084 16.341 17.7084 12.4993V8.33268C17.7084 7.99102 17.9917 7.70768 18.3334 7.70768C18.675 7.70768 18.9584 7.99102 18.9584 8.33268V12.4993C18.9584 17.0243 17.025 18.9577 12.5 18.9577Z" fill="#034752"/>
<path d="M18.3334 8.95841H15C12.15 8.95841 11.0417 7.85007 11.0417 5.00007V1.66674C11.0417 1.41674 11.1917 1.18341 11.425 1.09174C11.6584 0.991739 11.925 1.05007 12.1084 1.22507L18.775 7.89174C18.95 8.06674 19.0084 8.34174 18.9084 8.57507C18.8084 8.8084 18.5834 8.95841 18.3334 8.95841ZM12.2917 3.17507V5.00007C12.2917 7.15007 12.85 7.70841 15 7.70841H16.825L12.2917 3.17507Z" fill="#034752"/>
<path d="M10.8333 11.459H5.83331C5.49165 11.459 5.20831 11.1757 5.20831 10.834C5.20831 10.4923 5.49165 10.209 5.83331 10.209H10.8333C11.175 10.209 11.4583 10.4923 11.4583 10.834C11.4583 11.1757 11.175 11.459 10.8333 11.459Z" fill="#034752"/>
<path d="M9.16665 14.791H5.83331C5.49165 14.791 5.20831 14.5077 5.20831 14.166C5.20831 13.8243 5.49165 13.541 5.83331 13.541H9.16665C9.50831 13.541 9.79165 13.8243 9.79165 14.166C9.79165 14.5077 9.50831 14.791 9.16665 14.791Z" fill="#034752"/>
</svg>
