<svg width="3" height="17" viewBox="0 0 3 17" fill="none" xmlns="http://www.w3.org/2000/svg">
<path d="M8.08342e-07 2.125C8.08342e-07 1.82833 0.0879744 1.53832 0.252797 1.29165C0.417619 1.04497 0.651887 0.852713 0.925976 0.739181C1.20007 0.62565 1.50166 0.595945 1.79264 0.653823C2.08361 0.711701 2.35088 0.854562 2.56066 1.06434C2.77044 1.27412 2.9133 1.54139 2.97118 1.83237C3.02906 2.12334 2.99935 2.42494 2.88582 2.69903C2.77229 2.97311 2.58003 3.20738 2.33336 3.37221C2.08668 3.53703 1.79667 3.625 1.5 3.625C1.10218 3.625 0.720645 3.46697 0.439341 3.18566C0.158036 2.90436 8.08342e-07 2.52283 8.08342e-07 2.125ZM1.5 7C1.20333 7 0.913319 7.08797 0.666646 7.2528C0.419972 7.41762 0.227713 7.65189 0.114181 7.92598C0.000649922 8.20007 -0.0290551 8.50166 0.0288228 8.79264C0.0867006 9.08361 0.229562 9.35088 0.439341 9.56066C0.64912 9.77044 0.916394 9.9133 1.20737 9.97118C1.49834 10.0291 1.79994 9.99935 2.07403 9.88582C2.34812 9.77229 2.58238 9.58003 2.74721 9.33336C2.91203 9.08668 3 8.79667 3 8.5C3 8.10218 2.84197 7.72065 2.56066 7.43934C2.27936 7.15804 1.89783 7 1.5 7ZM1.5 13.375C1.20333 13.375 0.913319 13.463 0.666646 13.6278C0.419972 13.7926 0.227713 14.0269 0.114181 14.301C0.000649922 14.5751 -0.0290551 14.8767 0.0288228 15.1676C0.0867006 15.4586 0.229562 15.7259 0.439341 15.9357C0.64912 16.1454 0.916394 16.2883 1.20737 16.3462C1.49834 16.4041 1.79994 16.3744 2.07403 16.2608C2.34812 16.1473 2.58238 15.955 2.74721 15.7084C2.91203 15.4617 3 15.1717 3 14.875C3 14.4772 2.84197 14.0956 2.56066 13.8143C2.27936 13.533 1.89783 13.375 1.5 13.375Z" fill="black"/>
</svg>
