<svg width="100" height="104" viewBox="0 0 100 104" fill="none" xmlns="http://www.w3.org/2000/svg">
<path d="M80.7345 87.3334H12.6665C12.2332 87.3334 11.8084 87.2127 11.4398 86.9849C11.0712 86.7571 10.7733 86.4311 10.5795 86.0436C10.3857 85.656 10.3037 85.2221 10.3426 84.7905C10.3815 84.3589 10.5398 83.9467 10.7998 83.6001L12.6665 81.1127V40.6667C12.6665 34.4601 14.1785 28.6081 16.8618 23.4607L0.500488 7.10407L7.10382 0.500732L99.4992 92.9007L92.8958 99.4994L80.7345 87.3334ZM23.9038 30.5027C22.642 33.7427 21.9963 37.1898 21.9998 40.6667V78.0001H71.4012L23.9038 30.5027ZM87.3332 67.6681L77.9998 58.3347V40.6667C78.0007 35.7558 76.71 30.9311 74.2572 26.6766C71.8043 22.4221 68.2757 18.8876 64.0253 16.4277C59.775 13.9678 54.9524 12.669 50.0415 12.6617C45.1306 12.6544 40.3042 13.9388 36.0465 16.3861L29.2798 9.61007C34.9019 5.85908 41.4368 3.70461 48.1874 3.3765C54.9379 3.04839 61.651 4.55893 67.6103 7.747C73.5697 10.9351 78.5519 15.6811 82.0253 21.4787C85.4988 27.2764 87.3333 33.9082 87.3332 40.6667V67.6681ZM38.3332 92.0001H61.6665C61.6665 95.0943 60.4373 98.0617 58.2494 100.25C56.0615 102.438 53.094 103.667 49.9998 103.667C46.9056 103.667 43.9382 102.438 41.7502 100.25C39.5623 98.0617 38.3332 95.0943 38.3332 92.0001Z" fill="#16171D"/>
</svg>
