<svg width="32" height="32" viewBox="0 0 32 32" fill="none" xmlns="http://www.w3.org/2000/svg">
<path d="M23.6533 30.3333H8.34665C5.02665 30.3333 2.33331 27.6399 2.33331 24.3199V15.3466C2.33331 12.0266 5.02665 9.33325 8.34665 9.33325H23.6533C26.9733 9.33325 29.6666 12.0266 29.6666 15.3466V17.2666C29.6666 17.8133 29.2133 18.2666 28.6666 18.2666H25.9733C25.5066 18.2666 25.08 18.4399 24.7733 18.7599L24.76 18.7733C24.3866 19.1333 24.2133 19.6266 24.2533 20.1332C24.3333 21.0132 25.1733 21.7199 26.1333 21.7199H28.6666C29.2133 21.7199 29.6666 22.1732 29.6666 22.7199V24.3066C29.6666 27.6399 26.9733 30.3333 23.6533 30.3333ZM8.34665 11.3333C6.13331 11.3333 4.33331 13.1333 4.33331 15.3466V24.3199C4.33331 26.5332 6.13331 28.3333 8.34665 28.3333H23.6533C25.8666 28.3333 27.6666 26.5332 27.6666 24.3199V23.7332H26.1333C24.12 23.7332 22.4133 22.2399 22.2533 20.3199C22.1466 19.2266 22.5466 18.1466 23.3466 17.3599C24.04 16.6533 24.9733 16.2666 25.9733 16.2666H27.6666V15.3466C27.6666 13.1333 25.8666 11.3333 23.6533 11.3333H8.34665Z" fill="black"/>
<path d="M3.33331 17.5468C2.78665 17.5468 2.33331 17.0934 2.33331 16.5468V10.4535C2.33331 8.46683 3.58665 6.66675 5.43998 5.96009L16.0266 1.96009C17.12 1.54676 18.3333 1.69349 19.28 2.36015C20.24 3.02682 20.8 4.10681 20.8 5.26681V10.3335C20.8 10.8801 20.3466 11.3335 19.8 11.3335C19.2533 11.3335 18.8 10.8801 18.8 10.3335V5.26681C18.8 4.76014 18.56 4.29346 18.1333 4.00013C17.7066 3.70679 17.2 3.64012 16.72 3.82679L6.13331 7.82679C5.05331 8.24012 4.31998 9.2935 4.31998 10.4535V16.5468C4.33331 17.1068 3.87998 17.5468 3.33331 17.5468Z" fill="black"/>
<path d="M26.1333 23.7332C24.12 23.7332 22.4133 22.2399 22.2533 20.3199C22.1466 19.2132 22.5466 18.1333 23.3466 17.3466C24.0266 16.6533 24.96 16.2666 25.96 16.2666H28.7333C30.0533 16.3066 31.0666 17.3465 31.0666 18.6265V21.3733C31.0666 22.6533 30.0533 23.6932 28.7733 23.7332H26.1333ZM28.7066 18.2666H25.9733C25.5066 18.2666 25.08 18.4399 24.7733 18.7599C24.3866 19.1333 24.2 19.6399 24.2533 20.1466C24.3333 21.0266 25.1733 21.7332 26.1333 21.7332H28.7466C28.92 21.7332 29.08 21.5733 29.08 21.3733V18.6265C29.08 18.4265 28.92 18.2799 28.7066 18.2666Z" fill="black"/>
<path d="M18.6666 17H9.33331C8.78665 17 8.33331 16.5467 8.33331 16C8.33331 15.4533 8.78665 15 9.33331 15H18.6666C19.2133 15 19.6666 15.4533 19.6666 16C19.6666 16.5467 19.2133 17 18.6666 17Z" fill="black"/>
</svg>
