<svg width="99" height="103" viewBox="0 0 99 103" fill="none" xmlns="http://www.w3.org/2000/svg">
<path d="M74.333 28.6666V19.3333H83.6664V69.7333L92.9997 79.0666V19.3333C92.9997 16.8579 92.0163 14.4839 90.266 12.7336C88.5157 10.9833 86.1417 9.99993 83.6664 9.99993H64.1597C61.4997 2.71993 53.473 -1.0134 46.333 1.59993C42.3197 2.99993 39.333 6.07993 37.8397 9.99993H23.933L42.5997 28.6666H74.333ZM50.9997 9.99993C53.5664 9.99993 55.6664 12.0999 55.6664 14.6666C55.6664 17.2333 53.5664 19.3333 50.9997 19.3333C48.433 19.3333 46.333 17.2333 46.333 14.6666C46.333 12.0999 48.433 9.99993 50.9997 9.99993ZM61.2664 47.3333L51.933 37.9999H74.333V47.3333H61.2664ZM6.15302 4.07326L0.179688 9.99993L8.99969 18.8666V84.6666C8.99969 87.142 9.98302 89.5159 11.7334 91.2663C13.4837 93.0166 15.8577 93.9999 18.333 93.9999H84.133L92.253 102.073L98.1797 96.1466L6.15302 4.07326ZM18.333 84.6666V28.1533L28.1797 37.9999H27.6664V47.3333H37.513L46.8464 56.6666H27.6664V65.9999H56.1797L74.8464 84.6666H18.333Z" fill="black"/>
</svg>
