<svg width="94" height="94" viewBox="0 0 94 94" fill="none" xmlns="http://www.w3.org/2000/svg">
<path d="M6.30732 1.35977C5.64383 0.741532 4.76628 0.404957 3.85955 0.420955C2.95281 0.436954 2.08768 0.804276 1.44642 1.44554C0.805156 2.0868 0.437833 2.95193 0.421835 3.85867C0.405836 4.76541 0.742411 5.64296 1.36065 6.30644L9.47132 14.4264C6.94489 14.7571 4.62491 15.9952 2.94378 17.9098C1.26265 19.8245 0.335085 22.2851 0.333984 24.8331V59.8331C0.333984 62.6179 1.44023 65.2886 3.40936 67.2577C5.37849 69.2269 8.04921 70.3331 10.834 70.3331H65.3873L72.3593 77.3098C72.0733 77.3247 71.787 77.3325 71.5006 77.3331H11.5387C12.7674 79.4623 14.5353 81.2303 16.6645 82.4592C18.7937 83.688 21.209 84.3343 23.6673 84.3331H71.5006C73.8806 84.3331 76.1673 83.9598 78.314 83.2645L87.694 92.6444C88.017 92.9786 88.4033 93.245 88.8304 93.4283C89.2575 93.6115 89.7168 93.7078 90.1816 93.7116C90.6463 93.7155 91.1071 93.6267 91.5372 93.4505C91.9672 93.2743 92.3579 93.0142 92.6864 92.6855C93.0148 92.3567 93.2745 91.9658 93.4503 91.5356C93.6261 91.1053 93.7144 90.6444 93.7102 90.1797C93.7059 89.715 93.6092 89.2558 93.4255 88.8288C93.2419 88.4019 92.9751 88.0158 92.6406 87.6931L6.30732 1.35977ZM58.3873 63.3331H21.334V59.8331C21.334 57.0483 20.2277 54.3776 18.2586 52.4085C16.2895 50.4394 13.6188 49.3331 10.834 49.3331H7.33398V35.3331H10.834C13.3828 35.3331 15.8445 34.4061 17.7602 32.7249C19.6758 31.0436 20.9145 28.723 21.2453 26.1958L28.88 33.8304C26.8149 36.5252 25.7994 39.8785 26.0225 43.2662C26.2456 46.6539 27.6921 49.8451 30.0927 52.2457C32.4934 54.6464 35.6846 56.0929 39.0722 56.316C42.4599 56.539 45.8133 55.5235 48.508 53.4584L58.3873 63.3331ZM33.92 38.8658L43.468 48.4138C42.135 49.1737 40.5892 49.4745 39.0686 49.2701C37.5479 49.0657 36.1365 48.3672 35.0515 47.2823C33.9665 46.1973 33.2681 44.7859 33.0637 43.2652C32.8592 41.7445 33.1601 40.1988 33.92 38.8658ZM7.33398 24.8331C7.33398 23.9049 7.70273 23.0146 8.35911 22.3582C9.01549 21.7019 9.90573 21.3331 10.834 21.3331H14.334V24.8331C14.334 25.7614 13.9652 26.6516 13.3089 27.308C12.6525 27.9644 11.7622 28.3331 10.834 28.3331H7.33398V24.8331ZM10.834 63.3331C9.90573 63.3331 9.01549 62.9644 8.35911 62.308C7.70273 61.6516 7.33398 60.7614 7.33398 59.8331V56.3331H10.834C11.7622 56.3331 12.6525 56.7019 13.3089 57.3582C13.9652 58.0146 14.334 58.9049 14.334 59.8331V63.3331H10.834ZM69.1673 49.3331C67.7441 49.3315 66.3356 49.6205 65.028 50.1824L71.174 56.3331H72.6627V57.8264L78.8133 63.9724C79.3753 62.6649 79.6643 61.2563 79.6627 59.8331V24.8331C79.6627 22.0491 78.557 19.3791 76.5889 17.4101C74.6208 15.4411 71.9513 14.3343 69.1673 14.3331H29.174L36.174 21.3331H58.6673V24.8331C58.6673 26.212 58.9389 27.5774 59.4666 28.8513C59.9943 30.1252 60.7677 31.2827 61.7427 32.2577C63.7118 34.2269 66.3825 35.3331 69.1673 35.3331H72.6673V49.3331H69.1673ZM72.6673 24.8331V28.3331H69.1673C68.2391 28.3331 67.3488 27.9644 66.6924 27.308C66.0361 26.6516 65.6673 25.7614 65.6673 24.8331V21.3331H69.1673C70.0956 21.3331 70.9858 21.7019 71.6422 22.3582C72.2986 23.0146 72.6673 23.9049 72.6673 24.8331ZM84.6233 69.7778L89.6866 74.8411C92.1973 71.2478 93.6673 66.8798 93.6673 62.1664V37.6664C93.6681 35.2082 93.0215 32.7931 91.7927 30.664C90.5639 28.5349 88.7962 26.7669 86.6673 25.5378V62.1664C86.6708 64.8396 85.9655 67.466 84.6233 69.7778Z" fill="#111010" fill-opacity="0.2"/>
</svg>
