<svg width="98" height="98" viewBox="0 0 98 98" fill="none" xmlns="http://www.w3.org/2000/svg">
<path d="M51 84.333C54.9667 84.333 58.7778 83.7295 62.4333 82.5223C66.0889 81.3152 69.5111 79.5855 72.7 77.333C69.5111 75.0775 66.0889 73.3461 62.4333 72.139C58.7778 70.9319 54.9667 70.3299 51 70.333C47.0333 70.333 43.2222 70.9366 39.5667 72.1437C35.9111 73.3508 32.4889 75.0806 29.3 77.333C32.4889 79.5886 35.9111 81.3199 39.5667 82.527C43.2222 83.7341 47.0333 84.3361 51 84.333ZM63.3667 46.0663L56.7167 39.4163C57.1055 38.7941 57.4167 38.133 57.65 37.433C57.8833 36.733 58 36.033 58 35.333C58 33.3886 57.3187 31.735 55.956 30.3723C54.5933 29.0097 52.9413 28.3299 51 28.333C50.3 28.333 49.6 28.4497 48.9 28.683C48.2 28.9163 47.5389 29.2275 46.9167 29.6163L40.2667 22.9663C41.7444 21.6441 43.398 20.6517 45.2273 19.989C47.0567 19.3263 48.9809 18.9966 51 18.9997C55.5111 18.9997 59.3611 20.5941 62.55 23.783C65.7389 26.9719 67.3333 30.8219 67.3333 35.333C67.3333 37.3552 67.002 39.281 66.3393 41.1103C65.6767 42.9397 64.6858 44.5917 63.3667 46.0663ZM89.9667 72.6663L83.2 65.8997C84.9111 63.0219 86.1944 59.9886 87.05 56.7997C87.9055 53.6108 88.3333 50.3441 88.3333 46.9997C88.3333 36.5775 84.7167 27.7497 77.4833 20.5163C70.25 13.283 61.4222 9.66634 51 9.66634C47.6555 9.66634 44.3889 10.0941 41.2 10.9497C38.0111 11.8052 34.9778 13.0886 32.1 14.7997L25.3333 8.03301C29.1444 5.54412 33.2278 3.63856 37.5833 2.31634C41.9389 0.994119 46.4111 0.333008 51 0.333008C57.4555 0.333008 63.5222 1.55879 69.2 4.01034C74.8778 6.4619 79.8167 9.78612 84.0167 13.983C88.2167 18.183 91.5424 23.1219 93.994 28.7997C96.4455 34.4775 97.6698 40.5441 97.6667 46.9997C97.6667 51.5886 97.0055 56.0608 95.6833 60.4163C94.3611 64.7719 92.4556 68.8552 89.9667 72.6663ZM51 93.6663C44.5444 93.6663 38.4778 92.4406 32.8 89.989C27.1222 87.5375 22.1833 84.2132 17.9833 80.0163C13.7833 75.8164 10.4591 70.8775 8.01065 65.1997C5.56221 59.5219 4.33643 53.4552 4.33332 46.9997C4.33332 42.4108 4.97576 37.9386 6.26065 33.583C7.54554 29.2275 9.43087 25.1052 11.9166 21.2163L1.41665 10.5997C0.483316 9.66634 0.0353161 8.55879 0.0726495 7.27701C0.109983 5.99523 0.596872 4.88612 1.53332 3.94968C2.46665 3.01634 3.57576 2.54967 4.86065 2.54967C6.14554 2.54967 7.25309 3.01634 8.18332 3.94968L93.9333 89.8163C94.8667 90.7497 95.3147 91.8588 95.2773 93.1437C95.24 94.4286 94.7531 95.5361 93.8167 96.4664C92.8833 97.3997 91.7944 97.8663 90.55 97.8663C89.3055 97.8663 88.2167 97.3997 87.2833 96.4664L18.8 28.0997C17.0889 30.9775 15.8055 34.0108 14.95 37.1997C14.0944 40.3886 13.6666 43.6552 13.6666 46.9997C13.6666 51.433 14.4055 55.6719 15.8833 59.7163C17.3611 63.7608 19.5 67.4552 22.3 70.7997C26.5 67.6108 31.0313 65.1795 35.894 63.5057C40.7566 61.8319 45.792 60.9966 51 60.9997C53.9555 60.9997 56.9111 61.3108 59.8667 61.933C62.8222 62.5552 65.7 63.4108 68.5 64.4997L84.0167 80.0163C79.5833 84.4497 74.5278 87.833 68.85 90.1663C63.1722 92.4997 57.2222 93.6663 51 93.6663Z" fill="#111010" fill-opacity="0.2"/>
</svg>
