<svg width="94" height="94" viewBox="0 0 94 94" fill="none" xmlns="http://www.w3.org/2000/svg">
<path d="M9.66927 47C9.66927 37.0986 13.6026 27.6027 20.604 20.6013C27.6053 13.6 37.1012 9.66665 47.0026 9.66665C56.904 9.66665 66.3999 13.6 73.4013 20.6013C80.4026 27.6027 84.3359 37.0986 84.3359 47C84.3359 56.9014 80.4026 66.3973 73.4013 73.3986C66.3999 80.4 56.904 84.3333 47.0026 84.3333C37.1012 84.3333 27.6053 80.4 20.604 73.3986C13.6026 66.3973 9.66927 56.9014 9.66927 47ZM47.0026 0.333313C21.2286 0.333313 0.335938 21.226 0.335938 47C0.335938 72.774 21.2286 93.6667 47.0026 93.6667C72.7766 93.6667 93.6693 72.774 93.6693 47C93.6693 21.226 72.7766 0.333313 47.0026 0.333313ZM36.5353 64.052C36.1345 64.5159 35.6462 64.8963 35.0984 65.1716C34.5506 65.4468 33.9539 65.6114 33.3425 65.656C32.731 65.7007 32.1168 65.6244 31.5348 65.4317C30.9528 65.2389 30.4145 64.9334 29.9506 64.5327C29.4867 64.1319 29.1063 63.6436 28.831 63.0958C28.5558 62.548 28.3912 61.9513 28.3465 61.3399C28.2564 60.105 28.6605 58.8849 29.4699 57.948C33.2499 53.5753 38.9899 50.5187 47.0026 50.5187C55.0106 50.5187 60.7553 53.5753 64.5353 57.948C64.9361 58.4119 65.2416 58.9502 65.4343 59.5322C65.6271 60.1142 65.7033 60.7284 65.6587 61.3399C65.614 61.9513 65.4494 62.548 65.1742 63.0958C64.899 63.6436 64.5185 64.1319 64.0546 64.5327C63.5907 64.9334 63.0524 65.2389 62.4704 65.4317C61.8884 65.6244 61.2742 65.7007 60.6627 65.656C60.0513 65.6114 59.4546 65.4468 58.9068 65.1716C58.359 64.8963 57.8707 64.5159 57.4699 64.052C55.5146 61.7887 52.3786 59.852 47.0026 59.852C41.6266 59.852 38.4906 61.7887 36.5353 64.052ZM28.3359 37.6666C28.3359 36.429 28.8276 35.242 29.7028 34.3668C30.5779 33.4916 31.7649 33 33.0026 33H33.0493C34.287 33 35.4739 33.4916 36.3491 34.3668C37.2243 35.242 37.7159 36.429 37.7159 37.6666C37.7159 38.9043 37.2243 40.0913 36.3491 40.9665C35.4739 41.8416 34.287 42.3333 33.0493 42.3333H33.0026C31.7649 42.3333 30.5779 41.8416 29.7028 40.9665C28.8276 40.0913 28.3359 38.9043 28.3359 37.6666ZM61.0026 33C59.7649 33 58.5779 33.4916 57.7028 34.3668C56.8276 35.242 56.3359 36.429 56.3359 37.6666C56.3359 38.9043 56.8276 40.0913 57.7028 40.9665C58.5779 41.8416 59.7649 42.3333 61.0026 42.3333H61.0493C62.287 42.3333 63.4739 41.8416 64.3491 40.9665C65.2243 40.0913 65.7159 38.9043 65.7159 37.6666C65.7159 36.429 65.2243 35.242 64.3491 34.3668C63.4739 33.4916 62.287 33 61.0493 33H61.0026Z" fill="#16171D"/>
</svg>
