<svg width="86" height="77" viewBox="0 0 86 77" fill="none" xmlns="http://www.w3.org/2000/svg">
<path d="M84.6502 63.003L51.1732 4.86523C50.3367 3.44088 49.1424 2.25988 47.7088 1.43929C46.2752 0.618701 44.652 0.187012 43.0002 0.187012C41.3484 0.187012 39.7252 0.618701 38.2916 1.43929C36.858 2.25988 35.6637 3.44088 34.8272 4.86523L1.3502 63.003C0.545283 64.3806 0.121094 65.9475 0.121094 67.5431C0.121094 69.1387 0.545283 70.7056 1.3502 72.0833C2.17604 73.5162 3.36827 74.7037 4.80455 75.5237C6.24083 76.3438 7.86943 76.7669 9.52325 76.7498H76.4771C78.1297 76.7656 79.7567 76.3418 81.1915 75.5218C82.6263 74.7018 83.8173 73.5151 84.6425 72.0833C85.4486 70.7063 85.8741 69.1397 85.8755 67.5442C85.8768 65.9486 85.454 64.3813 84.6502 63.003ZM79.3406 69.017C79.0487 69.5148 78.6298 69.9261 78.1266 70.2086C77.6234 70.4911 77.0541 70.6348 76.4771 70.6248H9.52325C8.94626 70.6348 8.377 70.4911 7.87382 70.2086C7.37064 69.9261 6.95165 69.5148 6.65981 69.017C6.39546 68.5694 6.25601 68.0591 6.25601 67.5393C6.25601 67.0195 6.39546 66.5092 6.65981 66.0616L40.1368 7.9239C40.4345 7.42844 40.8554 7.01846 41.3585 6.73383C41.8616 6.4492 42.4298 6.29961 43.0079 6.29961C43.5859 6.29961 44.1541 6.4492 44.6572 6.73383C45.1603 7.01846 45.5812 7.42844 45.879 7.9239L79.3559 66.0616C79.6179 66.5106 79.7547 67.0216 79.7521 67.5414C79.7494 68.0612 79.6073 68.5708 79.3406 69.017ZM39.9377 46.1248V30.8123C39.9377 30 40.2604 29.2211 40.8347 28.6467C41.409 28.0724 42.188 27.7498 43.0002 27.7498C43.8124 27.7498 44.5914 28.0724 45.1657 28.6467C45.74 29.2211 46.0627 30 46.0627 30.8123V46.1248C46.0627 46.937 45.74 47.716 45.1657 48.2903C44.5914 48.8646 43.8124 49.1873 43.0002 49.1873C42.188 49.1873 41.409 48.8646 40.8347 48.2903C40.2604 47.716 39.9377 46.937 39.9377 46.1248ZM47.5939 59.906C47.5939 60.8146 47.3245 61.7027 46.8198 62.4582C46.315 63.2136 45.5975 63.8024 44.7581 64.1501C43.9188 64.4978 42.9951 64.5887 42.104 64.4115C41.2129 64.2342 40.3944 63.7967 39.7519 63.1543C39.1095 62.5118 38.672 61.6933 38.4947 60.8022C38.3175 59.9111 38.4084 58.9875 38.7561 58.1481C39.1038 57.3087 39.6926 56.5912 40.4481 56.0865C41.2035 55.5817 42.0916 55.3123 43.0002 55.3123C44.2185 55.3123 45.387 55.7962 46.2485 56.6577C47.11 57.5192 47.5939 58.6877 47.5939 59.906Z" fill="#E30000"/>
</svg>
