<svg width="65" height="64" viewBox="0 0 65 64" fill="none" xmlns="http://www.w3.org/2000/svg">
<path d="M47.9933 11.92C47.78 11.92 47.5666 11.8667 47.38 11.76C42.26 9.11999 37.8333 7.99999 32.5266 7.99999C27.2466 7.99999 22.2333 9.25333 17.6733 11.76C17.0333 12.1067 16.2333 11.8667 15.86 11.2267C15.5133 10.5867 15.7533 9.75999 16.3933 9.41333C21.3533 6.71999 26.7933 5.33333 32.5266 5.33333C38.2066 5.33333 43.1666 6.58666 48.6066 9.38666C49.2733 9.73333 49.5133 10.5333 49.1666 11.1733C48.9266 11.6533 48.4733 11.92 47.9933 11.92ZM9.83331 25.92C9.56664 25.92 9.29998 25.84 9.05998 25.68C8.44664 25.2533 8.31331 24.4267 8.73998 23.8133C11.38 20.08 14.74 17.1467 18.74 15.0933C27.1133 10.7733 37.8333 10.7467 46.2333 15.0667C50.2333 17.12 53.5933 20.0267 56.2333 23.7333C56.66 24.32 56.5266 25.1733 55.9133 25.6C55.3 26.0267 54.4733 25.8933 54.0466 25.28C51.6466 21.92 48.6066 19.28 45.0066 17.44C37.3533 13.52 27.5666 13.52 19.94 17.4667C16.3133 19.3333 13.2733 22 10.8733 25.36C10.66 25.7333 10.26 25.92 9.83331 25.92ZM26.5 58.1067C26.1533 58.1067 25.8066 57.9733 25.5666 57.7067C23.2466 55.3867 21.9933 53.8933 20.2066 50.6667C18.3666 47.3867 17.4066 43.3867 17.4066 39.0933C17.4066 31.1733 24.18 24.72 32.5 24.72C40.82 24.72 47.5933 31.1733 47.5933 39.0933C47.5933 39.84 47.0066 40.4267 46.26 40.4267C45.5133 40.4267 44.9266 39.84 44.9266 39.0933C44.9266 32.64 39.3533 27.3867 32.5 27.3867C25.6466 27.3867 20.0733 32.64 20.0733 39.0933C20.0733 42.9333 20.9266 46.48 22.5533 49.36C24.26 52.4267 25.4333 53.7333 27.4866 55.8133C27.9933 56.3467 27.9933 57.1733 27.4866 57.7067C27.1933 57.9733 26.8466 58.1067 26.5 58.1067ZM45.62 53.1733C42.4466 53.1733 39.6466 52.3733 37.3533 50.8C33.38 48.1067 31.0066 43.7333 31.0066 39.0933C31.0066 38.3467 31.5933 37.76 32.34 37.76C33.0866 37.76 33.6733 38.3467 33.6733 39.0933C33.6733 42.8533 35.5933 46.4 38.8466 48.5867C40.74 49.8667 42.9533 50.48 45.62 50.48C46.26 50.48 47.3266 50.4 48.3933 50.2133C49.1133 50.08 49.8066 50.56 49.94 51.3067C50.0733 52.0267 49.5933 52.72 48.8466 52.8533C47.3266 53.1467 45.9933 53.1733 45.62 53.1733ZM40.26 58.6667C40.1533 58.6667 40.02 58.64 39.9133 58.6133C35.6733 57.44 32.9 55.8667 29.9933 53.0133C26.26 49.3067 24.2066 44.3733 24.2066 39.0933C24.2066 34.7733 27.8866 31.2533 32.42 31.2533C36.9533 31.2533 40.6333 34.7733 40.6333 39.0933C40.6333 41.9467 43.1133 44.2667 46.18 44.2667C49.2466 44.2667 51.7266 41.9467 51.7266 39.0933C51.7266 29.04 43.06 20.88 32.3933 20.88C24.82 20.88 17.8866 25.0933 14.7666 31.6267C13.7266 33.7867 13.1933 36.32 13.1933 39.0933C13.1933 41.1733 13.38 44.4533 14.98 48.72C15.2466 49.4133 14.9 50.1867 14.2066 50.4267C13.5133 50.6933 12.74 50.32 12.5 49.6533C11.1933 46.16 10.5533 42.6933 10.5533 39.0933C10.5533 35.8933 11.1666 32.9867 12.3666 30.4533C15.9133 23.0133 23.78 18.1867 32.3933 18.1867C44.5266 18.1867 54.3933 27.5467 54.3933 39.0667C54.3933 43.3867 50.7133 46.9067 46.18 46.9067C41.6466 46.9067 37.9666 43.3867 37.9666 39.0667C37.9666 36.2133 35.4866 33.8933 32.42 33.8933C29.3533 33.8933 26.8733 36.2133 26.8733 39.0667C26.8733 43.6267 28.6333 47.8933 31.86 51.0933C34.3933 53.6 36.82 54.9867 40.58 56.0267C41.3 56.2133 41.7 56.96 41.5133 57.6533C41.38 58.2667 40.82 58.6667 40.26 58.6667Z" fill="#1A73E8"/>
</svg>
