<svg width="16" height="16" viewBox="0 0 16 16" fill="none" xmlns="http://www.w3.org/2000/svg">
<path d="M9.93331 15.1668H6.06665C5.47332 15.1668 4.71331 14.8535 4.29998 14.4335L1.56665 11.7002C1.14665 11.2802 0.833313 10.5202 0.833313 9.93349V6.06683C0.833313 5.4735 1.14665 4.7135 1.56665 4.30017L4.29998 1.56683C4.71998 1.14683 5.47998 0.833496 6.06665 0.833496H9.93331C10.5266 0.833496 11.2866 1.14683 11.7 1.56683L14.4333 4.30017C14.8533 4.72017 15.1666 5.48017 15.1666 6.06683V9.93349C15.1666 10.5268 14.8533 11.2868 14.4333 11.7002L11.7 14.4335C11.28 14.8535 10.5266 15.1668 9.93331 15.1668ZM6.06665 1.8335C5.73998 1.8335 5.23331 2.04017 5.00664 2.2735L2.27332 5.00684C2.04665 5.24017 1.83331 5.74017 1.83331 6.06683V9.93349C1.83331 10.2602 2.03998 10.7668 2.27332 10.9935L5.00664 13.7268C5.23998 13.9535 5.73998 14.1668 6.06665 14.1668H9.93331C10.26 14.1668 10.7667 13.9602 10.9933 13.7268L13.7266 10.9935C13.9533 10.7602 14.1666 10.2602 14.1666 9.93349V6.06683C14.1666 5.74017 13.96 5.2335 13.7266 5.00684L10.9933 2.2735C10.76 2.04683 10.26 1.8335 9.93331 1.8335H6.06665Z" fill="#E30000"/>
<path d="M5.66661 10.8335C5.53994 10.8335 5.41327 10.7868 5.31327 10.6868C5.11994 10.4935 5.11994 10.1735 5.31327 9.98012L9.97994 5.31346C10.1733 5.12012 10.4933 5.12012 10.6866 5.31346C10.8799 5.50679 10.8799 5.82679 10.6866 6.02012L6.01994 10.6868C5.91994 10.7868 5.79327 10.8335 5.66661 10.8335Z" fill="#E30000"/>
<path d="M10.3333 10.8335C10.2066 10.8335 10.0799 10.7868 9.97994 10.6868L5.31327 6.02012C5.11994 5.82679 5.11994 5.50679 5.31327 5.31346C5.50661 5.12012 5.82661 5.12012 6.01994 5.31346L10.6866 9.98012C10.8799 10.1735 10.8799 10.4935 10.6866 10.6868C10.5866 10.7868 10.4599 10.8335 10.3333 10.8335Z" fill="#E30000"/>
</svg>
