<svg width="24" height="24" viewBox="0 0 24 24" fill="none" xmlns="http://www.w3.org/2000/svg">
<g clip-path="url(#clip0_3282_74229)">
<path d="M6 5.45166C9.312 5.45166 12 8.13966 12 11.4517V12.0002H0.548531C0.246844 12.0002 0 11.7533 0 11.4517C0 8.13966 2.688 5.45166 6 5.45166Z" fill="#FBBB05"/>
<path d="M18.5485 6C18.5485 9.312 15.8605 12 12.5485 12H12V0.548531C12 0.246844 12.2468 0 12.5485 0C15.8605 0 18.5485 2.688 18.5485 6Z" fill="#E94335"/>
<path d="M18 18.5485C14.688 18.5485 12 15.8605 12 12.5485V12H23.4515C23.7532 12 24 12.2468 24 12.5485C24 15.8605 21.312 18.5485 18 18.5485Z" fill="#4285F4"/>
<path d="M5.45117 18C5.45117 14.688 8.13917 12 11.4512 12H11.9997V23.4515C11.9997 23.7532 11.7529 24 11.4512 24C8.13917 24 5.45117 21.312 5.45117 18Z" fill="#0F9D58"/>
</g>
<defs>
<clipPath id="clip0_3282_74229">
<rect width="24" height="24" fill="white"/>
</clipPath>
</defs>
</svg>
