<svg width="17" height="16" viewBox="0 0 17 16" fill="none" xmlns="http://www.w3.org/2000/svg">
    <g clip-path="url(#clip0_9413_53486)">
        <path d="M14.0003 2.4C13.6003 2 13.0003 1.9 12.5003 2.1C12.5003 1.8 12.4003 1.5 12.1003 1.2C11.9003 1 11.5003 0.800001 11.0003 0.800001C10.7003 0.800001 10.5003 0.900001 10.3003 0.900001C10.3003 0.700001 10.2003 0.600001 10.1003 0.400001C9.60029 -0.199999 8.60029 -0.199999 8.10029 0.400001C7.90029 0.600001 7.70029 0.800001 7.70029 1C7.50029 1 7.30029 0.900001 7.10029 0.900001C6.60029 0.900001 6.30029 1.1 6.00029 1.4C5.50029 1.9 5.50029 2.7 5.50029 2.7V6.5C5.20029 6.2 4.70029 5.7 4.00029 5.7C3.80029 5.7 3.50029 5.8 3.30029 5.9C2.90029 6.1 2.70029 6.4 2.60029 6.8C2.30029 7.8 3.20029 9.2 3.20029 9.3C3.30029 9.4 4.40029 12 5.40029 13.1C6.40029 14.3 7.50029 15 10.3003 15C13.2003 15 14.5003 13.4 14.5003 9.9V4.4C14.5003 4.3 14.6003 3.1 14.0003 2.4ZM8.50029 2C8.50029 1.7 8.40029 1 9.00029 1C9.50029 1 9.50029 1.5 9.50029 2V6C9.50029 6.3 9.70029 6.5 10.0003 6.5C10.3003 6.5 10.5003 6.3 10.5003 6V2.2C10.5003 2.2 10.5003 1.8 11.0003 1.8C11.6003 1.8 11.5003 2.7 11.5003 2.7V6C11.5003 6.3 11.7003 6.5 12.0003 6.5C12.3003 6.5 12.5003 6.3 12.5003 6V3.6C12.5003 3.5 12.5003 3 13.0003 3C13.5003 3 13.5003 4 13.5003 4V9.9C13.5003 13.3 12.2003 14 10.3003 14C7.90029 14 7.00029 13.5 6.20029 12.4C5.30029 11.4 4.10029 8.8 4.10029 8.7C3.80029 8.4 3.40029 7.5 3.50029 7.1C3.50029 7 3.60029 6.9 3.70029 6.8C3.80029 6.8 3.90029 6.7 3.90029 6.7C4.30029 6.7 4.70029 7.2 4.80029 7.4L5.40029 8.3C5.50029 8.5 5.80029 8.6 6.00029 8.5C6.40029 8.5 6.50029 8.3 6.50029 8.1V2.9C6.50029 2.5 6.50029 1.9 7.00029 1.9C7.40029 1.9 7.50029 2.2 7.50029 2.7V6C7.50029 6.3 7.70029 6.5 8.00029 6.5C8.30029 6.5 8.50029 6.3 8.50029 6V2Z"
              fill="#E30000"/>
    </g>
    <defs>
        <clipPath id="clip0_9413_53486">
            <rect width="16" height="16" fill="white" transform="translate(0.5)"/>
        </clipPath>
    </defs>
</svg>
