<svg width="37" height="36" viewBox="0 0 37 36" fill="none" xmlns="http://www.w3.org/2000/svg">
<path d="M4.62491 27.9742C4.00991 27.9742 3.49991 27.4642 3.49991 26.8492V18.2992C3.42491 14.2342 4.93991 10.3942 7.75991 7.51422C10.5799 4.64922 14.3599 3.07422 18.4249 3.07422C26.7349 3.07422 33.4999 9.83922 33.4999 18.1492V26.6992C33.4999 27.3142 32.9899 27.8242 32.3749 27.8242C31.7599 27.8242 31.2499 27.3142 31.2499 26.6992V18.1492C31.2499 11.0842 25.5049 5.32422 18.4249 5.32422C14.9599 5.32422 11.7499 6.65922 9.36491 9.08922C6.96491 11.5342 5.68991 14.7892 5.74991 18.2692V26.8342C5.74991 27.4642 5.25491 27.9742 4.62491 27.9742Z" fill="#0A4751"/>
<path d="M9.41 18.6758H9.215C6.065 18.6758 3.5 21.2408 3.5 24.3908V27.2108C3.5 30.3608 6.065 32.9258 9.215 32.9258H9.41C12.56 32.9258 15.125 30.3608 15.125 27.2108V24.3908C15.125 21.2408 12.56 18.6758 9.41 18.6758Z" fill="#0A4751"/>
<path d="M27.785 18.6758H27.59C24.44 18.6758 21.875 21.2408 21.875 24.3908V27.2108C21.875 30.3608 24.44 32.9258 27.59 32.9258H27.785C30.935 32.9258 33.5 30.3608 33.5 27.2108V24.3908C33.5 21.2408 30.935 18.6758 27.785 18.6758Z" fill="#0A4751"/>
</svg>
