<svg width="20" height="20" viewBox="0 0 20 20" fill="none" xmlns="http://www.w3.org/2000/svg">
<path d="M9.99984 18.0418C9.7415 18.0418 9.4915 18.0085 9.28317 17.9335C6.09984 16.8418 1.0415 12.9668 1.0415 7.24183C1.0415 4.32516 3.39984 1.9585 6.29984 1.9585C7.70817 1.9585 9.02484 2.5085 9.99984 3.49183C10.9748 2.5085 12.2915 1.9585 13.6998 1.9585C16.5998 1.9585 18.9582 4.3335 18.9582 7.24183C18.9582 12.9752 13.8998 16.8418 10.7165 17.9335C10.5082 18.0085 10.2582 18.0418 9.99984 18.0418ZM6.29984 3.2085C4.0915 3.2085 2.2915 5.01683 2.2915 7.24183C2.2915 12.9335 7.7665 16.1002 9.6915 16.7585C9.8415 16.8085 10.1665 16.8085 10.3165 16.7585C12.2332 16.1002 17.7165 12.9418 17.7165 7.24183C17.7165 5.01683 15.9165 3.2085 13.7082 3.2085C12.4415 3.2085 11.2665 3.80016 10.5082 4.82516C10.2748 5.14183 9.7415 5.14183 9.50817 4.82516C8.73317 3.79183 7.5665 3.2085 6.29984 3.2085Z" fill="#111010"/>
</svg>
