<svg width="16" height="16" viewBox="0 0 16 16" fill="none" xmlns="http://www.w3.org/2000/svg">
<path d="M5.99335 14.3336C4.88668 14.3336 3.77335 13.9136 2.92668 13.0669C1.24002 11.3736 1.24002 8.62691 2.92668 6.94024C3.12002 6.74691 3.44002 6.74691 3.63335 6.94024C3.82668 7.13357 3.82668 7.45357 3.63335 7.64691C2.33335 8.94691 2.33335 11.0602 3.63335 12.3602C4.93335 13.6602 7.04668 13.6602 8.34668 12.3602C8.97335 11.7336 9.32001 10.8936 9.32001 10.0002C9.32001 9.11357 8.97335 8.27357 8.34668 7.64024C8.15335 7.44691 8.15335 7.12691 8.34668 6.93357C8.54002 6.74024 8.86002 6.74024 9.05335 6.93357C9.87335 7.75357 10.32 8.84024 10.32 10.0002C10.32 11.1602 9.86668 12.2469 9.05335 13.0669C8.21335 13.9136 7.10668 14.3336 5.99335 14.3336Z" fill="#16171D"/>
<path d="M12.7133 9.43983C12.5867 9.43983 12.46 9.39316 12.36 9.29316C12.1667 9.09983 12.1667 8.77983 12.36 8.5865C13.7267 7.21983 13.7267 4.99983 12.36 3.63983C10.9933 2.27316 8.77332 2.27316 7.41332 3.63983C6.75332 4.29983 6.38666 5.17983 6.38666 6.11316C6.38666 7.0465 6.75332 7.9265 7.41332 8.5865C7.60666 8.77983 7.60666 9.09983 7.41332 9.29316C7.21999 9.4865 6.89999 9.4865 6.70666 9.29316C5.85999 8.4465 5.38666 7.31316 5.38666 6.11316C5.38666 4.91316 5.85332 3.77983 6.70666 2.93316C8.45999 1.17983 11.3133 1.17983 13.0733 2.93316C14.8267 4.6865 14.8267 7.5465 13.0733 9.29983C12.9733 9.39316 12.84 9.43983 12.7133 9.43983Z" fill="#16171D"/>
</svg>
