<svg width="20" height="20" viewBox="0 0 20 20" fill="none" xmlns="http://www.w3.org/2000/svg">
<path d="M15 8.95866C14.6583 8.95866 14.375 8.67533 14.375 8.33366V6.66699C14.375 4.04199 13.6333 2.29199 10 2.29199C6.36667 2.29199 5.625 4.04199 5.625 6.66699V8.33366C5.625 8.67533 5.34167 8.95866 5 8.95866C4.65833 8.95866 4.375 8.67533 4.375 8.33366V6.66699C4.375 4.25033 4.95833 1.04199 10 1.04199C15.0417 1.04199 15.625 4.25033 15.625 6.66699V8.33366C15.625 8.67533 15.3417 8.95866 15 8.95866Z" fill="#0A4751"/>
<path d="M14.1667 18.958H5.83335C2.15835 18.958 1.04169 17.8413 1.04169 14.1663V12.4997C1.04169 8.82467 2.15835 7.70801 5.83335 7.70801H14.1667C17.8417 7.70801 18.9584 8.82467 18.9584 12.4997V14.1663C18.9584 17.8413 17.8417 18.958 14.1667 18.958ZM5.83335 8.95801C2.85002 8.95801 2.29169 9.52467 2.29169 12.4997V14.1663C2.29169 17.1413 2.85002 17.708 5.83335 17.708H14.1667C17.15 17.708 17.7084 17.1413 17.7084 14.1663V12.4997C17.7084 9.52467 17.15 8.95801 14.1667 8.95801H5.83335Z" fill="#0A4751"/>
<path d="M6.66665 14.1667C6.55831 14.1667 6.44998 14.1417 6.34998 14.1001C6.24164 14.0584 6.15832 14 6.07499 13.925C5.92499 13.7667 5.83331 13.5584 5.83331 13.3334C5.83331 13.2251 5.8583 13.1167 5.89997 13.0167C5.94164 12.9084 5.99999 12.8251 6.07499 12.7417C6.15832 12.6667 6.24164 12.6084 6.34998 12.5667C6.64998 12.4334 7.02497 12.5084 7.25831 12.7417C7.33331 12.8251 7.39166 12.9167 7.43332 13.0167C7.47499 13.1167 7.49998 13.2251 7.49998 13.3334C7.49998 13.5501 7.40831 13.7667 7.25831 13.925C7.09997 14.075 6.88331 14.1667 6.66665 14.1667Z" fill="#0A4751"/>
<path d="M10 14.1664C9.78335 14.1664 9.56669 14.0748 9.40836 13.9248C9.25836 13.7664 9.16669 13.5581 9.16669 13.3331C9.16669 13.2248 9.18334 13.1164 9.23334 13.0164C9.27501 12.9164 9.33336 12.8248 9.40836 12.7414C9.60003 12.5498 9.89169 12.4581 10.1584 12.5164C10.2167 12.5248 10.2667 12.5414 10.3167 12.5664C10.3667 12.5831 10.4167 12.6081 10.4667 12.6414C10.5084 12.6664 10.55 12.7081 10.5917 12.7414C10.6667 12.8248 10.725 12.9164 10.7667 13.0164C10.8084 13.1164 10.8334 13.2248 10.8334 13.3331C10.8334 13.5581 10.7417 13.7664 10.5917 13.9248C10.55 13.9581 10.5084 13.9914 10.4667 14.0248C10.4167 14.0581 10.3667 14.0831 10.3167 14.0998C10.2667 14.1248 10.2167 14.1414 10.1584 14.1498C10.1084 14.1581 10.05 14.1664 10 14.1664Z" fill="#0A4751"/>
<path d="M13.3333 14.1664C13.1083 14.1664 12.9 14.0748 12.7417 13.9248C12.6667 13.8414 12.6083 13.7498 12.5667 13.6498C12.525 13.5498 12.5 13.4414 12.5 13.3331C12.5 13.1164 12.5917 12.8998 12.7417 12.7414C12.7833 12.7081 12.825 12.6748 12.8667 12.6414C12.9167 12.6081 12.9667 12.5831 13.0167 12.5664C13.0667 12.5414 13.1167 12.5248 13.1667 12.5164C13.4417 12.4581 13.725 12.5498 13.925 12.7414C14.075 12.8998 14.1667 13.1081 14.1667 13.3331C14.1667 13.4414 14.1417 13.5498 14.1 13.6498C14.0583 13.7581 14 13.8414 13.925 13.9248C13.7667 14.0748 13.55 14.1664 13.3333 14.1664Z" fill="#0A4751"/>
</svg>
