<svg width="120" height="120" viewBox="0 0 120 120" fill="none" xmlns="http://www.w3.org/2000/svg">
<path d="M60 38.75C50.55 38.75 48.75 42.7 48.75 50V53.1H71.25V50C71.25 42.7 69.45 38.75 60 38.75Z" fill="#0A4751" fill-opacity="0.2"/>
<path d="M60 75.5C63.0376 75.5 65.5 73.0375 65.5 70C65.5 66.9624 63.0376 64.5 60 64.5C56.9624 64.5 54.5 66.9624 54.5 70C54.5 73.0375 56.9624 75.5 60 75.5Z" fill="#0A4751" fill-opacity="0.2"/>
<path d="M60 10C32.4 10 10 32.4 10 60C10 87.6 32.4 110 60 110C87.6 110 110 87.6 110 60C110 32.4 87.6 10 60 10ZM86.9 72.5C86.9 83.5 83.5 86.9 72.5 86.9H47.5C36.5 86.9 33.1 83.5 33.1 72.5V67.5C33.1 58.95 35.15 55 41.25 53.65V50C41.25 45.35 41.25 31.25 60 31.25C78.75 31.25 78.75 45.35 78.75 50V53.65C84.85 55 86.9 58.95 86.9 67.5V72.5Z" fill="#0A4751" fill-opacity="0.2"/>
</svg>
