<svg width="20" height="20" viewBox="0 0 20 20" fill="none" xmlns="http://www.w3.org/2000/svg">
    <path d="M4.99998 18.333C4.54165 18.333 4.14915 18.1697 3.82248 17.843C3.49581 17.5163 3.33276 17.1241 3.33331 16.6663V8.33301C3.33331 7.87468 3.49665 7.48217 3.82331 7.15551C4.14998 6.82884 4.5422 6.66579 4.99998 6.66634H5.83331V4.99968C5.83331 3.8469 6.2397 2.86412 7.05248 2.05134C7.86526 1.23856 8.84776 0.832453 9.99998 0.833008C11.1528 0.833008 12.1355 1.2394 12.9483 2.05218C13.7611 2.86495 14.1672 3.84745 14.1666 4.99968V6.66634H15C15.4583 6.66634 15.8508 6.82968 16.1775 7.15634C16.5041 7.48301 16.6672 7.87523 16.6666 8.33301V16.6663C16.6666 17.1247 16.5033 17.5172 16.1767 17.8438C15.85 18.1705 15.4578 18.3336 15 18.333H4.99998ZM4.99998 16.6663H15V8.33301H4.99998V16.6663ZM9.99998 14.1663C10.4583 14.1663 10.8508 14.003 11.1775 13.6763C11.5041 13.3497 11.6672 12.9575 11.6666 12.4997C11.6666 12.0413 11.5033 11.6488 11.1766 11.3222C10.85 10.9955 10.4578 10.8325 9.99998 10.833C9.54165 10.833 9.14915 10.9963 8.82248 11.323C8.49582 11.6497 8.33276 12.0419 8.33332 12.4997C8.33332 12.958 8.49665 13.3505 8.82332 13.6772C9.14998 14.0038 9.5422 14.1669 9.99998 14.1663ZM7.49998 6.66634H12.5V4.99968C12.5 4.30523 12.2569 3.71495 11.7708 3.22884C11.2847 2.74273 10.6944 2.49968 9.99998 2.49968C9.30554 2.49968 8.71526 2.74273 8.22915 3.22884C7.74304 3.71495 7.49998 4.30523 7.49998 4.99968V6.66634Z"
          fill="#0A4751"/>
</svg>
