<svg width="20" height="20" viewBox="0 0 20 20" fill="none" xmlns="http://www.w3.org/2000/svg">
<path d="M12.7 18.5581H12.5916C8.89164 18.5581 7.10831 17.0997 6.79997 13.8331C6.76664 13.4914 7.01664 13.1831 7.36664 13.1497C7.69997 13.1164 8.01664 13.3747 8.04997 13.7164C8.29164 16.3331 9.52497 17.3081 12.6 17.3081H12.7083C16.1 17.3081 17.3 16.1081 17.3 12.7164V7.28307C17.3 3.89141 16.1 2.69141 12.7083 2.69141H12.6C9.50831 2.69141 8.27497 3.68307 8.04997 6.34974C8.00831 6.69141 7.71664 6.94974 7.36664 6.91641C7.01664 6.89141 6.76664 6.58307 6.79164 6.24141C7.07497 2.92474 8.86664 1.44141 12.5916 1.44141H12.7C16.7916 1.44141 18.5416 3.19141 18.5416 7.28307V12.7164C18.5416 16.8081 16.7916 18.5581 12.7 18.5581Z" fill="#0A4751"/>
<path d="M12.5 10.625H3.01666C2.675 10.625 2.39166 10.3417 2.39166 10C2.39166 9.65833 2.675 9.375 3.01666 9.375H12.5C12.8417 9.375 13.125 9.65833 13.125 10C13.125 10.3417 12.8417 10.625 12.5 10.625Z" fill="#0A4751"/>
<path d="M4.87497 13.4172C4.71664 13.4172 4.55831 13.3589 4.43331 13.2339L1.64164 10.4422C1.39997 10.2005 1.39997 9.80052 1.64164 9.55885L4.43331 6.76719C4.67497 6.52552 5.07497 6.52552 5.31664 6.76719C5.55831 7.00885 5.55831 7.40885 5.31664 7.65052L2.96664 10.0005L5.31664 12.3505C5.55831 12.5922 5.55831 12.9922 5.31664 13.2339C5.19997 13.3589 5.0333 13.4172 4.87497 13.4172Z" fill="#0A4751"/>
</svg>
