<svg width="14" height="15" viewBox="0 0 14 15" fill="none" xmlns="http://www.w3.org/2000/svg">
<path d="M10.0866 2.91498L10.0458 5.12582C10.04 5.42915 10.2325 5.83165 10.4775 6.01248L11.9241 7.10915C12.8516 7.80915 12.7 8.66665 11.5916 9.01665L9.70747 9.60582C9.39248 9.70498 9.05998 10.0492 8.97831 10.37L8.52914 12.085C8.17331 13.4383 7.28664 13.5725 6.55164 12.3825L5.52498 10.72C5.33831 10.4167 4.89498 10.1892 4.54498 10.2067L2.59664 10.3058C1.20248 10.3758 0.805809 9.57082 1.71581 8.50915L2.87081 7.16748C3.08664 6.91665 3.18581 6.44998 3.08664 6.13498L2.49164 4.24498C2.14748 3.13665 2.76581 2.52415 3.86831 2.88582L5.58914 3.45165C5.88081 3.54498 6.31831 3.48082 6.56331 3.29998L8.35998 2.00498C9.33414 1.31082 10.11 1.71915 10.0866 2.91498Z" fill="#034752"/>
<path d="M12.5049 12.4409L10.7374 10.6734C10.5682 10.5042 10.2882 10.5042 10.1191 10.6734C9.9499 10.8426 9.9499 11.1226 10.1191 11.2917L11.8866 13.0592C11.9741 13.1467 12.0849 13.1876 12.1957 13.1876C12.3066 13.1876 12.4174 13.1467 12.5049 13.0592C12.6741 12.8901 12.6741 12.61 12.5049 12.4409Z" fill="#034752"/>
</svg>
