<svg width="26" height="20" viewBox="0 0 26 20" fill="none" xmlns="http://www.w3.org/2000/svg">
<g clip-path="url(#clip0_2278_66037)">
<path d="M4.7272 19.9007V18.577C4.7272 18.0695 4.415 17.7386 3.87986 17.7386C3.61235 17.7386 3.32249 17.8268 3.1218 18.1137C2.9658 17.871 2.74287 17.7386 2.40843 17.7386C2.18539 17.7386 1.96257 17.8047 1.78412 18.0475V17.7827H1.31592V19.9007H1.78412V18.7314C1.78412 18.3564 1.98481 18.1798 2.29701 18.1798C2.60901 18.1798 2.76521 18.3784 2.76521 18.7314V19.9007H3.23342V18.7314C3.23342 18.3564 3.45625 18.1798 3.74611 18.1798C4.05831 18.1798 4.21431 18.3784 4.21431 18.7314V19.9007H4.7272ZM11.661 17.7827H10.903V17.1429H10.4348V17.7827H10.0112V18.2018H10.4347V19.1727C10.4347 19.6581 10.6354 19.9448 11.1705 19.9448C11.3712 19.9448 11.594 19.8787 11.7502 19.7905L11.6164 19.3933C11.4826 19.4815 11.3266 19.5036 11.2151 19.5036C10.9922 19.5036 10.903 19.3713 10.903 19.1506V18.2018H11.661V17.7827ZM15.6296 17.7385C15.3621 17.7385 15.1838 17.871 15.0723 18.0475V17.7827H14.6041V19.9007H15.0723V18.7094C15.0723 18.3564 15.2283 18.1578 15.5181 18.1578C15.6073 18.1578 15.7188 18.1799 15.808 18.2019L15.9417 17.7607C15.8526 17.7386 15.7188 17.7386 15.6296 17.7386V17.7385ZM9.63216 17.9592C9.40913 17.8047 9.09703 17.7386 8.76258 17.7386C8.22755 17.7386 7.87086 18.0033 7.87086 18.4225C7.87086 18.7756 8.13838 18.9741 8.60658 19.0403L8.82951 19.0624C9.07478 19.1064 9.20854 19.1727 9.20854 19.283C9.20854 19.4374 9.0302 19.5478 8.718 19.5478C8.40589 19.5478 8.16062 19.4374 8.00452 19.3272L7.78159 19.6801C8.02686 19.8566 8.36131 19.9448 8.69565 19.9448C9.31996 19.9448 9.67675 19.6581 9.67675 19.2609C9.67675 18.8858 9.38689 18.6873 8.94093 18.6211L8.718 18.599C8.51731 18.5769 8.36131 18.5329 8.36131 18.4005C8.36131 18.246 8.51731 18.1578 8.76258 18.1578C9.0302 18.1578 9.29771 18.2681 9.43147 18.3343L9.63216 17.9592ZM22.0731 17.7386C21.8054 17.7386 21.6271 17.871 21.5156 18.0475V17.7827H21.0474V19.9007H21.5156V18.7094C21.5156 18.3564 21.6717 18.1578 21.9614 18.1578C22.0507 18.1578 22.1622 18.1799 22.2514 18.2019L22.3852 17.7607C22.296 17.7386 22.1622 17.7386 22.0731 17.7386ZM16.0978 18.8417C16.0978 19.4815 16.5437 19.9448 17.2349 19.9448C17.547 19.9448 17.77 19.8787 17.9929 19.7022L17.77 19.3272C17.5916 19.4595 17.4133 19.5256 17.2126 19.5256C16.8336 19.5256 16.566 19.2609 16.566 18.8417C16.566 18.4446 16.8336 18.1798 17.2126 18.1578C17.4133 18.1578 17.5916 18.2239 17.77 18.3564L17.9929 17.9813C17.77 17.8047 17.547 17.7386 17.2349 17.7386C16.5437 17.7386 16.0978 18.2019 16.0978 18.8417ZM20.4232 18.8417V17.7827H19.955V18.0475C19.7989 17.849 19.5759 17.7386 19.2861 17.7386C18.6841 17.7386 18.2159 18.2019 18.2159 18.8417C18.2159 19.4815 18.6841 19.9448 19.2861 19.9448C19.5982 19.9448 19.8212 19.8346 19.955 19.636V19.9007H20.4232V18.8417ZM18.7064 18.8417C18.7064 18.4666 18.9516 18.1578 19.3529 18.1578C19.7319 18.1578 19.9996 18.4446 19.9996 18.8417C19.9996 19.2168 19.7319 19.5256 19.3529 19.5256C18.9516 19.5035 18.7064 19.2168 18.7064 18.8417ZM13.1103 17.7386C12.486 17.7386 12.04 18.1798 12.04 18.8417C12.04 19.5036 12.4859 19.9448 13.1325 19.9448C13.4446 19.9448 13.7568 19.8566 14.0021 19.6581L13.7791 19.3272C13.6007 19.4595 13.3778 19.5478 13.1549 19.5478C12.865 19.5478 12.5751 19.4154 12.5082 19.0402H14.0913V18.8638C14.1136 18.1798 13.7123 17.7386 13.1103 17.7386ZM13.1103 18.1357C13.4 18.1357 13.6008 18.3123 13.6453 18.6432H12.5306C12.5751 18.3564 12.7758 18.1357 13.1103 18.1357ZM24.7262 18.8417V16.9443H24.258V18.0475C24.1019 17.849 23.8789 17.7386 23.5891 17.7386C22.9871 17.7386 22.5189 18.2019 22.5189 18.8417C22.5189 19.4815 22.9871 19.9448 23.5891 19.9448C23.9013 19.9448 24.1242 19.8346 24.258 19.636V19.9007H24.7262V18.8417ZM23.0095 18.8417C23.0095 18.4666 23.2546 18.1578 23.656 18.1578C24.035 18.1578 24.3026 18.4446 24.3026 18.8417C24.3026 19.2168 24.035 19.5256 23.656 19.5256C23.2546 19.5035 23.0095 19.2168 23.0095 18.8417ZM7.35797 18.8417V17.7827H6.88977V18.0475C6.73367 17.849 6.51074 17.7386 6.22088 17.7386C5.61892 17.7386 5.15071 18.2019 5.15071 18.8417C5.15071 19.4815 5.61892 19.9448 6.22088 19.9448C6.53308 19.9448 6.75601 19.8346 6.88977 19.636V19.9007H7.35797V18.8417ZM5.61892 18.8417C5.61892 18.4666 5.86419 18.1578 6.26546 18.1578C6.6445 18.1578 6.91211 18.4446 6.91211 18.8417C6.91211 19.2168 6.6445 19.5256 6.26546 19.5256C5.86419 19.5035 5.61892 19.2168 5.61892 18.8417Z" fill="black"/>
<path d="M9.4751 1.69824H16.4981V14.1858H9.4751V1.69824Z" fill="#FF5F00"/>
<path d="M9.92154 7.94261C9.92154 5.40543 11.1255 3.15497 12.9759 1.69879C11.616 0.639799 9.8993 0 8.02648 0C3.58952 0 0 3.55206 0 7.94261C0 12.3331 3.58952 15.8852 8.02638 15.8852C9.8992 15.8852 11.6159 15.2454 12.9759 14.1863C11.1255 12.7523 9.92154 10.4798 9.92154 7.94261Z" fill="#EB001B"/>
<path d="M25.9748 7.94261C25.9748 12.3331 22.3853 15.8852 17.9484 15.8852C16.0756 15.8852 14.3589 15.2454 12.9989 14.1863C14.8717 12.7303 16.0534 10.4798 16.0534 7.94261C16.0534 5.40543 14.8494 3.15497 12.9989 1.69879C14.3588 0.639799 16.0756 0 17.9484 0C22.3853 0 25.9748 3.57417 25.9748 7.94261Z" fill="#F79E1B"/>
</g>
<defs>
<clipPath id="clip0_2278_66037">
<rect width="26" height="20" fill="white"/>
</clipPath>
</defs>
</svg>
