<svg width="98" height="96" viewBox="0 0 98 96" fill="none" xmlns="http://www.w3.org/2000/svg">
<path d="M97.6666 78.2501L88.3333 68.9167V21.6667H69.4333L60.9166 12.3334H41.0833L36.6499 17.2334L29.9999 10.5834L34.1999 6.03338C35.0555 5.10005 36.0868 4.36116 37.2939 3.81672C38.501 3.27227 39.7626 3.00005 41.0786 3.00005H60.9119C62.2342 3.00005 63.4988 3.27227 64.7059 3.81672C65.9131 4.36116 66.9428 5.10005 67.7953 6.03338L73.6333 12.3334H88.3333C90.8999 12.3334 93.0979 13.248 94.9273 15.0774C96.7566 16.9067 97.6697 19.1032 97.6666 21.6667V78.2501ZM13.6666 87.0001C11.0999 87.0001 8.90193 86.0854 7.0726 84.2561C5.24327 82.4267 4.33016 80.2303 4.33327 77.6667V21.6667C4.33327 19.1 5.24794 16.9021 7.07727 15.0727C8.9066 13.2434 11.103 12.3303 13.6666 12.3334H18.4499L27.7833 21.6667H13.6666V77.6667H83.7833L93.1166 87.0001H13.6666ZM68.0333 61.9167C66.0888 64.5612 63.6575 66.6814 60.7393 68.2774C57.821 69.8734 54.5746 70.6698 50.9999 70.6667C45.1666 70.6667 40.2075 68.6243 36.1226 64.5394C32.0377 60.4545 29.9968 55.4969 29.9999 49.6667C29.9999 46.0889 30.7979 42.8425 32.3939 39.9274C33.9899 37.0123 36.107 34.5809 38.7453 32.6334L45.5119 39.4001C43.6453 40.4112 42.1473 41.8112 41.0179 43.6001C39.8886 45.3889 39.327 47.4112 39.3333 49.6667C39.3333 52.9334 40.4611 55.6945 42.7166 57.9501C44.9722 60.2056 47.7333 61.3334 50.9999 61.3334C53.2555 61.3334 55.2777 60.7687 57.0666 59.6394C58.8555 58.5101 60.2555 57.0136 61.2666 55.1501L68.0333 61.9167ZM65.9333 34.7334C67.8777 36.6001 69.3757 38.8167 70.4273 41.3834C71.4788 43.9501 72.0031 46.7112 71.9999 49.6667V51.0667C71.9999 51.5334 71.9611 52.0001 71.8833 52.4667L48.1999 28.7834C48.6666 28.7056 49.1333 28.6667 49.5999 28.6667H50.9999C53.9555 28.6667 56.7166 29.1925 59.2833 30.2441C61.8499 31.2956 64.0666 32.7921 65.9333 34.7334ZM87.2833 94.3501L1.4166 8.60005C0.483268 7.66672 0.0166016 6.55761 0.0166016 5.27272C0.0166016 3.98783 0.483268 2.88027 1.4166 1.95005C2.34993 1.01672 3.45905 0.550049 4.74394 0.550049C6.02882 0.550049 7.13638 1.01672 8.0666 1.95005L93.9333 87.8167C94.8666 88.75 95.3333 89.8389 95.3333 91.0834C95.3333 92.3278 94.8666 93.4167 93.9333 94.3501C92.9999 95.2834 91.8924 95.7501 90.6106 95.7501C89.3288 95.7501 88.2197 95.2834 87.2833 94.3501Z" fill="#16171D"/>
</svg>
