<svg width="24" height="24" viewBox="0 0 24 24" fill="none" xmlns="http://www.w3.org/2000/svg">
<path fill-rule="evenodd" clip-rule="evenodd" d="M3 5.75C3 5.33579 3.33579 5 3.75 5H20.25C20.6642 5 21 5.33579 21 5.75C21 6.16421 20.6642 6.5 20.25 6.5H3.75C3.33579 6.5 3 6.16421 3 5.75ZM3 11.7913C3 11.3771 3.33579 11.0413 3.75 11.0413H20.25C20.6642 11.0413 21 11.3771 21 11.7913C21 12.2055 20.6642 12.5413 20.25 12.5413H3.75C3.33579 12.5413 3 12.2055 3 11.7913ZM3.75 17.0331C3.33579 17.0331 3 17.3689 3 17.7831C3 18.1973 3.33579 18.5331 3.75 18.5331H20.25C20.6642 18.5331 21 18.1973 21 17.7831C21 17.3689 20.6642 17.0331 20.25 17.0331H3.75Z" fill="#323232"/>
</svg>
