<svg width="40" height="40" viewBox="0 0 40 40" fill="none" xmlns="http://www.w3.org/2000/svg">
<rect width="40" height="40" rx="20" fill="#ECE1D9"/>
<path d="M20 12C24.4183 12 28 15.5817 28 20C28 24.4183 24.4183 28 20 28C18.7268 28 17.4959 27.7018 16.3867 27.1393L16.266 27.075L12.6211 27.9851C12.3113 28.0625 12.0262 27.8369 12.0013 27.5438L12.0011 27.4624L12.0149 27.3787L12.925 23.735L12.8617 23.6153C12.4066 22.7186 12.1243 21.7422 12.0327 20.7283L12.0074 20.3463L12 20C12 15.5817 15.5817 12 20 12ZM20.5 21H17.5L17.4101 21.0081C17.1769 21.0504 17 21.2545 17 21.5C17 21.7455 17.1769 21.9496 17.4101 21.9919L17.5 22H20.5L20.5899 21.9919C20.8231 21.9496 21 21.7455 21 21.5C21 21.2545 20.8231 21.0504 20.5899 21.0081L20.5 21ZM22.5 18H17.5L17.4101 18.0081C17.1769 18.0504 17 18.2545 17 18.5C17 18.7455 17.1769 18.9496 17.4101 18.9919L17.5 19H22.5L22.5899 18.9919C22.8231 18.9496 23 18.7455 23 18.5C23 18.2545 22.8231 18.0504 22.5899 18.0081L22.5 18Z" fill="#AA725C"/>
</svg>
