<svg width="20" height="20" viewBox="0 0 20 20" fill="none" xmlns="http://www.w3.org/2000/svg">
<path d="M14.8917 18.2253C14.6334 18.2253 14.3751 18.1586 14.1417 18.0169L10.8001 16.0336C10.4501 16.0253 10.1001 16.0003 9.76673 15.9503C9.54173 15.917 9.35006 15.7669 9.26673 15.5503C9.18339 15.3336 9.22506 15.1003 9.37506 14.9253C9.92506 14.2836 10.2084 13.5169 10.2084 12.7003C10.2084 10.6836 8.4334 9.04193 6.25006 9.04193C5.4334 9.04193 4.65006 9.26696 3.99172 9.7003C3.80839 9.81696 3.58339 9.83362 3.38339 9.74195C3.19173 9.65029 3.05007 9.46693 3.02507 9.25026C3.00007 9.01693 2.9834 8.78362 2.9834 8.54195C2.9834 4.40862 6.56673 1.05029 10.9667 1.05029C15.3667 1.05029 18.9501 4.40862 18.9501 8.54195C18.9501 10.8086 17.9001 12.8919 16.0501 14.3169L16.3334 16.5836C16.4001 17.1503 16.1501 17.6836 15.6751 17.992C15.4417 18.142 15.1667 18.2253 14.8917 18.2253ZM10.9584 14.7753C11.0751 14.7669 11.1917 14.8003 11.2917 14.867L14.7834 16.942C14.8751 17.0003 14.9501 16.9753 15.0001 16.942C15.0417 16.917 15.1084 16.8503 15.0917 16.7336L14.7667 14.1003C14.7417 13.8669 14.8417 13.642 15.0251 13.5086C16.7251 12.317 17.7001 10.5003 17.7001 8.52527C17.7001 5.0836 14.6834 2.28361 10.9667 2.28361C7.39173 2.28361 4.45839 4.88364 4.24173 8.15031C4.86673 7.90864 5.54173 7.7753 6.24173 7.7753C9.11673 7.7753 11.4501 9.97526 11.4501 12.6836C11.4584 13.4169 11.2834 14.1253 10.9584 14.7753Z" fill="#16171D" fill-opacity="0.9"/>
<path d="M3.81648 18.9587C3.59981 18.9587 3.39147 18.9004 3.19981 18.7754C2.82481 18.5337 2.62481 18.117 2.67481 17.6754L2.84148 16.392C1.71648 15.4753 1.0498 14.117 1.0498 12.692C1.0498 11.067 1.89981 9.55033 3.32481 8.642C4.18315 8.08366 5.1998 7.78369 6.25814 7.78369C9.13314 7.78369 11.4665 9.98365 11.4665 12.692C11.4665 13.792 11.0665 14.8753 10.3331 15.7337C9.39147 16.8753 7.98314 17.542 6.43314 17.592L4.39981 18.8003C4.21648 18.9087 4.01648 18.9587 3.81648 18.9587ZM6.24981 9.03369C5.43314 9.03369 4.6498 9.25867 3.99147 9.69201C2.9248 10.3753 2.29148 11.492 2.29148 12.692C2.29148 13.8503 2.85815 14.9087 3.85815 15.592C4.04981 15.7254 4.14981 15.9503 4.12481 16.1837L3.94147 17.6087L5.93314 16.4254C6.03314 16.367 6.14148 16.3336 6.24981 16.3336C7.47481 16.3336 8.63315 15.8087 9.36648 14.917C9.91648 14.267 10.2081 13.5003 10.2081 12.6836C10.2081 10.6753 8.43314 9.03369 6.24981 9.03369Z" fill="#16171D" fill-opacity="0.9"/>
</svg>
