<svg width="16" height="16" viewBox="0 0 16 16" fill="none" xmlns="http://www.w3.org/2000/svg">
    <path d="M8.00016 10.8333C6.2535 10.8333 4.8335 9.41325 4.8335 7.66659V3.99992C4.8335 2.25325 6.2535 0.833252 8.00016 0.833252C9.74683 0.833252 11.1668 2.25325 11.1668 3.99992V7.66659C11.1668 9.41325 9.74683 10.8333 8.00016 10.8333ZM8.00016 1.83325C6.80683 1.83325 5.8335 2.80659 5.8335 3.99992V7.66659C5.8335 8.85992 6.80683 9.83325 8.00016 9.83325C9.1935 9.83325 10.1668 8.85992 10.1668 7.66659V3.99992C10.1668 2.80659 9.1935 1.83325 8.00016 1.83325Z"
          fill="#0A4751"/>
    <path d="M7.9999 13.1667C4.91324 13.1667 2.3999 10.6534 2.3999 7.56668V6.43335C2.3999 6.16002 2.62657 5.93335 2.8999 5.93335C3.17324 5.93335 3.3999 6.16002 3.3999 6.43335V7.56668C3.3999 10.1 5.46657 12.1667 7.9999 12.1667C10.5332 12.1667 12.5999 10.1 12.5999 7.56668V6.43335C12.5999 6.16002 12.8266 5.93335 13.0999 5.93335C13.3732 5.93335 13.5999 6.16002 13.5999 6.43335V7.56668C13.5999 10.6534 11.0866 13.1667 7.9999 13.1667Z"
          fill="#0A4751"/>
    <path d="M8.92691 4.78655C8.87358 4.78655 8.81358 4.77988 8.75358 4.75988C8.26691 4.57988 7.73358 4.57988 7.24691 4.75988C6.98691 4.85322 6.70024 4.71988 6.60691 4.45988C6.51358 4.19988 6.64691 3.91322 6.90691 3.81988C7.61358 3.56655 8.39358 3.56655 9.10024 3.81988C9.36024 3.91322 9.49358 4.19988 9.40024 4.45988C9.32024 4.65988 9.12691 4.78655 8.92691 4.78655Z"
          fill="#0A4751"/>
    <path d="M8.53355 6.19988C8.48688 6.19988 8.44688 6.19322 8.40021 6.17988C8.13355 6.10655 7.86021 6.10655 7.59355 6.17988C7.32688 6.25322 7.05355 6.09322 6.98021 5.82655C6.90688 5.56655 7.06688 5.29322 7.33355 5.21988C7.76688 5.09988 8.23355 5.09988 8.66688 5.21988C8.93355 5.29322 9.09355 5.56655 9.02021 5.83322C8.96021 6.05322 8.75355 6.19988 8.53355 6.19988Z"
          fill="#0A4751"/>
    <path d="M8 15.1667C7.72667 15.1667 7.5 14.9401 7.5 14.6667V12.6667C7.5 12.3934 7.72667 12.1667 8 12.1667C8.27333 12.1667 8.5 12.3934 8.5 12.6667V14.6667C8.5 14.9401 8.27333 15.1667 8 15.1667Z"
          fill="#0A4751"/>
</svg>
