<svg width="26" height="26" viewBox="0 0 26 26" fill="none" xmlns="http://www.w3.org/2000/svg">
<path d="M25.0706 0.928711L14.8563 5.60871L25.0706 8.35728M12.0706 25.0716C18.5706 25.0716 23.2134 22.7687 23.2134 17.643C23.2134 12.0716 20.4277 8.35728 14.8563 5.57157L17.0477 2.73014C17.1423 2.54845 17.1892 2.34567 17.1838 2.14089C17.1784 1.93611 17.121 1.73607 17.017 1.5596C16.9129 1.38313 16.7657 1.23604 16.5892 1.13217C16.4126 1.02829 16.2125 0.97106 16.0077 0.965854H8.13345C7.91501 0.961702 7.69955 1.01691 7.51002 1.12559C7.3205 1.23427 7.16402 1.39234 7.05727 1.58296C6.95052 1.77359 6.89751 1.9896 6.90388 2.20798C6.91025 2.42637 6.97577 2.63892 7.09345 2.823L9.28488 5.57157C3.71345 8.39443 0.927734 12.1087 0.927734 17.6801C0.927734 22.7687 5.57059 25.0716 12.0706 25.0716Z" stroke="#F3BB36" stroke-width="2.28571" stroke-linecap="round" stroke-linejoin="round"/>
</svg>
