<svg width="26" height="26" viewBox="0 0 26 26" fill="none" xmlns="http://www.w3.org/2000/svg">
<g clip-path="url(#clip0_8014_52534)">
<path d="M19.0672 18.2002H21.6672V15.6002M19.0672 7.80016H21.6672V10.4002M6.93385 7.80016H4.33385V10.4002M4.33385 15.6002V18.2002H6.93385M13.0005 16.4668C12.0811 16.4668 11.1993 16.1016 10.5492 15.4515C9.89909 14.8013 9.53385 13.9196 9.53385 13.0002C9.53385 12.0807 9.89909 11.199 10.5492 10.5489C11.1993 9.89873 12.0811 9.5335 13.0005 9.5335C13.9199 9.5335 14.8017 9.89873 15.4518 10.5489C16.102 11.199 16.4672 12.0807 16.4672 13.0002C16.4672 13.9196 16.102 14.8013 15.4518 15.4515C14.8017 16.1016 13.9199 16.4668 13.0005 16.4668ZM2.60052 4.3335H23.4005C23.8602 4.3335 24.3011 4.51611 24.6262 4.84118C24.9512 5.16624 25.1339 5.60712 25.1339 6.06683V19.9335C25.1339 20.3932 24.9512 20.8341 24.6262 21.1591C24.3011 21.4842 23.8602 21.6668 23.4005 21.6668H2.60052C2.14081 21.6668 1.69993 21.4842 1.37487 21.1591C1.04981 20.8341 0.867188 20.3932 0.867188 19.9335V6.06683C0.867188 5.60712 1.04981 5.16624 1.37487 4.84118C1.69993 4.51611 2.14081 4.3335 2.60052 4.3335Z" stroke="#F3BB36" stroke-width="1.95"/>
</g>
<defs>
<clipPath id="clip0_8014_52534">
<rect width="26" height="26" fill="white"/>
</clipPath>
</defs>
</svg>
