<svg width="31" height="31" viewBox="0 0 31 31" fill="none" xmlns="http://www.w3.org/2000/svg">
<g clip-path="url(#clip0_5060_38690)">
<path d="M15.5 31C24.0604 31 31 24.0604 31 15.5C31 6.93959 24.0604 0 15.5 0C6.93959 0 0 6.93959 0 15.5C0 24.0604 6.93959 31 15.5 31Z" fill="#F3BB36"/>
<path d="M30.8612 17.5767L18.2662 4.98145L12.021 17.1351L8.61719 22.7454L16.8181 30.9435C24.0722 30.3327 29.9038 24.7266 30.8612 17.5767Z" fill="#F3BB36"/>
<path d="M7.15039 18.6936C7.15039 14.0819 10.8889 8.25586 15.5005 8.25586C20.1122 8.25586 23.8507 14.0819 23.8507 18.6936C23.8507 23.3053 20.1122 24.9562 15.5005 24.9562C10.8889 24.9562 7.15039 23.3053 7.15039 18.6936Z" fill="#324A5E"/>
<path d="M15.4996 8.25586C15.488 8.25586 15.4764 8.25647 15.4648 8.25659V24.9559C15.4765 24.9559 15.4879 24.9563 15.4996 24.9563C20.1113 24.9563 23.8497 23.3054 23.8497 18.6937C23.8497 14.0819 20.1113 8.25586 15.4996 8.25586Z" fill="#2B3B4E"/>
<path d="M18.2664 4.98145C18.2664 6.80003 17.0281 8.27435 15.5004 8.27435C13.9727 8.27435 12.7344 6.80003 12.7344 4.98145H18.2664Z" fill="#324A5E"/>
<path d="M15.4648 4.98145V8.27332C15.4764 8.2735 15.4879 8.27435 15.4996 8.27435C17.0273 8.27435 18.2656 6.80015 18.2656 4.98145H15.4648Z" fill="#2B3B4E"/>
<path d="M15.5007 20.1058C16.968 20.1058 18.1576 18.9163 18.1576 17.4489C18.1576 15.9815 16.968 14.792 15.5007 14.792C14.0333 14.792 12.8438 15.9815 12.8438 17.4489C12.8438 18.9163 14.0333 20.1058 15.5007 20.1058Z" fill="#FFD15D"/>
<path d="M15.4996 14.792C15.4879 14.792 15.4764 14.7927 15.4648 14.7928V20.1048C15.4764 20.1049 15.4879 20.1056 15.4996 20.1056C16.967 20.1056 18.1565 18.9161 18.1565 17.4487C18.1565 15.9813 16.967 14.792 15.4996 14.792Z" fill="#F9B54C"/>
<path d="M15.4999 20.7319C13.6896 20.7319 12.2168 19.2592 12.2168 17.4487C12.2168 15.6383 13.6896 14.1655 15.4999 14.1655C17.3102 14.1655 18.783 15.6383 18.783 17.4487C18.783 19.2591 17.3102 20.7319 15.4999 20.7319ZM15.4999 15.4181C14.3803 15.4181 13.4693 16.329 13.4693 17.4487C13.4693 18.5684 14.3803 19.4794 15.4999 19.4794C16.6195 19.4794 17.5305 18.5684 17.5305 17.4487C17.5305 16.329 16.6195 15.4181 15.4999 15.4181Z" fill="#F9B54C"/>
<path d="M15.4996 14.1655C15.4879 14.1655 15.4764 14.1663 15.4648 14.1664V15.4198C15.4765 15.4196 15.4879 15.418 15.4996 15.418C16.6192 15.418 17.5302 16.329 17.5302 17.4487C17.5302 18.5684 16.6192 19.4792 15.4996 19.4792C15.4879 19.4792 15.4765 19.4777 15.4648 19.4775V20.7309C15.4764 20.731 15.4879 20.7317 15.4996 20.7317C17.3099 20.7317 18.7827 19.259 18.7827 17.4486C18.7827 15.6381 17.3099 14.1655 15.4996 14.1655Z" fill="#F4A200"/>
<path d="M17.5872 7.3584H13.4121V8.61093H17.5872V7.3584Z" fill="#F9B54C"/>
<path d="M17.5871 7.3584H15.4648V8.61093H17.5871V7.3584Z" fill="#F4A200"/>
</g>
<defs>
<clipPath id="clip0_5060_38690">
<rect width="31" height="31" fill="white"/>
</clipPath>
</defs>
</svg>
