<svg width="112" height="101" viewBox="0 0 112 101" fill="none" xmlns="http://www.w3.org/2000/svg">
<mask id="mask0_3588_65879" style="mask-type:luminance" maskUnits="userSpaceOnUse" x="0" y="0" width="112" height="101">
<path d="M112 0H0V100.385H112V0Z" fill="white"/>
</mask>
<g mask="url(#mask0_3588_65879)">
<path d="M65.5483 85.4596C65.5483 90.7416 61.2734 95.024 56.0005 95.024C50.7271 95.024 46.4517 90.7416 46.4517 85.4596C46.4517 80.1776 50.7271 75.8953 56.0005 75.8953C61.2734 75.8953 65.5483 80.1776 65.5483 85.4596Z" fill="#DEDEDE"/>
<path d="M56.0002 66.6934C61.2931 66.6934 66.135 68.733 69.8405 72.0953C72.1759 74.2146 75.7075 74.0115 77.7919 71.6258C79.911 69.1983 79.7554 65.4108 77.3863 63.2472C71.6714 58.0272 64.1868 54.8562 56.0002 54.8562C47.8136 54.8562 40.329 58.0272 34.6135 63.2472C32.245 65.4108 32.0894 69.1989 34.2091 71.6258C36.2935 74.0115 39.8245 74.2152 42.16 72.0953C45.8654 68.733 50.7073 66.6934 56.0002 66.6934Z" fill="#DEDEDE"/>
<path d="M56.0002 46.0183C66.3867 46.0183 75.8772 50.0645 83.1036 56.7153C85.4621 58.8865 89.0372 58.7519 91.1558 56.3273C93.2738 53.9021 93.1122 50.1282 90.7585 47.9499C81.5073 39.3894 69.3282 34.1812 56.0002 34.1812C42.6722 34.1812 30.493 39.3894 21.2418 47.9505C18.8881 50.1282 18.7266 53.9021 20.8445 56.3273C22.9631 58.7525 26.5383 58.8865 28.8967 56.7153C36.1231 50.0645 45.6136 46.0183 56.0002 46.0183Z" fill="#DEDEDE"/>
<path d="M56.0001 25.2236C71.5922 25.2236 85.8286 31.35 96.6178 41.4015C98.935 43.5604 102.503 43.3378 104.595 40.9433C106.732 38.4968 106.518 34.7182 104.148 32.5162C91.3502 20.6247 74.473 13.387 56.0001 13.387C37.5277 13.387 20.6499 20.6247 7.85187 32.5162C5.48159 34.7182 5.2682 38.4968 7.40564 40.9433C9.49768 43.3378 13.0652 43.5604 15.3824 41.4015C26.1715 31.35 40.4079 25.2236 56.0001 25.2236Z" fill="#DEDEDE"/>
<path d="M24.0924 90.5132L93.602 6.04793C94.4591 5.00687 95.9964 4.85866 97.0363 5.71725C98.0755 6.57583 98.2241 8.11587 97.367 9.15751L27.858 93.6222C27.0009 94.6638 25.463 94.812 24.4237 93.9535C23.3839 93.0949 23.2359 91.5548 24.0924 90.5132Z" fill="#E84B4B"/>
</g>
</svg>
