<svg width="112" height="112" viewBox="0 0 112 112" fill="none" xmlns="http://www.w3.org/2000/svg">
<g opacity="0.2" clip-path="url(#clip0_2278_66637)">
<mask id="mask0_2278_66637" style="mask-type:luminance" maskUnits="userSpaceOnUse" x="0" y="0" width="112" height="112">
<path d="M112 0H0V112H112V0Z" fill="white"/>
</mask>
<g mask="url(#mask0_2278_66637)">
<path d="M63.0731 16.9664V40.4073C63.0731 43.4266 60.6259 45.8738 57.608 45.8738H34.2443L23.1563 58.0706V45.8738H15.3159C12.2977 45.8738 9.85071 43.4266 9.85071 40.4084V16.9675C9.85071 13.948 12.2977 11.501 15.3159 11.501H57.6068C60.6259 11.501 63.0731 13.948 63.0731 16.9664Z" fill="#111010"/>
<path d="M22.0476 25.916C23.8848 25.916 25.374 27.4052 25.374 29.2424C25.374 31.0794 23.8848 32.5688 22.0476 32.5688C20.2106 32.5688 18.7212 31.0794 18.7212 29.2424C18.7212 27.4052 20.2106 25.916 22.0476 25.916Z" fill="white"/>
<path d="M36.3369 25.916C38.1741 25.916 39.6633 27.4052 39.6633 29.2424C39.6633 31.0794 38.1741 32.5688 36.3369 32.5688C34.4999 32.5688 33.0105 31.0794 33.0105 29.2424C33.0105 27.4052 34.4999 25.916 36.3369 25.916Z" fill="white"/>
<path d="M50.626 25.916C52.4632 25.916 53.9524 27.4052 53.9524 29.2424C53.9524 31.0794 52.4632 32.5688 50.626 32.5688C48.7887 32.5688 47.2996 31.0794 47.2996 29.2424C47.2996 27.4052 48.7887 25.916 50.626 25.916Z" fill="white"/>
<path d="M49.1843 58.8588V81.897C49.1843 84.8645 51.5895 87.2696 54.5556 87.2696H77.5179L88.4154 99.2569V87.2696H96.1212C99.0875 87.2696 101.492 84.8645 101.492 81.8981V58.8599C101.492 55.8922 99.0875 53.4873 96.1212 53.4873H54.5567C51.5895 53.4873 49.1843 55.8922 49.1843 58.8588Z" fill="#111010"/>
<g opacity="0.02">
<path d="M89.5052 67.6543C87.6995 67.6543 86.2359 69.1179 86.2359 70.9236C86.2359 72.729 87.6995 74.1928 89.5052 74.1928C91.3106 74.1928 92.7744 72.729 92.7744 70.9236C92.7744 69.1179 91.3106 67.6543 89.5052 67.6543Z" fill="white"/>
</g>
</g>
</g>
<defs>
<clipPath id="clip0_2278_66637">
<rect width="112" height="112" fill="white"/>
</clipPath>
</defs>
</svg>
