<svg width="16" height="16" viewBox="0 0 16 16" fill="none" xmlns="http://www.w3.org/2000/svg">
<path d="M8.00002 9.8335H4.66669C4.39335 9.8335 4.16669 9.60683 4.16669 9.3335C4.16669 9.06016 4.39335 8.8335 4.66669 8.8335H8.00002C8.27335 8.8335 8.50002 9.06016 8.50002 9.3335C8.50002 9.60683 8.27335 9.8335 8.00002 9.8335Z" fill="#16171D"/>
<path d="M4.66667 4.47343C4.54 4.47343 4.41333 4.42676 4.31333 4.32676L1.81333 1.82676C1.62 1.63343 1.62 1.31343 1.81333 1.1201C2.00667 0.926764 2.32667 0.926764 2.52 1.1201L5.02 3.6201C5.21334 3.81343 5.21334 4.13343 5.02 4.32676C4.92 4.4201 4.79333 4.47343 4.66667 4.47343Z" fill="#16171D"/>
<path d="M2.14 4.4998C2.01333 4.4998 1.88666 4.45313 1.78666 4.35313C1.59333 4.1598 1.59333 3.8398 1.78666 3.64646L4.28666 1.14646C4.48 0.953132 4.8 0.953132 4.99333 1.14646C5.18666 1.3398 5.18666 1.6598 4.99333 1.85313L2.49333 4.35313C2.4 4.45313 2.26666 4.4998 2.14 4.4998Z" fill="#16171D"/>
<path d="M10 7.1665H4.66669C4.39335 7.1665 4.16669 6.93984 4.16669 6.6665C4.16669 6.39317 4.39335 6.1665 4.66669 6.1665H10C10.2734 6.1665 10.5 6.39317 10.5 6.6665C10.5 6.93984 10.2734 7.1665 10 7.1665Z" fill="#16171D"/>
<path d="M14 11.1668C13.7267 11.1668 13.5 10.9402 13.5 10.6668V5.32683C13.5 2.50683 12.54 1.9335 10.64 1.8335H6.66669C6.39335 1.8335 6.16669 1.60683 6.16669 1.3335C6.16669 1.06016 6.39335 0.833496 6.66669 0.833496H10.6667C13.4 0.980163 14.5 2.28016 14.5 5.32683V10.6668C14.5 10.9402 14.2734 11.1668 14 11.1668Z" fill="#16171D"/>
<path d="M10 15.1668H6C2.25333 15.1668 1.5 13.4402 1.5 10.6535V6.00684C1.5 5.7335 1.72667 5.50684 2 5.50684C2.27333 5.50684 2.5 5.7335 2.5 6.00684V10.6535C2.5 13.1335 2.98667 14.1668 6 14.1668H10C10.2733 14.1668 10.5 14.3935 10.5 14.6668C10.5 14.9402 10.2733 15.1668 10 15.1668Z" fill="#16171D"/>
<path d="M10 15.1665C9.93333 15.1665 9.87333 15.1532 9.80667 15.1265C9.62 15.0465 9.5 14.8665 9.5 14.6665V12.6665C9.5 11.0532 10.3867 10.1665 12 10.1665H14C14.2 10.1665 14.3867 10.2865 14.46 10.4732C14.5333 10.6598 14.4933 10.8732 14.3533 11.0198L10.3533 15.0198C10.26 15.1132 10.1267 15.1665 10 15.1665ZM12 11.1665C10.9467 11.1665 10.5 11.6132 10.5 12.6665V13.4598L12.7933 11.1665H12Z" fill="#16171D"/>
</svg>
