<svg width="20" height="20" viewBox="0 0 20 20" fill="none" xmlns="http://www.w3.org/2000/svg">
<path d="M10.0167 17.1086C8.07499 17.1086 6.13333 16.8003 4.29166 16.1836C3.59166 15.9419 3.05833 15.4503 2.82499 14.8086C2.58333 14.1669 2.66666 13.4586 3.04999 12.8253L4.00833 11.2336C4.20833 10.9003 4.39166 10.2336 4.39166 9.84193V7.43359C4.39166 4.33359 6.91666 1.80859 10.0167 1.80859C13.1167 1.80859 15.6417 4.33359 15.6417 7.43359V9.84193C15.6417 10.2253 15.825 10.9003 16.025 11.2419L16.975 12.8253C17.3333 13.4253 17.4 14.1503 17.1583 14.8086C16.9167 15.4669 16.3917 15.9669 15.7333 16.1836C13.9 16.8003 11.9583 17.1086 10.0167 17.1086ZM10.0167 3.05859C7.60833 3.05859 5.64166 5.01693 5.64166 7.43359V9.84193C5.64166 10.4503 5.39166 11.3503 5.08333 11.8753L4.12499 13.4669C3.94166 13.7753 3.89166 14.1003 3.99999 14.3753C4.09999 14.6586 4.34999 14.8753 4.69166 14.9919C8.17499 16.1586 11.8667 16.1586 15.35 14.9919C15.65 14.8919 15.8833 14.6669 15.9917 14.3669C16.1 14.0669 16.075 13.7419 15.9083 13.4669L14.95 11.8753C14.6333 11.3336 14.3917 10.4419 14.3917 9.83359V7.43359C14.3917 5.01693 12.4333 3.05859 10.0167 3.05859Z" fill="#0A4751"/>
<path d="M11.5667 3.2834C11.5083 3.2834 11.45 3.27507 11.3917 3.2584C11.15 3.19173 10.9167 3.14173 10.6917 3.1084C9.98333 3.01673 9.29999 3.06673 8.65833 3.2584C8.42499 3.3334 8.17499 3.2584 8.01666 3.0834C7.85833 2.9084 7.80833 2.6584 7.89999 2.4334C8.24166 1.5584 9.07499 0.983398 10.025 0.983398C10.975 0.983398 11.8083 1.55007 12.15 2.4334C12.2333 2.6584 12.1917 2.9084 12.0333 3.0834C11.9083 3.21673 11.7333 3.2834 11.5667 3.2834Z" fill="#0A4751"/>
<path d="M10.0167 19.0088C9.19166 19.0088 8.39166 18.6755 7.80833 18.0921C7.225 17.5088 6.89166 16.7088 6.89166 15.8838H8.14166C8.14166 16.3755 8.34166 16.8588 8.69166 17.2088C9.04166 17.5588 9.525 17.7588 10.0167 17.7588C11.05 17.7588 11.8917 16.9171 11.8917 15.8838H13.1417C13.1417 17.6088 11.7417 19.0088 10.0167 19.0088Z" fill="#0A4751"/>
</svg>
