<svg width="50" height="50" viewBox="0 0 50 50" fill="none" xmlns="http://www.w3.org/2000/svg">
    <path d="M18 45.3125H10.4375C6.5625 45.3125 4.6875 43.5208 4.6875 39.8125V10.1875C4.6875 6.47917 6.5625 4.6875 10.4375 4.6875H18C21.875 4.6875 23.75 6.47917 23.75 10.1875V39.8125C23.75 43.5208 21.875 45.3125 18 45.3125ZM10.4375 7.8125C8.1875 7.8125 7.8125 8.375 7.8125 10.1875V39.8125C7.8125 41.625 8.16667 42.1875 10.4375 42.1875H18C20.25 42.1875 20.625 41.625 20.625 39.8125V10.1875C20.625 8.375 20.2708 7.8125 18 7.8125H10.4375Z"
          fill="white"/>
    <path d="M39.5625 45.3125H32C28.125 45.3125 26.25 43.5208 26.25 39.8125V10.1875C26.25 6.47917 28.125 4.6875 32 4.6875H39.5625C43.4375 4.6875 45.3125 6.47917 45.3125 10.1875V39.8125C45.3125 43.5208 43.4375 45.3125 39.5625 45.3125ZM32 7.8125C29.75 7.8125 29.375 8.375 29.375 10.1875V39.8125C29.375 41.625 29.7292 42.1875 32 42.1875H39.5625C41.8125 42.1875 42.1875 41.625 42.1875 39.8125V10.1875C42.1875 8.375 41.8333 7.8125 39.5625 7.8125H32Z"
          fill="white"/>
</svg>
