<svg width="20" height="20" viewBox="0 0 20 20" fill="none" xmlns="http://www.w3.org/2000/svg">
    <path opacity="0.2"
          d="M12.5 10C12.5 10.4945 12.3534 10.9778 12.0787 11.3889C11.804 11.8 11.4135 12.1205 10.9567 12.3097C10.4999 12.4989 9.99723 12.5484 9.51227 12.452C9.02732 12.3555 8.58186 12.1174 8.23223 11.7678C7.8826 11.4181 7.6445 10.9727 7.54804 10.4877C7.45157 10.0028 7.50108 9.50011 7.6903 9.04329C7.87952 8.58648 8.19995 8.19603 8.61107 7.92133C9.0222 7.64662 9.50555 7.5 10 7.5C10.663 7.5 11.2989 7.76339 11.7678 8.23223C12.2366 8.70107 12.5 9.33696 12.5 10ZM15.625 5C15.7573 5.78072 16.1292 6.50094 16.6891 7.06086C17.2491 7.62079 17.9693 7.99268 18.75 8.125V5H15.625ZM15.625 15H18.75V11.875C17.9693 12.0073 17.2491 12.3792 16.6891 12.9391C16.1292 13.4991 15.7573 14.2193 15.625 15ZM1.25 11.875V15H4.375C4.24268 14.2193 3.87079 13.4991 3.31086 12.9391C2.75094 12.3792 2.03072 12.0073 1.25 11.875ZM1.25 8.125C2.03072 7.99268 2.75094 7.62079 3.31086 7.06086C3.87079 6.50094 4.24268 5.78072 4.375 5H1.25V8.125Z"
          fill="#0A4751"/>
    <path d="M10 6.875C9.38193 6.875 8.77775 7.05828 8.26384 7.40166C7.74994 7.74504 7.3494 8.2331 7.11288 8.80411C6.87635 9.37513 6.81447 10.0035 6.93505 10.6097C7.05562 11.2158 7.35325 11.7727 7.79029 12.2097C8.22733 12.6467 8.78415 12.9444 9.39034 13.065C9.99653 13.1855 10.6249 13.1236 11.1959 12.8871C11.7669 12.6506 12.255 12.2501 12.5983 11.7362C12.9417 11.2223 13.125 10.6181 13.125 10C13.125 9.1712 12.7958 8.37634 12.2097 7.79029C11.6237 7.20424 10.8288 6.875 10 6.875ZM10 11.875C9.62916 11.875 9.26665 11.765 8.95831 11.559C8.64996 11.353 8.40964 11.0601 8.26773 10.7175C8.12581 10.3749 8.08868 9.99792 8.16103 9.63421C8.23337 9.27049 8.41195 8.9364 8.67417 8.67417C8.9364 8.41195 9.27049 8.23337 9.63421 8.16103C9.99792 8.08868 10.3749 8.12581 10.7175 8.26773C11.0601 8.40964 11.353 8.64996 11.559 8.95831C11.765 9.26665 11.875 9.62916 11.875 10C11.875 10.4973 11.6775 10.9742 11.3258 11.3258C10.9742 11.6775 10.4973 11.875 10 11.875ZM18.75 4.375H1.25C1.08424 4.375 0.925268 4.44085 0.808058 4.55806C0.690848 4.67527 0.625 4.83424 0.625 5V15C0.625 15.1658 0.690848 15.3247 0.808058 15.4419C0.925268 15.5592 1.08424 15.625 1.25 15.625H18.75C18.9158 15.625 19.0747 15.5592 19.1919 15.4419C19.3092 15.3247 19.375 15.1658 19.375 15V5C19.375 4.83424 19.3092 4.67527 19.1919 4.55806C19.0747 4.44085 18.9158 4.375 18.75 4.375ZM1.875 5.625H3.54453C3.22218 6.37466 2.62466 6.97218 1.875 7.29453V5.625ZM1.875 14.375V12.7055C2.62466 13.0278 3.22218 13.6253 3.54453 14.375H1.875ZM18.125 14.375H16.4555C16.7778 13.6253 17.3753 13.0278 18.125 12.7055V14.375ZM18.125 11.3789C17.4153 11.5887 16.7694 11.9728 16.2461 12.4961C15.7228 13.0194 15.3387 13.6653 15.1289 14.375H4.87109C4.66125 13.6653 4.27719 13.0194 3.75389 12.4961C3.23059 11.9728 2.58468 11.5887 1.875 11.3789V8.62109C2.58468 8.41125 3.23059 8.02719 3.75389 7.50389C4.27719 6.98059 4.66125 6.33468 4.87109 5.625H15.1289C15.3387 6.33468 15.7228 6.98059 16.2461 7.50389C16.7694 8.02719 17.4153 8.41125 18.125 8.62109V11.3789ZM18.125 7.29453C17.3753 6.97218 16.7778 6.37466 16.4555 5.625H18.125V7.29453Z"
          fill="#0A4751"/>
</svg>
