<svg width="24" height="24" viewBox="0 0 24 24" fill="none" xmlns="http://www.w3.org/2000/svg">
    <g clip-path="url(#clip0_5865_57705)">
        <mask id="mask0_5865_57705" style="mask-type:luminance" maskUnits="userSpaceOnUse" x="0" y="0" width="24"
              height="24">
            <path d="M0 0.196045H24V23.8039H0V0.196045Z" fill="white"/>
        </mask>
        <g mask="url(#mask0_5865_57705)">
            <path d="M21.5065 0.196045H1.24675C0.56102 0.196045 0 0.758123 0 1.44514V3.6935C0 4.38052 0.56102 4.94259 1.24675 4.94259H21.4442C22.1299 4.94259 22.6909 4.38052 22.6909 3.6935V1.44514C22.7533 0.758123 22.1922 0.196045 21.5065 0.196045ZM21.5065 12.7494H1.24675C0.56102 12.7494 0 13.3115 0 13.9985V16.2469C0 16.9339 0.56102 17.496 1.24675 17.496H21.4442C22.1299 17.496 22.6909 16.9339 22.6909 16.2469V13.9985C22.7533 13.3115 22.1922 12.7494 21.5065 12.7494ZM12.6545 19.0573H1.24675C0.56102 19.0573 0 19.6194 0 20.3064V22.5548C0 23.2418 0.56102 23.8039 1.24675 23.8039H12.6545C13.3403 23.8039 13.9013 23.2418 13.9013 22.5548V20.3064C13.9013 19.6194 13.3403 19.0573 12.6545 19.0573ZM22.7533 6.50397H1.24675C0.56102 6.50397 0 7.06605 0 7.75303V10.0014C0 10.6884 0.56102 11.2505 1.24675 11.2505H22.7533C23.439 11.2505 24 10.6884 24 10.0014V7.75303C24 7.06605 23.439 6.50397 22.7533 6.50397Z"
                  fill="#0BA4DB"/>
        </g>
    </g>
    <defs>
        <clipPath id="clip0_5865_57705">
            <rect width="24" height="23.6078" fill="white" transform="translate(0 0.196045)"/>
        </clipPath>
    </defs>
</svg>
