<svg width="12" height="11" viewBox="0 0 12 11" fill="none" xmlns="http://www.w3.org/2000/svg">
    <path d="M4.16442 9.62457C3.81331 9.62457 3.47997 9.54013 3.18664 9.37124C2.49331 8.97124 2.11108 8.15791 2.11108 7.0868V3.91791C2.11108 2.84235 2.49331 2.03346 3.18664 1.63346C3.87997 1.23346 4.77331 1.30902 5.70664 1.8468L8.44886 3.42902C9.37775 3.9668 9.89331 4.70458 9.89331 5.50458C9.89331 6.30457 9.38219 7.04235 8.44886 7.58013L5.70664 9.16235C5.16886 9.46902 4.64442 9.62457 4.16442 9.62457ZM4.16442 2.04235C3.92442 2.04235 3.71108 2.09569 3.51997 2.2068C3.03997 2.48235 2.77775 3.09124 2.77775 3.91791V7.08235C2.77775 7.90902 3.03997 8.51346 3.51997 8.79346C3.99997 9.07346 4.65775 8.99346 5.37331 8.58013L8.11553 6.99791C8.83108 6.58458 9.22664 6.05569 9.22664 5.50013C9.22664 4.94458 8.83108 4.41569 8.11553 4.00235L5.37331 2.42013C4.93775 2.17124 4.52886 2.04235 4.16442 2.04235Z"
          fill="white"/>
</svg>
