<svg width="28" height="28" viewBox="0 0 28 28" fill="none" xmlns="http://www.w3.org/2000/svg">
<rect width="28" height="28" rx="14" fill="#0A4751" fill-opacity="0.1"/>
<path d="M14 6C9.584 6 6 9.584 6 14C6 18.416 9.584 22 14 22C18.416 22 22 18.416 22 14C22 9.584 18.416 6 14 6ZM13.2 20.344C10.04 19.952 7.6 17.264 7.6 14C7.6 13.504 7.664 13.032 7.768 12.568L11.6 16.4V17.2C11.6 18.08 12.32 18.8 13.2 18.8V20.344ZM18.72 18.312C18.512 17.664 17.92 17.2 17.2 17.2H16.4V14.8C16.4 14.36 16.04 14 15.6 14H10.8V12.4H12.4C12.84 12.4 13.2 12.04 13.2 11.6V10H14.8C15.68 10 16.4 9.28 16.4 8.4V8.072C18.744 9.024 20.4 11.32 20.4 14C20.4 15.664 19.76 17.176 18.72 18.312Z" fill="#111010" fill-opacity="0.8"/>
</svg>
