<svg width="34" height="34" viewBox="0 0 34 34" fill="none" xmlns="http://www.w3.org/2000/svg">
<circle cx="17" cy="17" r="16.65" stroke="#0A4751" stroke-opacity="0.4" stroke-width="0.7"/>
<path d="M17.7501 16.8124C17.6076 16.8124 17.4651 16.7599 17.3526 16.6474C17.1351 16.4299 17.1351 16.0699 17.3526 15.8524L23.5026 9.70243C23.7201 9.48493 24.0801 9.48493 24.2976 9.70243C24.5151 9.91993 24.5151 10.2799 24.2976 10.4974L18.1476 16.6474C18.0351 16.7599 17.8926 16.8124 17.7501 16.8124Z" fill="#0A4751"/>
<path d="M24.5004 13.6625C24.1929 13.6625 23.9379 13.4075 23.9379 13.1V10.0625H20.9004C20.5929 10.0625 20.3379 9.8075 20.3379 9.5C20.3379 9.1925 20.5929 8.9375 20.9004 8.9375H24.5004C24.8079 8.9375 25.0629 9.1925 25.0629 9.5V13.1C25.0629 13.4075 24.8079 13.6625 24.5004 13.6625Z" fill="#0A4751"/>
<path d="M19.25 25.0625H14.75C10.6775 25.0625 8.9375 23.3225 8.9375 19.25V14.75C8.9375 10.6775 10.6775 8.9375 14.75 8.9375H16.25C16.5575 8.9375 16.8125 9.1925 16.8125 9.5C16.8125 9.8075 16.5575 10.0625 16.25 10.0625H14.75C11.2925 10.0625 10.0625 11.2925 10.0625 14.75V19.25C10.0625 22.7075 11.2925 23.9375 14.75 23.9375H19.25C22.7075 23.9375 23.9375 22.7075 23.9375 19.25V17.75C23.9375 17.4425 24.1925 17.1875 24.5 17.1875C24.8075 17.1875 25.0625 17.4425 25.0625 17.75V19.25C25.0625 23.3225 23.3225 25.0625 19.25 25.0625Z" fill="#0A4751"/>
</svg>
