<svg width="18" height="18" viewBox="0 0 18 18" fill="none" xmlns="http://www.w3.org/2000/svg">
    <path d="M8.97852 17.0625C4.53852 17.0625 0.916016 13.4475 0.916016 9C0.916016 4.5525 4.53852 0.9375 8.97852 0.9375C13.4185 0.9375 17.041 4.5525 17.041 9C17.041 13.4475 13.426 17.0625 8.97852 17.0625ZM8.97852 2.0625C5.15352 2.0625 2.04102 5.175 2.04102 9C2.04102 12.825 5.15352 15.9375 8.97852 15.9375C12.8035 15.9375 15.916 12.825 15.916 9C15.916 5.175 12.8035 2.0625 8.97852 2.0625Z"
          fill="#0A4751"/>
    <path d="M9.00063 12.7351C6.93813 12.7351 5.26562 11.0626 5.26562 9.00014C5.26562 6.93764 6.93813 5.26514 9.00063 5.26514C11.0631 5.26514 12.7356 6.93764 12.7356 9.00014C12.7356 11.0626 11.0631 12.7351 9.00063 12.7351ZM9.00063 6.39014C7.56063 6.39014 6.39063 7.56014 6.39063 9.00014C6.39063 10.4401 7.56063 11.6101 9.00063 11.6101C10.4406 11.6101 11.6106 10.4401 11.6106 9.00014C11.6106 7.56014 10.4406 6.39014 9.00063 6.39014Z"
          fill="#0A4751"/>
</svg>
