<svg width="16" height="16" viewBox="0 0 16 16" fill="none" xmlns="http://www.w3.org/2000/svg">
    <path d="M8 15.1666C4.04666 15.1666 0.833328 11.9533 0.833328 7.99992C0.833328 4.04659 4.04666 0.833252 8 0.833252C11.9533 0.833252 15.1667 4.04659 15.1667 7.99992C15.1667 11.9533 11.9533 15.1666 8 15.1666ZM8 1.83325C4.6 1.83325 1.83333 4.59992 1.83333 7.99992C1.83333 11.3999 4.6 14.1666 8 14.1666C11.4 14.1666 14.1667 11.3999 14.1667 7.99992C14.1667 4.59992 11.4 1.83325 8 1.83325Z"
          fill="white"/>
    <path d="M7.99996 11.6466C7.06663 11.6466 6.1333 11.2933 5.41997 10.58C5.2333 10.3933 5.06663 10.1866 4.91329 9.93996C4.76663 9.70663 4.83995 9.39998 5.07329 9.25332C5.30662 9.10665 5.61331 9.17998 5.75997 9.41331C5.87331 9.59998 5.9933 9.74665 6.12663 9.87999C7.15997 10.9133 8.83996 10.9133 9.8733 9.87999C10.2733 9.47999 10.5266 8.95999 10.6133 8.37999C10.6533 8.10665 10.9066 7.90664 11.18 7.95331C11.4533 7.99331 11.64 8.24667 11.6066 8.52C11.4933 9.31333 11.14 10.0267 10.5866 10.5867C9.86663 11.2933 8.9333 11.6466 7.99996 11.6466Z"
          fill="white"/>
    <path d="M4.89326 8.0534C4.86659 8.0534 4.8466 8.0534 4.81994 8.04673C4.5466 8.00673 4.35326 7.75337 4.39326 7.48004C4.50659 6.68671 4.85993 5.97339 5.41326 5.41339C6.83326 3.99339 9.14658 3.99339 10.5733 5.41339C10.7599 5.60006 10.9266 5.80674 11.0799 6.06008C11.2266 6.29341 11.1533 6.60006 10.9199 6.74672C10.6866 6.89339 10.3799 6.82006 10.2333 6.58673C10.1199 6.40673 9.99992 6.25339 9.86659 6.12005C8.83325 5.08672 7.15326 5.08672 6.11992 6.12005C5.71992 6.52005 5.4666 7.04005 5.37993 7.62005C5.35327 7.87339 5.13993 8.0534 4.89326 8.0534Z"
          fill="white"/>
    <path d="M5.21355 11.9533C4.94021 11.9533 4.71355 11.7267 4.71355 11.4533V9.67334C4.71355 9.40001 4.94021 9.17334 5.21355 9.17334H6.99354C7.26687 9.17334 7.49354 9.40001 7.49354 9.67334C7.49354 9.94667 7.26687 10.1733 6.99354 10.1733H5.71355V11.4533C5.71355 11.7267 5.49355 11.9533 5.21355 11.9533Z"
          fill="white"/>
    <path d="M10.7865 6.82662H9.00652C8.73318 6.82662 8.50652 6.59995 8.50652 6.32662C8.50652 6.05329 8.73318 5.82662 9.00652 5.82662H10.2865V4.54663C10.2865 4.2733 10.5132 4.04663 10.7865 4.04663C11.0598 4.04663 11.2865 4.2733 11.2865 4.54663V6.32662C11.2865 6.60662 11.0598 6.82662 10.7865 6.82662Z"
          fill="white"/>
</svg>
