<svg width="16" height="20" viewBox="0 0 16 20" fill="none" xmlns="http://www.w3.org/2000/svg">
<path d="M8 6V0H2C0.895431 0 0 0.895431 0 2V18C0 19.1046 0.895431 20 2 20H14C15.1046 20 16 19.1046 16 18V8H10C8.89543 8 8 7.10457 8 6ZM8 13C8.41421 13 8.75 13.3358 8.75 13.75V16.25C8.75 16.6642 8.41421 17 8 17C7.58579 17 7.25 16.6642 7.25 16.25V13.75C7.25 13.3358 7.58579 13 8 13ZM4.75 9C5.16421 9 5.5 9.33579 5.5 9.75V16.25C5.5 16.6642 5.16421 17 4.75 17C4.33579 17 4 16.6642 4 16.25V9.75C4 9.33579 4.33579 9 4.75 9ZM11.25 11C11.6642 11 12 11.3358 12 11.75V16.25C12 16.6642 11.6642 17 11.25 17C10.8358 17 10.5 16.6642 10.5 16.25V11.75C10.5 11.3358 10.8358 11 11.25 11ZM9.5 6V0.5L15.5 6.5H10C9.72386 6.5 9.5 6.27614 9.5 6Z" fill="#242424"/>
</svg>
