<svg width="17" height="20" viewBox="0 0 17 20" fill="none" xmlns="http://www.w3.org/2000/svg">
<path d="M5.25 9C5.66421 9 6 9.33579 6 9.75V16.25C6 16.6642 5.66421 17 5.25 17C4.83579 17 4.5 16.6642 4.5 16.25V9.75C4.5 9.33579 4.83579 9 5.25 9ZM9.25 13.75C9.25 13.3358 8.91421 13 8.5 13C8.08579 13 7.75 13.3358 7.75 13.75L7.75 16.25C7.75 16.6642 8.08579 17 8.5 17C8.91421 17 9.25 16.6642 9.25 16.25V13.75ZM11.75 11C12.1642 11 12.5 11.3358 12.5 11.75V16.25C12.5 16.6642 12.1642 17 11.75 17C11.3358 17 11 16.6642 11 16.25V11.75C11 11.3358 11.3358 11 11.75 11ZM8.98283 0C9.31435 0 9.6323 0.131696 9.86672 0.366117L12.7203 3.21967C12.7286 3.22801 12.7367 3.23649 12.7446 3.24511L15.914 6.414C16.289 6.789 16.5 7.298 16.5 7.828V18C16.5 19.104 15.604 20 14.5 20H2.5C1.396 20 0.5 19.104 0.5 18V2C0.5 0.896 1.396 0 2.5 0H8.98283ZM2.5 1.5C2.224 1.5 2 1.725 2 2V18C2 18.275 2.224 18.5 2.5 18.5H14.5C14.776 18.5 15 18.275 15 18V8H10.5C9.396 8 8.5 7.104 8.5 6V1.5H2.5ZM10 2.621V6C10 6.275 10.224 6.5 10.5 6.5H13.878L10 2.621Z" fill="#6D6D6D"/>
</svg>
