<svg width="19" height="21" viewBox="0 0 19 21" fill="none" xmlns="http://www.w3.org/2000/svg">
<path d="M10.1904 11C9.57709 10.3609 8.83438 9.84684 8.0044 9.5H14.25C14.6642 9.5 15 9.83579 15 10.25C15 10.6642 14.6642 11 14.25 11H10.1904ZM11.1304 12.25C11.4002 12.7165 11.6138 13.2196 11.7617 13.75H14.25C14.6642 13.75 15 13.4142 15 13C15 12.5858 14.6642 12.25 14.25 12.25H11.1304ZM12 15.5C12 15.8401 11.9739 16.174 11.9236 16.5H14.25C14.6642 16.5 15 16.1642 15 15.75C15 15.3358 14.6642 15 14.25 15H11.9811C11.9936 15.165 12 15.3318 12 15.5ZM4.5 2C4.5 1.725 4.724 1.5 5 1.5H11V6C11 7.104 11.896 8 13 8H17.5V18C17.5 18.275 17.276 18.5 17 18.5H11.2678C10.9806 19.051 10.6168 19.5557 10.1904 20H17C18.104 20 19 19.104 19 18V7.828C19 7.298 18.789 6.789 18.414 6.414L12.585 0.586C12.57 0.571048 12.5531 0.55808 12.5363 0.545195C12.5238 0.535674 12.5115 0.526198 12.5 0.516C12.429 0.452 12.359 0.389 12.281 0.336C12.2557 0.318941 12.2281 0.305475 12.2005 0.292071C12.1845 0.284259 12.1685 0.276469 12.153 0.268C12.1363 0.258594 12.1197 0.248967 12.103 0.239326C12.0488 0.20797 11.9944 0.176475 11.937 0.152C11.74 0.0699999 11.528 0.0289999 11.313 0.0139999C11.2933 0.0127423 11.2738 0.0100789 11.2542 0.00740928C11.2271 0.00371057 11.1999 0 11.172 0H5C3.896 0 3 0.896 3 2V9.49816C3.47417 9.30042 3.97679 9.15724 4.5 9.07645V2ZM16.378 6.5H13C12.724 6.5 12.5 6.275 12.5 6V2.621L16.378 6.5ZM11 15.5C11 12.4624 8.53757 10 5.5 10C2.46243 10 0 12.4624 0 15.5C0 18.5376 2.46243 21 5.5 21C8.53757 21 11 18.5376 11 15.5ZM5.5 15.5001H7.5C7.77614 15.5001 8 15.7239 8 16.0001C8 16.2762 7.77614 16.5001 7.5 16.5001H5C4.72386 16.5001 4.5 16.2762 4.5 16.0001L4.5 15.9985L4.5 12.9999C4.5 12.7238 4.72386 12.4999 5 12.4999C5.27614 12.4999 5.5 12.7238 5.5 12.9999L5.5 15.5001Z" fill="#6D6D6D"/>
</svg>
