<svg width="19" height="21" viewBox="0 0 19 21" fill="none" xmlns="http://www.w3.org/2000/svg">
<path d="M11 6V0H5C3.89543 0 3 0.895431 3 2V9.49816C3.76959 9.17723 4.6141 9 5.5 9C6.38759 9 7.23363 9.1779 8.0044 9.5H14.75C15.1642 9.5 15.5 9.83579 15.5 10.25C15.5 10.6642 15.1642 11 14.75 11H10.1904C10.5514 11.3762 10.8676 11.7957 11.1304 12.25H14.75C15.1642 12.25 15.5 12.5858 15.5 13C15.5 13.4142 15.1642 13.75 14.75 13.75H11.7617C11.8739 14.1523 11.9484 14.5703 11.9811 15H14.75C15.1642 15 15.5 15.3358 15.5 15.75C15.5 16.1642 15.1642 16.5 14.75 16.5H11.9236C11.7154 17.8481 11.093 19.0595 10.1904 20H17C18.1046 20 19 19.1046 19 18V8H13C11.8954 8 11 7.10457 11 6ZM12.5 6V0.5L18.5 6.5H13C12.7239 6.5 12.5 6.27614 12.5 6ZM11 15.5C11 12.4624 8.53757 10 5.5 10C2.46243 10 0 12.4624 0 15.5C0 18.5376 2.46243 21 5.5 21C8.53757 21 11 18.5376 11 15.5ZM5.5 15.5001H7.5C7.77614 15.5001 8 15.7239 8 16.0001C8 16.2762 7.77614 16.5001 7.5 16.5001H5C4.72386 16.5001 4.5 16.2762 4.5 16.0001L4.5 15.9985L4.5 12.9999C4.5 12.7238 4.72386 12.4999 5 12.4999C5.27614 12.4999 5.5 12.7238 5.5 12.9999L5.5 15.5001Z" fill="#242424"/>
</svg>
