<svg width="62" height="12" viewBox="0 0 62 12" fill="none" xmlns="http://www.w3.org/2000/svg">
<path d="M0 0.330883C0.588454 0.208647 1.50116 0.130859 2.3298 0.130859C4.55151 0.130859 5.89654 0.808717 5.89654 2.54226C5.89654 3.60905 5.40417 4.30913 4.63557 4.68695L6.49701 7.46506C6.3529 7.55396 6.04066 7.60952 5.60832 7.60952C5.11594 7.60952 4.79169 7.55396 4.56352 7.46506L3.01432 5.05367H2.83418C2.4619 5.05367 1.95751 5.02033 1.6813 4.97588V7.46506C1.52518 7.54285 1.24896 7.59841 0.840648 7.59841C0.456352 7.59841 0.15612 7.54285 0 7.46506V0.330883ZM1.66929 1.51991V3.67572C1.98153 3.72017 2.30578 3.75351 2.63003 3.75351C3.60278 3.75351 4.19123 3.43125 4.19123 2.63116C4.19123 1.80884 3.56675 1.46435 2.44989 1.46435C2.19769 1.46435 1.93349 1.48658 1.66929 1.51991Z" fill="#EA555C"/>
<path d="M8.65005 5.50143C8.7221 6.22374 9.27453 6.56822 10.3794 6.56822C11.0879 6.56822 11.7124 6.42376 12.1207 6.25708C12.1567 6.64601 11.9766 7.15718 11.7244 7.42388C11.3521 7.6239 10.7276 7.77948 9.95905 7.77948C8.01355 7.77948 6.96875 6.73491 6.96875 5.06804C6.96875 3.34562 8.08561 2.23438 9.82695 2.23438C11.4482 2.23438 12.2048 3.15671 12.2048 4.52354C12.2048 4.85691 12.1447 5.17917 12.0367 5.49032H8.65005V5.50143ZM10.6916 4.41241C10.7757 3.87901 10.5715 3.34562 9.76691 3.34562C9.07037 3.34562 8.65005 3.75678 8.61402 4.41241H10.6916Z" fill="#EA555C"/>
<path d="M15.6505 6.46791C15.7225 6.02341 15.8306 5.57891 15.9747 5.13442L16.8154 2.47855C16.9355 2.4341 17.1276 2.38965 17.4879 2.38965C17.9442 2.38965 18.2565 2.46743 18.4606 2.60078L16.6953 7.49025C16.1068 7.64583 15.2782 7.70139 14.4856 7.70139L12.6602 2.6119C12.8643 2.48966 13.1766 2.40076 13.6449 2.40076C13.9812 2.40076 14.2094 2.45632 14.3174 2.48966L15.2181 5.14553C15.3622 5.57892 15.4823 6.02341 15.5664 6.47902L15.6505 6.46791Z" fill="#EA555C"/>
<path d="M20.5211 5.50143C20.5932 6.22374 21.1456 6.56822 22.2505 6.56822C22.959 6.56822 23.5835 6.42376 23.9918 6.25708C24.0278 6.64601 23.8477 7.15718 23.5955 7.42388C23.2232 7.6239 22.5987 7.77948 21.8301 7.77948C19.8846 7.77948 18.8398 6.73491 18.8398 5.06804C18.8398 3.34562 19.9567 2.23438 21.698 2.23438C23.3193 2.23438 24.0759 3.15671 24.0759 4.52354C24.0759 4.85691 24.0158 5.17917 23.9077 5.49032H20.5211V5.50143ZM22.5627 4.41241C22.6468 3.87901 22.4426 3.34562 21.638 3.34562C20.9415 3.34562 20.5211 3.75678 20.4851 4.41241H22.5627Z" fill="#EA555C"/>
<path d="M26.9533 7.48823C26.8092 7.56602 26.545 7.61047 26.1487 7.61047C25.7644 7.61047 25.4882 7.5549 25.332 7.48823V2.57654C25.6323 2.42096 26.1126 2.34318 26.641 2.34318L26.7251 3.18772H26.8092C27.0734 2.65432 27.6498 2.24316 28.6586 2.24316C29.4992 2.24316 30.508 2.52098 30.508 4.22118V7.49934C30.3639 7.57713 30.0997 7.62158 29.7034 7.62158C29.3071 7.62158 29.0429 7.56602 28.8868 7.49934V4.48787C28.8868 3.95448 28.6826 3.60999 28.0341 3.60999C27.4577 3.60999 27.1334 3.87669 26.9293 4.19895L26.9533 7.48823Z" fill="#EA555C"/>
<path d="M35.5715 6.95675C35.3313 7.42347 34.8029 7.77907 33.8182 7.77907C32.9535 7.77907 31.9688 7.50126 31.9688 5.78995V2.64513C32.341 2.44511 32.8815 2.33398 33.578 2.33398V5.53436C33.578 6.08998 33.7701 6.40113 34.4186 6.40113C34.947 6.40113 35.2833 6.19 35.4875 5.95663V2.5229C35.6436 2.44511 35.9078 2.40066 36.3041 2.40066C36.6884 2.40066 36.9646 2.45622 37.1087 2.5229V7.43459C36.8205 7.59016 36.3641 7.66795 35.8477 7.66795L35.6556 6.94564H35.5715V6.95675Z" fill="#EA555C"/>
<path d="M40.0055 5.50143C40.0776 6.22374 40.63 6.56822 41.7348 6.56822C42.4434 6.56822 43.0679 6.42376 43.4762 6.25708C43.5122 6.64601 43.3321 7.15718 43.0799 7.42388C42.7076 7.6239 42.0831 7.77948 41.3145 7.77948C39.369 7.77948 38.3242 6.73491 38.3242 5.06804C38.3242 3.34562 39.4411 2.23438 41.1824 2.23438C42.8037 2.23438 43.5603 3.15671 43.5603 4.52354C43.5603 4.85691 43.5002 5.17917 43.3921 5.49032H40.0055V5.50143ZM42.0351 4.41241C42.1191 3.87901 41.915 3.34562 41.1104 3.34562C40.4138 3.34562 39.9935 3.75678 39.9575 4.41241H42.0351Z" fill="#EA555C"/>
<path d="M48.9459 1.37892C47.3727 1.37892 46.2918 2.12345 46.2918 3.91255C46.2918 5.70165 47.3607 6.41285 48.8618 6.41285C49.4983 6.40173 50.1348 6.29061 50.7353 6.06836C50.7593 6.44618 50.5551 7.11293 50.2909 7.43519C49.8105 7.64633 49.126 7.8019 48.3454 7.8019C45.9676 7.8019 44.5625 6.37951 44.5625 4.01256C44.5625 1.4567 46.1958 0.000976562 48.6096 0.000976562C49.2461 0.000976562 49.8946 0.100988 50.3029 0.334349C50.5551 0.678835 50.6752 1.2789 50.6152 1.73451C50.0748 1.51227 49.5824 1.37892 48.9459 1.37892Z" fill="#EA555C"/>
<path d="M54.6946 7.04373C54.4544 7.49934 53.926 7.78826 53.1574 7.78826C52.1727 7.78826 51.332 7.33266 51.332 6.14363C51.332 4.88792 52.3168 4.39897 53.6018 4.39897C53.95 4.39897 54.2863 4.44343 54.6106 4.53232V4.38786C54.6106 3.75445 54.2743 3.53221 53.5417 3.53221C52.9173 3.53221 52.3048 3.67667 51.7644 3.96559C51.6323 3.56554 51.6803 2.92102 51.9445 2.58765C52.3408 2.37651 53.0373 2.24316 53.866 2.24316C55.4752 2.24316 56.2438 2.76545 56.2438 4.29896V6.07695C56.2438 6.39921 56.3999 6.46589 56.6161 6.46589C56.7842 6.46589 56.9524 6.42144 57.0965 6.34365C57.1445 6.75481 57.0124 7.26598 56.8082 7.54379C56.5801 7.68825 56.2678 7.77715 55.8835 7.77715C55.235 7.77715 54.8988 7.52157 54.7907 7.03262L54.6946 7.04373ZM54.6466 5.51022C54.4064 5.42132 54.1662 5.38798 53.914 5.38798C53.2655 5.38798 52.9413 5.63245 52.9413 6.0325C52.9413 6.43255 53.2655 6.57701 53.7099 6.57701C54.0701 6.57701 54.4184 6.477 54.6466 6.22141V5.51022Z" fill="#EA555C"/>
<path d="M59.6181 3.71025H61.1073C61.1793 3.58801 61.2034 3.32132 61.2034 3.06573C61.2034 2.81014 61.1673 2.54345 61.1073 2.42121H59.6181V0.887695C58.9936 0.898808 58.4052 1.03216 57.9969 1.29885V2.42121H57.3604C57.2163 2.75458 57.1322 3.25464 57.1322 3.71025H57.9969L57.9729 7.35513C57.9729 7.75518 57.9008 8.26635 57.6486 8.43303C56.4717 9.2109 54.0699 8.83308 51.8601 8.62194C48.6897 8.32191 45.9636 7.92186 45.5073 9.53316C45.2671 10.3888 45.5793 10.9333 45.8795 11.2445C46.492 11.8668 47.5608 12.0001 48.4135 12.0001C48.8098 12.0001 49.2181 11.9668 49.6144 11.9112C49.8186 11.8779 49.9987 11.7779 50.1188 11.6223C50.2389 11.4667 50.2869 11.2778 50.2509 11.0889C50.1789 10.7 49.7825 10.4222 49.3622 10.4999C48.4855 10.6555 47.2486 10.9889 46.7682 10.5111C46.6121 10.3444 46.6361 9.94432 46.7682 9.82209C47.1165 9.33314 49.3983 9.52205 51.68 9.81098C54.214 10.0554 56.832 10.3999 58.3091 9.71096C58.8856 9.44427 59.5821 8.81086 59.5821 7.35513V3.71025H59.6181Z" fill="#EA555C"/>
</svg>
