<svg width="25" height="20" viewBox="0 0 25 20" fill="none" xmlns="http://www.w3.org/2000/svg">
<g clip-path="url(#clip0_2797_26569)">
<path d="M8.89829 6.96154L5.5817 4.63399C4.87501 4.13817 3.90249 4.64379 3.90249 5.50714V13.3534C3.90249 13.9212 3.26291 14.2537 2.79807 13.9277L0 11.9633V13.6626L4.43263 16.7733L8.75298 19.8047C9.45966 20.3005 10.4322 19.7948 10.4322 18.9315V11.2584C10.4322 10.6152 11.1567 10.2387 11.6829 10.608L13.6112 11.9612L18.4617 15.3658C19.1684 15.8619 20.1409 15.3563 20.1409 14.4927V6.81985C20.1409 6.17666 20.8654 5.80009 21.3917 6.16943L24.0442 8.03086V6.33152L18.607 2.51601V2.52298L15.2904 0.195421C14.5827 -0.300649 13.6112 0.204971 13.6112 1.06858V8.91279C13.6112 9.48061 12.9716 9.81304 12.5068 9.48706L8.89829 6.96154Z" fill="#F4BC1E"/>
<path d="M14.5788 19.9995C15.8104 19.9995 16.8088 19.0011 16.8088 17.7695C16.8088 16.538 15.8104 15.5396 14.5788 15.5396C13.3472 15.5396 12.3488 16.538 12.3488 17.7695C12.3488 19.0011 13.3472 19.9995 14.5788 19.9995Z" fill="#DEEBB8"/>
</g>
<defs>
<clipPath id="clip0_2797_26569">
<rect width="24.0442" height="20" fill="white"/>
</clipPath>
</defs>
</svg>
