<svg width="34" height="34" viewBox="0 0 34 34" fill="none" xmlns="http://www.w3.org/2000/svg">
<circle cx="17" cy="17" r="16.6" stroke="#0A4751" stroke-opacity="0.4" stroke-width="0.8"/>
<path d="M19.625 16.4375H14.375C14.0675 16.4375 13.8125 16.1825 13.8125 15.875C13.8125 15.5675 14.0675 15.3125 14.375 15.3125H19.625C19.9325 15.3125 20.1875 15.5675 20.1875 15.875C20.1875 16.1825 19.9325 16.4375 19.625 16.4375Z" fill="#0A4751"/>
<path d="M20 24.7401C19.745 24.7401 19.49 24.6651 19.2725 24.5226L16.0775 22.3926H13.25C10.67 22.3926 8.9375 20.6601 8.9375 18.0801V13.5801C8.9375 11.0001 10.67 9.26758 13.25 9.26758H20.75C23.33 9.26758 25.0625 11.0001 25.0625 13.5801V18.0801C25.0625 20.4651 23.5775 22.1301 21.3125 22.3626V23.4276C21.3125 23.9151 21.05 24.3576 20.6225 24.5826C20.4275 24.6876 20.21 24.7401 20 24.7401ZM13.25 10.3851C11.315 10.3851 10.0625 11.6376 10.0625 13.5726V18.0726C10.0625 20.0076 11.315 21.2601 13.25 21.2601H16.25C16.3625 21.2601 16.4675 21.2901 16.565 21.3576L19.9025 23.5776C19.985 23.6301 20.06 23.6076 20.0975 23.5851C20.135 23.5626 20.195 23.5176 20.195 23.4201V21.8226C20.195 21.5151 20.45 21.2601 20.7575 21.2601C22.6925 21.2601 23.945 20.0076 23.945 18.0726V13.5726C23.945 11.6376 22.6925 10.3851 20.7575 10.3851H13.25Z" fill="#0A4751"/>
</svg>
