<svg width="24" height="25" viewBox="0 0 24 25" fill="none" xmlns="http://www.w3.org/2000/svg">
<path d="M11.5 22.7363C5.85 22.7363 1.25 18.1363 1.25 12.4863C1.25 6.83633 5.85 2.23633 11.5 2.23633C17.15 2.23633 21.75 6.83633 21.75 12.4863C21.75 18.1363 17.15 22.7363 11.5 22.7363ZM11.5 3.73633C6.67 3.73633 2.75 7.66633 2.75 12.4863C2.75 17.3063 6.67 21.2363 11.5 21.2363C16.33 21.2363 20.25 17.3063 20.25 12.4863C20.25 7.66633 16.33 3.73633 11.5 3.73633Z" fill="#16171D"/>
<path d="M22.0004 23.7363C21.8104 23.7363 21.6204 23.6663 21.4704 23.5163L19.4704 21.5163C19.1804 21.2263 19.1804 20.7463 19.4704 20.4563C19.7604 20.1663 20.2404 20.1663 20.5304 20.4563L22.5304 22.4563C22.8204 22.7463 22.8204 23.2263 22.5304 23.5163C22.3804 23.6663 22.1904 23.7363 22.0004 23.7363Z" fill="#16171D"/>
</svg>
