<svg width="20" height="20" viewBox="0 0 20 20" fill="none" xmlns="http://www.w3.org/2000/svg">
<path d="M9.99989 18.9583C9.79989 18.9583 9.5999 18.9334 9.40823 18.875C5.08323 17.6834 1.94989 13.6417 1.94989 9.25833V5.59998C1.94989 4.66665 2.6249 3.65836 3.49156 3.30002L8.13323 1.4C9.34157 0.908333 10.6666 0.908333 11.8666 1.4L16.5082 3.30002C17.3749 3.65836 18.0499 4.66665 18.0499 5.59998V9.25833C18.0499 13.6333 14.9082 17.675 10.5916 18.875C10.3999 18.9334 10.1999 18.9583 9.99989 18.9583ZM9.99989 2.29167C9.52489 2.29167 9.05822 2.38335 8.60822 2.56669L3.96657 4.46666C3.56657 4.63333 3.19989 5.17499 3.19989 5.60832V9.26667C3.19989 13.0917 5.94989 16.625 9.74156 17.675C9.90823 17.725 10.0916 17.725 10.2582 17.675C14.0499 16.625 16.7999 13.0917 16.7999 9.26667V5.60832C16.7999 5.17499 16.4332 4.63333 16.0332 4.46666L11.3916 2.56669C10.9416 2.38335 10.4749 2.29167 9.99989 2.29167Z" fill="#0A4751"/>
<path d="M9.99998 11.0413C8.73331 11.0413 7.70831 10.0163 7.70831 8.74967C7.70831 7.48301 8.73331 6.45801 9.99998 6.45801C11.2666 6.45801 12.2916 7.48301 12.2916 8.74967C12.2916 10.0163 11.2666 11.0413 9.99998 11.0413ZM9.99998 7.70801C9.42498 7.70801 8.95831 8.17467 8.95831 8.74967C8.95831 9.32467 9.42498 9.79134 9.99998 9.79134C10.575 9.79134 11.0416 9.32467 11.0416 8.74967C11.0416 8.17467 10.575 7.70801 9.99998 7.70801Z" fill="#0A4751"/>
<path d="M10 13.542C9.65833 13.542 9.375 13.2587 9.375 12.917V10.417C9.375 10.0753 9.65833 9.79199 10 9.79199C10.3417 9.79199 10.625 10.0753 10.625 10.417V12.917C10.625 13.2587 10.3417 13.542 10 13.542Z" fill="#0A4751"/>
</svg>
