<svg width="36" height="36" viewBox="0 0 36 36" fill="none" xmlns="http://www.w3.org/2000/svg">
<rect width="36" height="36" rx="18" fill="#0A4751"/>
<g clip-path="url(#clip0_1846_49884)">
<path d="M23.1753 17.6505L13.147 13.0221C12.9873 12.9496 12.7968 12.9928 12.6857 13.1301C12.5738 13.2674 12.57 13.4626 12.6764 13.6037L15.9742 18.0008L12.6764 22.3978C12.57 22.539 12.5738 22.7349 12.6849 22.8714C12.7597 22.9648 12.8716 23.0149 12.985 23.0149C13.0398 23.0149 13.0945 23.0034 13.1462 22.9794L23.1745 18.351C23.3118 18.2877 23.399 18.1512 23.399 18.0008C23.399 17.8503 23.3118 17.7138 23.1753 17.6505Z" fill="white"/>
</g>
<defs>
<clipPath id="clip0_1846_49884">
<rect width="10.8" height="10.8" fill="white" transform="translate(12.5996 12.6006)"/>
</clipPath>
</defs>
</svg>
