<svg width="20" height="20" viewBox="0 0 20 20" fill="none" xmlns="http://www.w3.org/2000/svg">
<path d="M10.0125 0.25C10.7465 0.25846 11.4776 0.343262 12.194 0.503038C12.5067 0.572785 12.7406 0.833511 12.7761 1.15196L12.9463 2.67881C13.0234 3.37986 13.6153 3.91084 14.3209 3.91158C14.5106 3.91188 14.6982 3.87238 14.8735 3.79483L16.2741 3.17956C16.5654 3.05159 16.9058 3.12136 17.1232 3.35362C18.1354 4.43464 18.8892 5.73115 19.328 7.14558C19.4226 7.45058 19.3137 7.78203 19.0567 7.9715L17.8152 8.88659C17.461 9.14679 17.2519 9.56001 17.2519 9.99946C17.2519 10.4389 17.461 10.8521 17.816 11.1129L19.0585 12.0283C19.3157 12.2177 19.4246 12.5492 19.33 12.8543C18.8914 14.2685 18.138 15.5649 17.1264 16.6461C16.9092 16.8783 16.5691 16.9483 16.2778 16.8206L14.8715 16.2045C14.4691 16.0284 14.0071 16.0542 13.6268 16.274C13.2466 16.4937 12.9936 16.8812 12.9453 17.3177L12.7762 18.8444C12.7413 19.1592 12.5125 19.4182 12.2043 19.4915C10.7559 19.8361 9.24679 19.8361 7.79834 19.4915C7.49021 19.4182 7.26135 19.1592 7.22649 18.8444L7.05767 17.32C7.00808 16.8843 6.75465 16.498 6.37473 16.279C5.99481 16.06 5.53351 16.0343 5.13251 16.2094L3.72588 16.8256C3.43453 16.9533 3.09434 16.8833 2.87709 16.6509C1.86493 15.5685 1.1115 14.2705 0.673506 12.8548C0.579167 12.5499 0.688167 12.2186 0.945151 12.0293L2.18848 11.1133C2.54262 10.8531 2.75178 10.4399 2.75178 10.0005C2.75178 9.56101 2.54262 9.14779 2.18802 8.88725L0.945467 7.97285C0.688101 7.78345 0.579001 7.45178 0.673673 7.14658C1.11242 5.73215 1.86625 4.43564 2.87843 3.35462C3.0959 3.12236 3.43624 3.05259 3.72755 3.18056L5.12793 3.79572C5.53087 3.97256 5.99411 3.94585 6.37608 3.72269C6.7564 3.50209 7.00959 3.11422 7.05847 2.67764L7.22855 1.15196C7.26407 0.83335 7.49817 0.572541 7.81111 0.502942C8.52838 0.34342 9.26026 0.258654 10.0125 0.25ZM10 6.99995C8.34315 6.99995 7 8.3431 7 9.99995C7 11.6568 8.34315 13 10 13C11.6569 13 13 11.6568 13 9.99995C13 8.3431 11.6569 6.99995 10 6.99995Z" fill="#242424"/>
</svg>
