<svg width="40" height="40" viewBox="0 0 40 40" fill="none" xmlns="http://www.w3.org/2000/svg">
<rect width="40" height="40" rx="20" fill="#D9EDFF"/>
<path d="M27 15.5C27 14.1193 25.8807 13 24.5 13H15.5C14.1193 13 13 14.1193 13 15.5V16H27V15.5ZM27 19.5997V17H13V24.5C13 25.8807 14.1193 27 15.5 27H19.5997C19.2163 26.2499 19 25.4002 19 24.5C19 21.4624 21.4624 19 24.5 19C25.4002 19 26.2499 19.2163 27 19.5997ZM29 24.5C29 26.9853 26.9853 29 24.5 29C22.0147 29 20 26.9853 20 24.5C20 22.0147 22.0147 20 24.5 20C26.9853 20 29 22.0147 29 24.5ZM26.8532 24.854L26.8557 24.8514C26.9026 24.804 26.938 24.7495 26.9621 24.6914C26.9861 24.6333 26.9996 24.5697 27 24.503L27 24.5L27 24.497C26.9996 24.4303 26.9861 24.3667 26.9621 24.3086C26.9377 24.2496 26.9015 24.1944 26.8536 24.1464L24.8536 22.1464C24.6583 21.9512 24.3417 21.9512 24.1464 22.1464C23.9512 22.3417 23.9512 22.6583 24.1464 22.8536L25.2929 24H22.5C22.2239 24 22 24.2239 22 24.5C22 24.7761 22.2239 25 22.5 25H25.2929L24.1464 26.1464C23.9512 26.3417 23.9512 26.6583 24.1464 26.8536C24.3417 27.0488 24.6583 27.0488 24.8536 26.8536L26.8532 24.854Z" fill="#3392FE"/>
</svg>
