<svg width="12" height="12" viewBox="0 0 12 12" fill="none" xmlns="http://www.w3.org/2000/svg">
<path d="M8.24497 11.375H3.74997C2.88997 11.375 2.24497 11.145 1.84497 10.69C1.44497 10.235 1.28996 9.575 1.39496 8.72L1.84497 4.97C1.97497 3.865 2.25497 2.875 4.20497 2.875H7.80497C9.74997 2.875 10.03 3.865 10.165 4.97L10.615 8.72C10.715 9.575 10.565 10.24 10.165 10.69C9.74997 11.145 9.10997 11.375 8.24497 11.375ZM4.19996 3.625C2.75996 3.625 2.68997 4.19499 2.58497 5.05499L2.13497 8.80499C2.05997 9.43999 2.14997 9.905 2.40497 10.19C2.65997 10.475 3.10997 10.62 3.74997 10.62H8.24497C8.88497 10.62 9.33496 10.475 9.58996 10.19C9.84496 9.905 9.93497 9.43999 9.85997 8.80499L9.40997 5.05499C9.30497 4.18999 9.23997 3.625 7.79497 3.625H4.19996Z" fill="white"/>
<path d="M8 4.375C7.795 4.375 7.625 4.205 7.625 4V2.25C7.625 1.71 7.29 1.375 6.75 1.375H5.25C4.71 1.375 4.375 1.71 4.375 2.25V4C4.375 4.205 4.205 4.375 4 4.375C3.795 4.375 3.625 4.205 3.625 4V2.25C3.625 1.295 4.295 0.625 5.25 0.625H6.75C7.705 0.625 8.375 1.295 8.375 2.25V4C8.375 4.205 8.205 4.375 8 4.375Z" fill="white"/>
<path d="M10.205 8.88965H4C3.795 8.88965 3.625 8.71965 3.625 8.51465C3.625 8.30965 3.795 8.13965 4 8.13965H10.205C10.41 8.13965 10.58 8.30965 10.58 8.51465C10.58 8.71965 10.41 8.88965 10.205 8.88965Z" fill="white"/>
</svg>
