<svg width="206" height="60" viewBox="0 0 206 60" fill="none" xmlns="http://www.w3.org/2000/svg">
    <path d="M26.6958 20.8845L16.7451 13.9015C14.6247 12.413 11.7073 13.93 11.7073 16.5205V40.06C11.7075 40.4453 11.6019 40.8231 11.4021 41.1524C11.2022 41.4818 10.9158 41.7499 10.574 41.9276C10.2322 42.1052 9.8482 42.1857 9.46384 42.1601C9.07948 42.1344 8.70953 42.0038 8.39434 41.7823L0 35.8897V40.9878L13.298 50.3191L26.2591 59.4141C28.3795 60.9017 31.2969 59.3848 31.2969 56.7942V33.7743C31.2969 31.8467 33.4701 30.7145 35.0499 31.8233L40.8327 35.8822L55.3853 46.0943C57.5066 47.5819 60.424 46.065 60.424 43.4744V20.4587C60.424 18.5311 62.5971 17.3997 64.1761 18.5077L72.138 24.0919V18.9938L55.822 7.54708V7.56804L45.8722 0.585888C43.7518 -0.901727 40.8344 0.615221 40.8344 3.20576V26.7344C40.8344 28.4382 38.9152 29.4355 37.5206 28.4567L26.6958 20.8845Z"
          fill="#F4BC1E"/>
    <path d="M43.7367 59.9999C47.4318 59.9999 50.4272 57.0045 50.4272 53.3095C50.4272 49.6144 47.4318 46.619 43.7367 46.619C40.0416 46.619 37.0462 49.6144 37.0462 53.3095C37.0462 57.0045 40.0416 59.9999 43.7367 59.9999Z"
          fill="#DEEBB8"/>
    <path d="M87.7483 50.2848V24.7565H93.8848V30.4446C95.2316 25.9432 97.4769 24.4103 101.069 24.4103C101.767 24.4103 102.815 24.609 103.416 24.7573V30.3466L100.771 30.2971C96.8324 30.2971 94.1857 33.2153 94.1857 38.409V50.2848H87.7483Z"
          fill="white"/>
    <path d="M103.509 37.5181C103.509 29.6535 108 24.2612 116.281 24.2612C124.613 24.2612 129.104 29.7029 129.104 37.2214C129.104 37.7654 129.054 38.2598 129.004 38.854H109.946C110.145 44.0502 112.64 46.422 116.581 46.422C119.774 46.422 121.869 44.8389 122.615 42.2173H128.552C127.454 47.4604 123.513 50.7751 116.579 50.7751C108.198 50.7751 103.509 45.5814 103.509 37.5181ZM109.946 34.6988H122.667C122.119 30.6424 119.824 28.6142 116.281 28.6142C112.738 28.6142 110.494 30.6424 109.946 34.6963V34.6988Z"
          fill="white"/>
    <path d="M137.482 50.2848L127.954 24.7565H134.688L141.374 44.6905L148.059 24.7565H154.796L145.265 50.2848H137.482Z"
          fill="white"/>
    <path d="M165.311 50.2848L155.782 24.7565H162.517L169.202 44.6905L175.888 24.7565H182.62L173.094 50.2848H165.311Z"
          fill="white"/>
    <path d="M181.274 43.0579C181.274 39.1507 183.621 36.0339 190.105 35.5394L195.343 35.0944C197.941 34.8471 198.686 34.1549 198.686 32.8189C198.686 30.2963 197.139 28.812 193.946 28.812C190.953 28.812 189.307 30.0985 189.057 32.8189H182.671C182.671 27.6228 185.963 24.2612 193.896 24.2612C201.829 24.2612 205.121 27.6253 205.121 32.8189V43.7477C205.121 47.2098 205.421 49.4358 205.919 50.2772H200.083C199.334 49.3369 198.985 48.2985 198.985 46.3198C197.538 49.238 194.944 50.7717 190.554 50.7717C184.517 50.7751 181.274 47.7571 181.274 43.0579ZM198.686 39.6946V37.9137C198.237 38.4576 197.039 38.7518 195.293 38.9035L192.25 39.1507C189.007 39.4474 187.71 40.7825 187.71 42.6137C187.71 44.8883 189.157 46.422 192.449 46.422C196.44 46.422 198.686 43.4049 198.686 39.6946Z"
          fill="white"/>
</svg>
