<svg width="94" height="26" viewBox="0 0 94 26" fill="none" xmlns="http://www.w3.org/2000/svg">
<path d="M11.526 25.34C9.146 25.34 7.16267 25.0113 5.576 24.354C4.012 23.674 2.83333 22.8013 2.04 21.736C1.26933 20.648 0.861333 19.5033 0.816 18.302C0.816 18.098 0.884 17.928 1.02 17.792C1.156 17.656 1.326 17.588 1.53 17.588H6.936C7.25333 17.588 7.50267 17.6447 7.684 17.758C7.86533 17.8487 8.058 17.9847 8.262 18.166C8.466 18.4153 8.704 18.6533 8.976 18.88C9.248 19.084 9.59933 19.254 10.03 19.39C10.4607 19.5033 10.9593 19.56 11.526 19.56C12.5687 19.56 13.3733 19.424 13.94 19.152C14.5067 18.8573 14.79 18.4607 14.79 17.962C14.79 17.5767 14.6313 17.2593 14.314 17.01C14.0193 16.7607 13.5093 16.534 12.784 16.33C12.0587 16.126 11.0727 15.9107 9.826 15.684C8.08067 15.3893 6.57333 14.9587 5.304 14.392C4.03467 13.8027 3.06 13.0207 2.38 12.046C1.72267 11.0487 1.394 9.82467 1.394 8.374C1.394 6.90067 1.802 5.59733 2.618 4.464C3.45667 3.33067 4.61267 2.44667 6.086 1.812C7.582 1.17733 9.316 0.859999 11.288 0.859999C12.92 0.859999 14.3593 1.07533 15.606 1.506C16.8753 1.93667 17.9407 2.50333 18.802 3.206C19.6633 3.886 20.3207 4.62267 20.774 5.416C21.2273 6.20933 21.4653 6.96867 21.488 7.694C21.488 7.898 21.4087 8.07933 21.25 8.238C21.114 8.374 20.9553 8.442 20.774 8.442H15.096C14.824 8.442 14.586 8.39667 14.382 8.306C14.2007 8.21533 14.0307 8.068 13.872 7.864C13.7587 7.54667 13.4753 7.26333 13.022 7.014C12.5687 6.76467 11.9907 6.64 11.288 6.64C10.5173 6.64 9.928 6.776 9.52 7.048C9.112 7.29733 8.908 7.67133 8.908 8.17C8.908 8.51 9.03267 8.80467 9.282 9.054C9.53133 9.30333 9.97333 9.53 10.608 9.734C11.2427 9.91533 12.1267 10.1193 13.26 10.346C15.4133 10.6633 17.1473 11.1167 18.462 11.706C19.7993 12.2953 20.774 13.066 21.386 14.018C21.998 14.97 22.304 16.16 22.304 17.588C22.304 19.1973 21.8393 20.58 20.91 21.736C19.9807 22.892 18.7 23.7873 17.068 24.422C15.4587 25.034 13.6113 25.34 11.526 25.34ZM26.1014 25C25.8747 25 25.6707 24.9207 25.4894 24.762C25.308 24.5807 25.2174 24.3653 25.2174 24.116V2.084C25.2174 1.83466 25.308 1.63066 25.4894 1.472C25.6707 1.29067 25.8747 1.2 26.1014 1.2H35.7914C38.874 1.2 41.288 1.90267 43.0334 3.308C44.8014 4.71333 45.6854 6.674 45.6854 9.19C45.6854 10.7767 45.3227 12.1253 44.5974 13.236C43.872 14.3467 42.92 15.2193 41.7414 15.854L46.1614 23.878C46.2294 24.014 46.2634 24.1387 46.2634 24.252C46.2634 24.456 46.1954 24.6373 46.0594 24.796C45.9234 24.932 45.7534 25 45.5494 25H39.8034C39.3727 25 39.044 24.898 38.8174 24.694C38.5907 24.4673 38.4434 24.2633 38.3754 24.082L34.9754 17.078H32.5274V24.116C32.5274 24.3653 32.4367 24.5807 32.2554 24.762C32.0967 24.9207 31.8927 25 31.6434 25H26.1014ZM32.5274 11.468H35.7574C36.5507 11.468 37.14 11.2527 37.5254 10.822C37.9107 10.3687 38.1034 9.81333 38.1034 9.156C38.1034 8.476 37.9107 7.898 37.5254 7.422C37.1627 6.946 36.5734 6.708 35.7574 6.708H32.5274V11.468ZM50.1404 25C49.9138 25 49.7098 24.9207 49.5284 24.762C49.3471 24.5807 49.2564 24.3653 49.2564 24.116V2.084C49.2564 1.83466 49.3471 1.63066 49.5284 1.472C49.7098 1.29067 49.9138 1.2 50.1404 1.2H66.8004C67.0498 1.2 67.2651 1.29067 67.4464 1.472C67.6278 1.63066 67.7184 1.83466 67.7184 2.084V6.096C67.7184 6.32267 67.6278 6.52667 67.4464 6.708C67.2651 6.88933 67.0498 6.98 66.8004 6.98H56.2944V10.346H66.0524C66.3018 10.346 66.5171 10.4367 66.6984 10.618C66.8798 10.7767 66.9704 10.9807 66.9704 11.23V14.902C66.9704 15.1513 66.8798 15.3667 66.6984 15.548C66.5171 15.7067 66.3018 15.786 66.0524 15.786H56.2944V19.22H67.0724C67.3218 19.22 67.5371 19.3107 67.7184 19.492C67.8998 19.6733 67.9904 19.8887 67.9904 20.138V24.116C67.9904 24.3653 67.8998 24.5807 67.7184 24.762C67.5371 24.9207 67.3218 25 67.0724 25H50.1404ZM70.2793 25C70.0753 25 69.9053 24.932 69.7693 24.796C69.6333 24.6373 69.5653 24.456 69.5653 24.252C69.5653 24.2067 69.5653 24.1613 69.5653 24.116C69.588 24.048 69.622 23.9687 69.6673 23.878L76.9433 12.828L70.3133 2.322C70.2227 2.186 70.1773 2.06133 70.1773 1.948C70.1773 1.744 70.2453 1.574 70.3813 1.438C70.54 1.27933 70.7213 1.2 70.9253 1.2H77.0793C77.4647 1.2 77.7593 1.302 77.9633 1.506C78.1673 1.71 78.3033 1.86867 78.3713 1.982L81.6013 7.15L84.9333 1.982C85.024 1.86867 85.1713 1.71 85.3753 1.506C85.5793 1.302 85.874 1.2 86.2593 1.2H92.1073C92.3113 1.2 92.4813 1.27933 92.6173 1.438C92.776 1.574 92.8553 1.744 92.8553 1.948C92.8553 2.084 92.8213 2.20866 92.7533 2.322L85.9873 12.76L93.3653 23.878C93.4107 23.9687 93.4333 24.048 93.4333 24.116C93.456 24.1613 93.4673 24.2067 93.4673 24.252C93.4673 24.456 93.388 24.6373 93.2293 24.796C93.0933 24.932 92.9347 25 92.7533 25H86.3613C85.976 25 85.6813 24.9093 85.4773 24.728C85.2733 24.524 85.1487 24.3653 85.1033 24.252L81.3633 18.71L77.7253 24.252C77.68 24.3653 77.5553 24.524 77.3513 24.728C77.1473 24.9093 76.8527 25 76.4673 25H70.2793Z" fill="#CB2449"/>
</svg>
