<svg width="148" height="40" viewBox="0 0 148 40" fill="none" xmlns="http://www.w3.org/2000/svg">
<path d="M17.306 39.54C13.526 39.54 10.376 39.018 7.856 37.974C5.372 36.894 3.5 35.508 2.24 33.816C1.016 32.088 0.368 30.27 0.296 28.362C0.296 28.038 0.404 27.768 0.62 27.552C0.836 27.336 1.106 27.228 1.43 27.228H10.016C10.52 27.228 10.916 27.318 11.204 27.498C11.492 27.642 11.798 27.858 12.122 28.146C12.446 28.542 12.824 28.92 13.256 29.28C13.688 29.604 14.246 29.874 14.93 30.09C15.614 30.27 16.406 30.36 17.306 30.36C18.962 30.36 20.24 30.144 21.14 29.712C22.04 29.244 22.49 28.614 22.49 27.822C22.49 27.21 22.238 26.706 21.734 26.31C21.266 25.914 20.456 25.554 19.304 25.23C18.152 24.906 16.586 24.564 14.606 24.204C11.834 23.736 9.44 23.052 7.424 22.152C5.408 21.216 3.86 19.974 2.78 18.426C1.736 16.842 1.214 14.898 1.214 12.594C1.214 10.254 1.862 8.184 3.158 6.384C4.49 4.584 6.326 3.18 8.666 2.172C11.042 1.164 13.796 0.659998 16.928 0.659998C19.52 0.659998 21.806 1.002 23.786 1.686C25.802 2.37 27.494 3.27 28.862 4.386C30.23 5.466 31.274 6.636 31.994 7.896C32.714 9.156 33.092 10.362 33.128 11.514C33.128 11.838 33.002 12.126 32.75 12.378C32.534 12.594 32.282 12.702 31.994 12.702H22.976C22.544 12.702 22.166 12.63 21.842 12.486C21.554 12.342 21.284 12.108 21.032 11.784C20.852 11.28 20.402 10.83 19.682 10.434C18.962 10.038 18.044 9.84 16.928 9.84C15.704 9.84 14.768 10.056 14.12 10.488C13.472 10.884 13.148 11.478 13.148 12.27C13.148 12.81 13.346 13.278 13.742 13.674C14.138 14.07 14.84 14.43 15.848 14.754C16.856 15.042 18.26 15.366 20.06 15.726C23.48 16.23 26.234 16.95 28.322 17.886C30.446 18.822 31.994 20.046 32.966 21.558C33.938 23.07 34.424 24.96 34.424 27.228C34.424 29.784 33.686 31.98 32.21 33.816C30.734 35.652 28.7 37.074 26.108 38.082C23.552 39.054 20.618 39.54 17.306 39.54ZM40.4551 39C40.0951 39 39.7711 38.874 39.4831 38.622C39.1951 38.334 39.0511 37.992 39.0511 37.596V2.604C39.0511 2.208 39.1951 1.884 39.4831 1.632C39.7711 1.344 40.0951 1.2 40.4551 1.2H55.8451C60.7411 1.2 64.5751 2.316 67.3471 4.548C70.1551 6.78 71.5591 9.894 71.5591 13.89C71.5591 16.41 70.9831 18.552 69.8311 20.316C68.6791 22.08 67.1671 23.466 65.2951 24.474L72.3151 37.218C72.4231 37.434 72.4771 37.632 72.4771 37.812C72.4771 38.136 72.3691 38.424 72.1531 38.676C71.9371 38.892 71.6671 39 71.3431 39H62.2171C61.5331 39 61.0111 38.838 60.6511 38.514C60.2911 38.154 60.0571 37.83 59.9491 37.542L54.5491 26.418H50.6611V37.596C50.6611 37.992 50.5171 38.334 50.2291 38.622C49.9771 38.874 49.6531 39 49.2571 39H40.4551ZM50.6611 17.508H55.7911C57.0511 17.508 57.9871 17.166 58.5991 16.482C59.2111 15.762 59.5171 14.88 59.5171 13.836C59.5171 12.756 59.2111 11.838 58.5991 11.082C58.0231 10.326 57.0871 9.948 55.7911 9.948H50.6611V17.508ZM78.6348 39C78.2748 39 77.9508 38.874 77.6628 38.622C77.3748 38.334 77.2308 37.992 77.2308 37.596V2.604C77.2308 2.208 77.3748 1.884 77.6628 1.632C77.9508 1.344 78.2748 1.2 78.6348 1.2H105.095C105.491 1.2 105.833 1.344 106.121 1.632C106.409 1.884 106.553 2.208 106.553 2.604V8.976C106.553 9.336 106.409 9.66 106.121 9.948C105.833 10.236 105.491 10.38 105.095 10.38H88.4088V15.726H103.907C104.303 15.726 104.645 15.87 104.933 16.158C105.221 16.41 105.365 16.734 105.365 17.13V22.962C105.365 23.358 105.221 23.7 104.933 23.988C104.645 24.24 104.303 24.366 103.907 24.366H88.4088V29.82H105.527C105.923 29.82 106.265 29.964 106.553 30.252C106.841 30.54 106.985 30.882 106.985 31.278V37.596C106.985 37.992 106.841 38.334 106.553 38.622C106.265 38.874 105.923 39 105.527 39H78.6348ZM110.62 39C110.296 39 110.026 38.892 109.81 38.676C109.594 38.424 109.486 38.136 109.486 37.812C109.486 37.74 109.486 37.668 109.486 37.596C109.522 37.488 109.576 37.362 109.648 37.218L121.204 19.668L110.674 2.982C110.53 2.766 110.458 2.568 110.458 2.388C110.458 2.064 110.566 1.794 110.782 1.578C111.034 1.326 111.322 1.2 111.646 1.2H121.42C122.032 1.2 122.5 1.362 122.824 1.686C123.148 2.01 123.364 2.262 123.472 2.442L128.602 10.65L133.894 2.442C134.038 2.262 134.272 2.01 134.596 1.686C134.92 1.362 135.388 1.2 136 1.2H145.288C145.612 1.2 145.882 1.326 146.098 1.578C146.35 1.794 146.476 2.064 146.476 2.388C146.476 2.604 146.422 2.802 146.314 2.982L135.568 19.56L147.286 37.218C147.358 37.362 147.394 37.488 147.394 37.596C147.43 37.668 147.448 37.74 147.448 37.812C147.448 38.136 147.322 38.424 147.07 38.676C146.854 38.892 146.602 39 146.314 39H136.162C135.55 39 135.082 38.856 134.758 38.568C134.434 38.244 134.236 37.992 134.164 37.812L128.224 29.01L122.446 37.812C122.374 37.992 122.176 38.244 121.852 38.568C121.528 38.856 121.06 39 120.448 39H110.62Z" fill="white"/>
</svg>
