<svg width="16" height="17" viewBox="0 0 16 17" fill="none" xmlns="http://www.w3.org/2000/svg">
<path d="M2.49342 2.5C1.665 2.5 0.993423 3.17157 0.993423 4V9C0.993423 9.82843 1.665 10.5 2.49342 10.5H9.49342C10.3219 10.5 10.9934 9.82843 10.9934 9V4C10.9934 3.17157 10.3219 2.5 9.49342 2.5H2.49342ZM6.41364 4.22903L7.04763 5.21217L8.08739 5.41108C8.2717 5.44634 8.42076 5.58184 8.47338 5.76197C8.526 5.9421 8.47333 6.13652 8.33698 6.26546L7.56152 6.99878L7.972 8.35517C8.03246 8.55493 7.96247 8.77123 7.79646 8.89771C7.63045 9.0242 7.40334 9.03427 7.22679 8.92296L5.99344 8.14542L4.76009 8.92296C4.58354 9.03427 4.35642 9.0242 4.19041 8.89771C4.0244 8.77123 3.95442 8.55493 4.01487 8.35517L4.42536 6.99878L3.64989 6.26546C3.51355 6.13652 3.46088 5.9421 3.5135 5.76197C3.56612 5.58184 3.71517 5.44634 3.89949 5.41108L4.93924 5.21217L5.57323 4.22903C5.6653 4.08626 5.82356 4 5.99344 4C6.16332 4 6.32158 4.08626 6.41364 4.22903ZM3.07875 11.5C3.28467 12.0826 3.84029 12.5 4.4934 12.5H9.9934C11.6503 12.5 12.9934 11.1568 12.9934 9.49997V5.99997C12.9934 5.34686 12.576 4.79125 11.9934 4.58533V9.49997C11.9934 10.6045 11.098 11.5 9.9934 11.5H3.07875ZM5.07875 13.5C5.28467 14.0826 5.84029 14.5 6.4934 14.5H10.4934C12.9787 14.5 14.9934 12.4853 14.9934 9.99997V7.99997C14.9934 7.34686 14.576 6.79125 13.9934 6.58533V9.99997C13.9934 11.933 12.4264 13.5 10.4934 13.5H5.07875Z" fill="#3392FE"/>
</svg>
