<svg width="40" height="40" viewBox="0 0 40 40" fill="none" xmlns="http://www.w3.org/2000/svg">
<rect width="40" height="40" rx="20" fill="#EFE8FF"/>
<path d="M21 13.5C21 13.3542 20.9364 13.2157 20.8257 13.1207C20.7151 13.0257 20.5686 12.9837 20.4244 13.0057L13.4244 14.0757C13.1803 14.1131 13 14.323 13 14.57V25.43C13 25.6769 13.1803 25.8869 13.4244 25.9243L20.4244 26.9953C20.5685 27.0173 20.7151 26.9754 20.8257 26.8804C20.9363 26.7854 21 26.6468 21 26.501V20L26.1722 20L25.1753 20.8737C24.9679 21.0556 24.9468 21.3714 25.1284 21.5793C25.3099 21.7871 25.6253 21.8081 25.8328 21.6263L27.8295 19.8763C27.9379 19.7814 28 19.6442 28 19.5C28 19.3558 27.9379 19.2187 27.8295 19.1237L25.8328 17.3737C25.6253 17.1919 25.3099 17.2129 25.1284 17.4208C24.9468 17.6286 24.9679 17.9445 25.1753 18.1263L26.1723 19L21 19V13.5ZM18.5 21.25C18.0858 21.25 17.75 20.9142 17.75 20.5C17.75 20.0858 18.0858 19.75 18.5 19.75C18.9142 19.75 19.25 20.0858 19.25 20.5C19.25 20.9142 18.9142 21.25 18.5 21.25ZM22.5 26H22V21H23V25.5C23 25.7761 22.7761 26 22.5 26ZM22 18V14H22.5C22.7761 14 23 14.2239 23 14.5V18H22Z" fill="#9747FF"/>
</svg>
