<svg width="44" height="44" viewBox="0 0 44 44" fill="none" xmlns="http://www.w3.org/2000/svg">
<rect width="44" height="44" rx="22" fill="#FCE8D8"/>
<path d="M22 14C26.4183 14 30 17.5817 30 22C30 26.4183 26.4183 30 22 30C17.5817 30 14 26.4183 14 22C14 17.5817 17.5817 14 22 14ZM21.5 17C21.2239 17 21 17.2239 21 17.5V22.5L21.0081 22.5899C21.0504 22.8231 21.2545 23 21.5 23H24.5L24.5899 22.9919C24.8231 22.9496 25 22.7455 25 22.5C25 22.2239 24.7761 22 24.5 22H22V17.5L21.9919 17.4101C21.9496 17.1769 21.7455 17 21.5 17Z" fill="#EA642F"/>
</svg>
