<svg width="16" height="16" viewBox="0 0 16 16" fill="none" xmlns="http://www.w3.org/2000/svg">
<path d="M11.5866 13.8331H7.27332C6.99998 13.8331 6.77332 13.6065 6.77332 13.3331C6.77332 13.0598 6.99998 12.8331 7.27332 12.8331H11.5866C13.6266 12.8331 14.1066 12.4998 14.16 10.6865C13.28 10.4598 12.6266 9.65981 12.6266 8.71314C12.6266 7.75981 13.28 6.95314 14.1666 6.72648V6.55314C14.1666 4.35981 13.78 3.97314 11.5866 3.97314H7.83332V7.99981C7.83332 8.27314 7.60665 8.49981 7.33332 8.49981C7.05998 8.49981 6.83332 8.27314 6.83332 7.99981V3.47314C6.83332 3.19981 7.05998 2.97314 7.33332 2.97314H11.5866C14.3333 2.97314 15.1666 3.80648 15.1666 6.55314V7.16648C15.1666 7.43981 14.94 7.66648 14.6666 7.66648C14.0933 7.66648 13.6266 8.13314 13.6266 8.71314C13.6266 9.28648 14.0933 9.75314 14.6666 9.75314C14.94 9.75314 15.1666 9.97981 15.1666 10.2531C15.1666 12.9998 14.3333 13.8331 11.5866 13.8331Z" fill="#16171D"/>
<path d="M7.33332 13.8335H5.48665C4.13999 13.8335 3.44665 12.8201 2.81332 11.3001L2.68665 10.9935C2.63999 10.8735 2.63999 10.7335 2.69332 10.6135C2.74665 10.4935 2.84665 10.3935 2.96665 10.3468C3.23332 10.2401 3.43999 10.0335 3.55332 9.77348C3.66665 9.50681 3.66665 9.21348 3.55332 8.94681C3.33332 8.38681 2.69999 8.12681 2.13999 8.34681C2.01332 8.40014 1.87999 8.39348 1.75332 8.34014C1.63332 8.28681 1.53332 8.18681 1.48665 8.06681L1.37332 7.78014C0.306652 5.18681 0.773319 4.07348 3.36665 3.00014L5.12665 2.28014C5.37999 2.17348 5.67332 2.30014 5.77999 2.55348L7.79999 7.44681C7.82665 7.50681 7.83999 7.57348 7.83999 7.64014V9.33348C7.83999 9.60681 7.61332 9.83348 7.33999 9.83348C7.06665 9.83348 6.83999 9.60681 6.83999 9.33348V7.73348L5.03999 3.39348L3.74665 3.92681C1.69332 4.77348 1.44665 5.29348 2.25332 7.29348C3.17999 7.16014 4.11332 7.66014 4.47999 8.56014C4.69332 9.07348 4.69332 9.64014 4.47332 10.1535C4.32665 10.5068 4.08665 10.8068 3.77999 11.0268C4.41999 12.5335 4.88665 12.8335 5.47999 12.8335H6.82665V11.3335C6.82665 11.0601 7.05332 10.8335 7.32665 10.8335C7.59999 10.8335 7.82665 11.0601 7.82665 11.3335V13.3335C7.83332 13.6068 7.60665 13.8335 7.33332 13.8335Z" fill="#16171D"/>
<path d="M5.44665 13.8335H5.33331C5.05998 13.8335 4.83331 13.6068 4.83331 13.3335C4.83331 13.0602 5.05998 12.8335 5.33331 12.8335H5.44665C5.71998 12.8335 5.94665 13.0602 5.94665 13.3335C5.94665 13.6068 5.71998 13.8335 5.44665 13.8335Z" fill="#16171D"/>
</svg>
