<svg width="29" height="32" viewBox="0 0 29 32" fill="none" xmlns="http://www.w3.org/2000/svg">
<g clip-path="url(#clip0_9145_28055)">
<path d="M20.9346 11.5229C22.9957 12.9954 25.5206 13.8618 28.2475 13.8618V8.61715C27.7314 8.61726 27.2167 8.56341 26.7117 8.45649V12.5848C23.985 12.5848 21.4604 11.7185 19.399 10.2461V20.9491C19.399 26.3033 15.0562 30.6434 9.69966 30.6434C7.70099 30.6434 5.84322 30.0395 4.30005 29.0037C6.06137 30.8037 8.51765 31.9203 11.235 31.9203C16.592 31.9203 20.9349 27.5802 20.9349 22.2258V11.5229H20.9346ZM22.8293 6.23161C21.7759 5.08148 21.0843 3.59514 20.9346 1.95188V1.27734H19.4793C19.8456 3.36584 21.0953 5.15012 22.8293 6.23161ZM7.68808 24.8951C7.0996 24.124 6.78149 23.1805 6.78292 22.2104C6.78292 19.7616 8.76924 17.7761 11.2199 17.7761C11.6765 17.7759 12.1305 17.846 12.5658 17.9839V12.6219C12.0571 12.5523 11.5437 12.5226 11.0306 12.5335V16.707C10.5951 16.5689 10.141 16.4989 9.6841 16.4993C7.23357 16.4993 5.24736 18.4846 5.24736 20.9337C5.24736 22.6655 6.24013 24.1647 7.68808 24.8951Z" fill="#FF004F"/>
<path d="M19.3989 10.246C21.4605 11.7184 23.9849 12.5847 26.7117 12.5847V8.45638C25.1896 8.1323 23.8422 7.33737 22.8291 6.23161C21.095 5.15001 19.8456 3.36573 19.4793 1.27734H15.6566V22.2255C15.6479 24.6677 13.665 26.6451 11.2196 26.6451C9.77873 26.6451 8.49851 25.9586 7.68781 24.895C6.24009 24.1647 5.2472 22.6654 5.2472 20.9338C5.2472 18.485 7.23341 16.4994 9.68395 16.4994C10.1535 16.4994 10.606 16.5725 11.0305 16.7071V12.5336C5.76792 12.6423 1.53564 16.94 1.53564 22.2256C1.53564 24.8642 2.58955 27.2562 4.30011 29.0039C5.84329 30.0395 7.70094 30.6436 9.69973 30.6436C15.0564 30.6436 19.399 26.3032 19.399 20.9491V10.2461L19.3989 10.246Z" fill="black"/>
<path d="M26.7117 8.45572V7.3397C25.3391 7.34178 23.9937 6.95759 22.8291 6.23106C23.86 7.35902 25.2174 8.13686 26.7117 8.45595M19.4792 1.27669C19.4443 1.07714 19.4175 0.87626 19.3988 0.674538V0H14.1206V20.9484C14.1122 23.3903 12.1293 25.3677 9.68386 25.3677C8.99059 25.3688 8.3068 25.2067 7.68772 24.8947C8.49843 25.9581 9.77865 26.6444 11.2195 26.6444C13.6648 26.6444 15.6479 24.6673 15.6565 22.2251V1.2768H19.4792M11.0307 12.533V11.3447C10.5897 11.2844 10.145 11.2542 9.69986 11.2544C4.34262 11.2544 0 15.5947 0 20.9484C0 24.305 1.7067 27.2631 4.30025 29.0031C2.58968 27.2555 1.53578 24.8634 1.53578 22.225C1.53578 16.9395 5.76795 12.6417 11.0307 12.533Z" fill="#00F2EA"/>
</g>
<defs>
<clipPath id="clip0_9145_28055">
<rect width="28.2483" height="32" fill="white"/>
</clipPath>
</defs>
</svg>
