<svg width="32" height="32" viewBox="0 0 32 32" fill="none" xmlns="http://www.w3.org/2000/svg">
<path d="M23.3997 12.233L28.0997 7.49967C28.3663 7.23301 28.6832 7.09967 29.0503 7.09967C29.4175 7.09967 29.7339 7.23301 29.9997 7.49967C30.2663 7.76634 30.3997 8.08323 30.3997 8.45034C30.3997 8.81745 30.2663 9.1339 29.9997 9.39967L24.333 15.0663C24.0663 15.333 23.7552 15.4663 23.3997 15.4663C23.0441 15.4663 22.733 15.333 22.4663 15.0663L19.633 12.233C19.3663 11.9663 19.233 11.6495 19.233 11.2823C19.233 10.9152 19.3663 10.5988 19.633 10.333C19.8997 10.0663 20.2108 9.93301 20.5663 9.93301C20.9219 9.93301 21.233 10.0663 21.4997 10.333L23.3997 12.233ZM11.9997 15.9997C10.533 15.9997 9.27746 15.4775 8.23301 14.433C7.18857 13.3886 6.66634 12.133 6.66634 10.6663C6.66634 9.19967 7.18857 7.94412 8.23301 6.89967C9.27746 5.85523 10.533 5.33301 11.9997 5.33301C13.4663 5.33301 14.7219 5.85523 15.7663 6.89967C16.8108 7.94412 17.333 9.19967 17.333 10.6663C17.333 12.133 16.8108 13.3886 15.7663 14.433C14.7219 15.4775 13.4663 15.9997 11.9997 15.9997ZM1.33301 23.9997V22.933C1.33301 22.1775 1.52768 21.4828 1.91701 20.849C2.30634 20.2152 2.82279 19.7321 3.46634 19.3997C4.84412 18.7108 6.24412 18.1939 7.66634 17.849C9.08857 17.5041 10.533 17.3321 11.9997 17.333C13.4663 17.333 14.9108 17.5055 16.333 17.8503C17.7552 18.1952 19.1552 18.7117 20.533 19.3997C21.1775 19.733 21.6943 20.2166 22.0837 20.8503C22.473 21.4841 22.6672 22.1783 22.6663 22.933V23.9997C22.6663 24.733 22.405 25.361 21.8823 25.8837C21.3597 26.4063 20.7321 26.6672 19.9997 26.6663H3.99968C3.26634 26.6663 2.63834 26.405 2.11568 25.8823C1.59301 25.3597 1.33212 24.7321 1.33301 23.9997Z" fill="#F3BB36"/>
</svg>
