<svg width="32" height="32" viewBox="0 0 32 32" fill="none" xmlns="http://www.w3.org/2000/svg">
<path d="M23.9997 14.6663H21.333C20.9552 14.6663 20.6383 14.5383 20.3823 14.2823C20.1263 14.0263 19.9988 13.7099 19.9997 13.333C19.9997 12.9552 20.1277 12.6383 20.3837 12.3823C20.6397 12.1263 20.9561 11.9988 21.333 11.9997H23.9997V9.33301C23.9997 8.95523 24.1277 8.63834 24.3837 8.38234C24.6397 8.12634 24.9561 7.99879 25.333 7.99967C25.7108 7.99967 26.0277 8.12767 26.2837 8.38367C26.5397 8.63967 26.6672 8.95612 26.6663 9.33301V11.9997H29.333C29.7108 11.9997 30.0277 12.1277 30.2837 12.3837C30.5397 12.6397 30.6672 12.9561 30.6663 13.333C30.6663 13.7108 30.5383 14.0277 30.2823 14.2837C30.0263 14.5397 29.7099 14.6672 29.333 14.6663H26.6663V17.333C26.6663 17.7108 26.5383 18.0277 26.2823 18.2837C26.0263 18.5397 25.7099 18.6672 25.333 18.6663C24.9552 18.6663 24.6383 18.5383 24.3823 18.2823C24.1263 18.0263 23.9988 17.7099 23.9997 17.333V14.6663ZM11.9997 15.9997C10.533 15.9997 9.27746 15.4775 8.23301 14.433C7.18857 13.3886 6.66634 12.133 6.66634 10.6663C6.66634 9.19967 7.18857 7.94412 8.23301 6.89967C9.27746 5.85523 10.533 5.33301 11.9997 5.33301C13.4663 5.33301 14.7219 5.85523 15.7663 6.89967C16.8108 7.94412 17.333 9.19967 17.333 10.6663C17.333 12.133 16.8108 13.3886 15.7663 14.433C14.7219 15.4775 13.4663 15.9997 11.9997 15.9997ZM1.33301 23.9997V22.933C1.33301 22.1775 1.52768 21.4828 1.91701 20.849C2.30634 20.2152 2.82279 19.7321 3.46634 19.3997C4.84412 18.7108 6.24412 18.1939 7.66634 17.849C9.08857 17.5041 10.533 17.3321 11.9997 17.333C13.4663 17.333 14.9108 17.5055 16.333 17.8503C17.7552 18.1952 19.1552 18.7117 20.533 19.3997C21.1775 19.733 21.6943 20.2166 22.0837 20.8503C22.473 21.4841 22.6672 22.1783 22.6663 22.933V23.9997C22.6663 24.733 22.405 25.361 21.8823 25.8837C21.3597 26.4063 20.7321 26.6672 19.9997 26.6663H3.99968C3.26634 26.6663 2.63834 26.405 2.11568 25.8823C1.59301 25.3597 1.33212 24.7321 1.33301 23.9997Z" fill="#F3BB36"/>
</svg>
