<svg width="14" height="15" viewBox="0 0 14 15" fill="none" xmlns="http://www.w3.org/2000/svg">
    <path d="M13.3733 6.65988L12.4667 5.60654C12.2933 5.40654 12.1533 5.03321 12.1533 4.76654V3.63321C12.1533 2.92654 11.5733 2.34654 10.8667 2.34654H9.73334C9.47334 2.34654 9.09334 2.20654 8.89334 2.03321L7.84 1.12654C7.38 0.73321 6.62667 0.73321 6.16 1.12654L5.11334 2.03988C4.91334 2.20654 4.53334 2.34654 4.27334 2.34654H3.12C2.41334 2.34654 1.83334 2.92654 1.83334 3.63321V4.77321C1.83334 5.03321 1.69334 5.40654 1.52667 5.60654L0.62667 6.66654C0.240003 7.12654 0.240003 7.87321 0.62667 8.33321L1.52667 9.39321C1.69334 9.59321 1.83334 9.96654 1.83334 10.2265V11.3665C1.83334 12.0732 2.41334 12.6532 3.12 12.6532H4.27334C4.53334 12.6532 4.91334 12.7932 5.11334 12.9665L6.16667 13.8732C6.62667 14.2665 7.38 14.2665 7.84667 13.8732L8.9 12.9665C9.1 12.7932 9.47334 12.6532 9.74 12.6532H10.8733C11.58 12.6532 12.16 12.0732 12.16 11.3665V10.2332C12.16 9.97321 12.3 9.59321 12.4733 9.39321L13.38 8.33988C13.7667 7.87988 13.7667 7.11988 13.3733 6.65988ZM9.77334 6.23988L6.55334 9.45988C6.46 9.55321 6.33334 9.60654 6.2 9.60654C6.06667 9.60654 5.94 9.55321 5.84667 9.45988L4.23334 7.84654C4.04 7.65321 4.04 7.33321 4.23334 7.13988C4.42667 6.94654 4.74667 6.94654 4.94 7.13988L6.2 8.39988L9.06667 5.53321C9.26 5.33988 9.58 5.33988 9.77334 5.53321C9.96667 5.72654 9.96667 6.04654 9.77334 6.23988Z"
          fill="#3CC13B"/>
</svg>
