<svg width="20" height="20" viewBox="0 0 20 20" fill="none" xmlns="http://www.w3.org/2000/svg">
    <path d="M10.7337 17.3834H5.67533C2.71699 17.3834 1.66699 15.3084 1.66699 13.375V6.62503C1.66699 3.7417 2.79199 2.6167 5.67533 2.6167H10.7337C13.617 2.6167 14.742 3.7417 14.742 6.62503V13.375C14.742 16.2584 13.617 17.3834 10.7337 17.3834ZM5.67533 3.88337C3.50033 3.88337 2.93366 4.45003 2.93366 6.62503V13.375C2.93366 14.4 3.29199 16.1167 5.67533 16.1167H10.7337C12.9087 16.1167 13.4753 15.55 13.4753 13.375V6.62503C13.4753 4.45003 12.9087 3.88337 10.7337 3.88337H5.67533V3.88337Z"
          fill="#0A4751"/>
    <path d="M17.3167 15.0916C16.9584 15.0916 16.5001 14.9749 15.9751 14.6082L13.7501 13.0499C13.5834 12.9332 13.4834 12.7416 13.4834 12.5332V7.46658C13.4834 7.25825 13.5834 7.06658 13.7501 6.94991L15.9751 5.39158C16.9667 4.69991 17.6917 4.89991 18.0334 5.07491C18.3751 5.25825 18.9584 5.73325 18.9584 6.94158V13.0499C18.9584 14.2582 18.3751 14.7416 18.0334 14.9166C17.8751 15.0082 17.6251 15.0916 17.3167 15.0916ZM14.7417 12.1999L16.7001 13.5666C17.0751 13.8249 17.3417 13.8499 17.4501 13.7916C17.5667 13.7332 17.6917 13.4999 17.6917 13.0499V6.94991C17.6917 6.49158 17.5584 6.26658 17.4501 6.20825C17.3417 6.14991 17.0751 6.17491 16.7001 6.43325L14.7417 7.79991V12.1999Z"
          fill="#0A4751"/>
    <path d="M9.58301 9.7915C8.54967 9.7915 7.70801 8.94984 7.70801 7.9165C7.70801 6.88317 8.54967 6.0415 9.58301 6.0415C10.6163 6.0415 11.458 6.88317 11.458 7.9165C11.458 8.94984 10.6163 9.7915 9.58301 9.7915ZM9.58301 7.2915C9.24134 7.2915 8.95801 7.57484 8.95801 7.9165C8.95801 8.25817 9.24134 8.5415 9.58301 8.5415C9.92467 8.5415 10.208 8.25817 10.208 7.9165C10.208 7.57484 9.92467 7.2915 9.58301 7.2915Z"
          fill="#0A4751"/>
</svg>
