<svg width="70" height="70" viewBox="0 0 70 70" fill="none" xmlns="http://www.w3.org/2000/svg">
<rect width="70" height="70" rx="4" fill="#0A4751"/>
<rect opacity="0.2" x="8" y="8" width="54" height="54" fill="white" fill-opacity="0.2"/>
<g clip-path="url(#clip0_9136_59685)">
<path fill-rule="evenodd" clip-rule="evenodd" d="M25 23.75C24.337 23.75 23.7011 24.0134 23.2322 24.4822C22.7634 24.9511 22.5 25.587 22.5 26.25V43.75C22.5 44.413 22.7634 45.0489 23.2322 45.5178C23.7011 45.9866 24.337 46.25 25 46.25H45C45.663 46.25 46.2989 45.9866 46.7678 45.5178C47.2366 45.0489 47.5 44.413 47.5 43.75V26.25C47.5 25.587 47.2366 24.9511 46.7678 24.4822C46.2989 24.0134 45.663 23.75 45 23.75H25ZM30.7812 30.7875C30.809 30.5485 30.8922 30.3193 31.0242 30.1182C31.1563 29.9171 31.3335 29.7496 31.5418 29.6292C31.75 29.5087 31.9835 29.4386 32.2237 29.4244C32.4639 29.4102 32.704 29.4524 32.925 29.5475C33.555 29.8175 34.885 30.425 36.57 31.3975C37.7537 32.0751 38.8973 32.8205 39.995 33.63C40.1879 33.7735 40.3446 33.9602 40.4525 34.1751C40.5605 34.3899 40.6167 34.627 40.6167 34.8675C40.6167 35.108 40.5605 35.3451 40.4525 35.5599C40.3446 35.7748 40.1879 35.9615 39.995 36.105C38.8973 36.9137 37.7537 37.6583 36.57 38.335C35.3917 39.0222 34.1747 39.6407 32.925 40.1875C32.704 40.2829 32.4638 40.3252 32.2236 40.3112C31.9833 40.2971 31.7497 40.227 31.5413 40.1065C31.333 39.986 31.1558 39.8185 31.0238 39.6172C30.8918 39.4159 30.8087 39.1866 30.7812 38.9475C30.6301 37.5928 30.5566 36.2306 30.5613 34.8675C30.5613 32.9288 30.7013 31.4688 30.7812 30.7875Z" fill="white"/>
</g>
<defs>
<clipPath id="clip0_9136_59685">
<rect width="30" height="30" fill="white" transform="translate(20 20)"/>
</clipPath>
</defs>
</svg>
