<svg width="20" height="20" viewBox="0 0 20 20" fill="none" xmlns="http://www.w3.org/2000/svg">
    <path d="M10.4587 17.1583C9.80033 17.1583 9.07533 16.925 8.35033 16.4667L5.91699 14.9417C5.75033 14.8417 5.55866 14.7833 5.36699 14.7833H4.16699C2.15033 14.7833 1.04199 13.675 1.04199 11.6583V8.32501C1.04199 6.30834 2.15033 5.20001 4.16699 5.20001H5.35866C5.55033 5.20001 5.74199 5.14167 5.90866 5.04167L8.34199 3.51667C9.55866 2.75834 10.742 2.61667 11.6753 3.13334C12.6087 3.65001 13.117 4.72501 13.117 6.16667V13.8083C13.117 15.2417 12.6003 16.325 11.6753 16.8417C11.3087 17.0583 10.892 17.1583 10.4587 17.1583ZM4.16699 6.45834C2.85033 6.45834 2.29199 7.01667 2.29199 8.33334V11.6667C2.29199 12.9833 2.85033 13.5417 4.16699 13.5417H5.35866C5.79199 13.5417 6.20866 13.6583 6.57533 13.8917L9.00866 15.4167C9.80866 15.9167 10.567 16.05 11.0753 15.7667C11.5837 15.4833 11.8753 14.775 11.8753 13.8333V6.17501C11.8753 5.22501 11.5837 4.51667 11.0753 4.24167C10.567 3.95834 9.80866 4.08334 9.00866 4.59167L6.56699 6.10834C6.20866 6.34167 5.78366 6.45834 5.35866 6.45834H4.16699Z"
          fill="#0A4751"/>
    <path d="M15.0002 13.9584C14.8669 13.9584 14.7419 13.9167 14.6252 13.8334C14.3502 13.6251 14.2919 13.2334 14.5002 12.9584C15.8086 11.2167 15.8086 8.7834 14.5002 7.04173C14.2919 6.76673 14.3502 6.37506 14.6252 6.16673C14.9002 5.9584 15.2919 6.01673 15.5002 6.29173C17.1336 8.47506 17.1336 11.5251 15.5002 13.7084C15.3752 13.8751 15.1919 13.9584 15.0002 13.9584Z"
          fill="#0A4751"/>
    <path d="M16.5246 16.0416C16.3913 16.0416 16.2663 15.9999 16.1496 15.9166C15.8746 15.7082 15.8163 15.3166 16.0246 15.0416C18.2496 12.0749 18.2496 7.9249 16.0246 4.95823C15.8163 4.68323 15.8746 4.29157 16.1496 4.08324C16.4246 3.8749 16.8163 3.93324 17.0246 4.20824C19.583 7.61657 19.583 12.3832 17.0246 15.7916C16.908 15.9582 16.7163 16.0416 16.5246 16.0416Z"
          fill="#0A4751"/>
</svg>
