<svg width="98" height="78" viewBox="0 0 98 78" fill="none" xmlns="http://www.w3.org/2000/svg">
<path d="M0 16.25C0 12.0728 1.65937 8.06677 4.61307 5.11307C7.56677 2.15937 11.5728 0.5 15.75 0.5H82.25C86.4272 0.5 90.4332 2.15937 93.3869 5.11307C96.3406 8.06677 98 12.0728 98 16.25V61.75C98 65.9272 96.3406 69.9332 93.3869 72.8869C90.4332 75.8406 86.4272 77.5 82.25 77.5H15.75C11.5728 77.5 7.56677 75.8406 4.61307 72.8869C1.65937 69.9332 0 65.9272 0 61.75V16.25ZM15.75 7.5C13.4294 7.5 11.2038 8.42187 9.56282 10.0628C7.92187 11.7038 7 13.9294 7 16.25V21.5H91V16.25C91 13.9294 90.0781 11.7038 88.4372 10.0628C86.7962 8.42187 84.5706 7.5 82.25 7.5H15.75ZM7 61.75C7 64.0706 7.92187 66.2962 9.56282 67.9372C11.2038 69.5781 13.4294 70.5 15.75 70.5H82.25C84.5706 70.5 86.7962 69.5781 88.4372 67.9372C90.0781 66.2962 91 64.0706 91 61.75V28.5H7V61.75ZM66.5 49.5H77C77.9283 49.5 78.8185 49.8687 79.4749 50.5251C80.1313 51.1815 80.5 52.0717 80.5 53C80.5 53.9283 80.1313 54.8185 79.4749 55.4749C78.8185 56.1313 77.9283 56.5 77 56.5H66.5C65.5717 56.5 64.6815 56.1313 64.0251 55.4749C63.3687 54.8185 63 53.9283 63 53C63 52.0717 63.3687 51.1815 64.0251 50.5251C64.6815 49.8687 65.5717 49.5 66.5 49.5Z" fill="#16171D" fill-opacity="0.4"/>
</svg>
