<svg width="32" height="32" viewBox="0 0 32 32" fill="none" xmlns="http://www.w3.org/2000/svg">
<path d="M16 18.333C15.4533 18.333 15 17.8797 15 17.333V10.333C15 9.78634 15.4533 9.33301 16 9.33301C16.5467 9.33301 17 9.78634 17 10.333V17.333C17 17.8797 16.5467 18.333 16 18.333Z" fill="#E30000" fill-opacity="0.6"/>
<path d="M15.9993 22.9996C15.6393 22.9996 15.306 22.8663 15.0527 22.613C14.9327 22.4797 14.8394 22.333 14.7594 22.173C14.6927 22.013 14.666 21.8396 14.666 21.6663C14.666 21.3196 14.8127 20.9729 15.0527 20.7196C15.546 20.2263 16.4527 20.2263 16.946 20.7196C17.186 20.9729 17.3327 21.3196 17.3327 21.6663C17.3327 21.8396 17.2927 22.013 17.226 22.173C17.1593 22.333 17.066 22.4797 16.946 22.613C16.6927 22.8663 16.3593 22.9996 15.9993 22.9996Z" fill="#E30000" fill-opacity="0.6"/>
<path d="M16.0009 30.3335C15.1076 30.3335 14.2009 30.1068 13.4009 29.6401L5.48088 25.0668C3.88088 24.1334 2.88086 22.4134 2.88086 20.5601V11.4402C2.88086 9.58682 3.88088 7.86681 5.48088 6.93348L13.4009 2.36016C15.0009 1.42682 16.9876 1.42682 18.6009 2.36016L26.5209 6.93348C28.1209 7.86681 29.1209 9.58682 29.1209 11.4402V20.5601C29.1209 22.4134 28.1209 24.1334 26.5209 25.0668L18.6009 29.6401C17.8009 30.1068 16.8942 30.3335 16.0009 30.3335ZM16.0009 3.6668C15.4542 3.6668 14.8942 3.81347 14.4009 4.09347L6.48088 8.6668C5.49421 9.24013 4.88086 10.2935 4.88086 11.4402V20.5601C4.88086 21.6934 5.49421 22.7601 6.48088 23.3335L14.4009 27.9068C15.3875 28.4801 16.6142 28.4801 17.5876 27.9068L25.5076 23.3335C26.4942 22.7601 27.1076 21.7068 27.1076 20.5601V11.4402C27.1076 10.3068 26.4942 9.24013 25.5076 8.6668L17.5876 4.09347C17.1076 3.81347 16.5476 3.6668 16.0009 3.6668Z" fill="#E30000" fill-opacity="0.6"/>
</svg>
