<svg width="38" height="30" viewBox="0 0 38 30" fill="none" xmlns="http://www.w3.org/2000/svg">
<path d="M13.5286 10.9608L13.5278 10.9603L8.35506 7.46879L8.35498 7.46874C7.63116 6.98002 6.7109 7.50951 6.7109 8.26027V20.0297C6.7109 20.0298 6.7109 20.0299 6.7109 20.03C6.711 20.342 6.62196 20.6464 6.45581 20.9097C6.28975 21.1729 6.05382 21.384 5.77628 21.5228C5.49889 21.6615 5.18892 21.7236 4.87968 21.7037C4.57042 21.6839 4.27085 21.5828 4.01373 21.409L0.625 19.121V20.1617L7.26245 24.6415L6.9128 25.1596L7.26245 24.6415L14.0001 29.189C14.7239 29.6775 15.6443 29.1479 15.6443 28.3971V16.8872C15.6443 15.3793 17.3699 14.5835 18.5699 15.3936L18.2202 15.9116L18.5699 15.3936L21.576 17.423L21.5761 17.4231L29.1409 22.529C29.1409 22.529 29.141 22.5291 29.141 22.5291C29.8655 23.0177 30.7856 22.4877 30.7856 21.7372V10.2294C30.7856 8.72137 32.5113 7.92623 33.7108 8.73578L36.875 10.8704V9.82912L29.6433 4.94927V4.95991L28.6687 4.30206L23.4965 0.81102C23.4964 0.811008 23.4964 0.810997 23.4964 0.810985C22.7725 0.322563 21.8522 0.852146 21.8522 1.60288V13.3672C21.8522 14.7636 20.2588 15.4907 19.1557 14.7469L13.5286 10.9608ZM13.5286 10.9608L19.1549 14.7463L13.5286 10.9608Z" stroke="white" stroke-width="1.25"/>
<path d="M25.5848 26.6546C25.5848 28.1342 24.3307 29.3748 22.7319 29.3748C21.1331 29.3748 19.8789 28.1342 19.8789 26.6546C19.8789 25.1749 21.1331 23.9343 22.7319 23.9343C24.3307 23.9343 25.5848 25.1749 25.5848 26.6546Z" stroke="white" stroke-width="1.25"/>
</svg>
